/* XPM */
static const char * account_movement_16x16_xpm[] = {
"16 16 49 1",
" 	c None",
".	c #96D28D",
"+	c #72C066",
"@	c #85CC7B",
"#	c #2D6E28",
"$	c #33752D",
"%	c #397D33",
"&	c #3F8539",
"*	c #59A650",
"=	c #5FAD56",
"-	c #65B45B",
";	c #83C679",
">	c #87CA7C",
",	c #8BCF81",
"'	c #296925",
")	c #7ABD74",
"!	c #7EC079",
"~	c #82C27D",
"{	c #95CC8E",
"]	c #9ACF93",
"^	c #9FD296",
"/	c #A3D49A",
"(	c #A7D69E",
"_	c #88CA7E",
":	c #90D187",
"<	c #256421",
"[	c #78BD72",
"}	c #7CBF76",
"|	c #80C17A",
"1	c #93CB8B",
"2	c #98CE90",
"3	c #9CD094",
"4	c #A1D398",
"5	c #A5D49C",
"6	c #85C87B",
"7	c #90CF87",
"8	c #22601E",
"9	c #266522",
"0	c #2B6B26",
"a	c #30722B",
"b	c #4A9242",
"c	c #509A48",
"d	c #65AC5D",
"e	c #86C37D",
"f	c #7DC073",
"g	c #84C57B",
"h	c #5DA654",
"i	c #75B86E",
"j	c #82B87B",
"            .   ",
"            +@  ",
"     #$%&*=-;>, ",
"     ')!~{]^/(_:",
"     <[}|1234567",
"     890abcdefg ",
"            hi  ",
"            j   ",
"   .            ",
"  @+            ",
" ,>;-=*&%$#     ",
":_(/^]{~!)'     ",
"7654321|}[<     ",
" gfedcba098     ",
"  ih            ",
"   j            "};
