/* XPM */
static const char * account_32x32_xpm[] = {
"32 32 405 2",
"  	c None",
". 	c #B4C2A1",
"+ 	c #C1C69E",
"@ 	c #CDCFA0",
"# 	c #D3D3A1",
"$ 	c #CBCE97",
"% 	c #CED498",
"& 	c #BEC88C",
"* 	c #C3CF9D",
"= 	c #B3C59D",
"- 	c #B3C7AC",
"; 	c #C5CF9D",
"> 	c #D6D68E",
", 	c #D4CA75",
"' 	c #E8D77B",
") 	c #F9E582",
"! 	c #F9E680",
"~ 	c #FEED85",
"{ 	c #F0E277",
"] 	c #F6EB82",
"^ 	c #E6DD7E",
"/ 	c #CCC871",
"( 	c #C7CE81",
"_ 	c #C3D59B",
": 	c #A8BA90",
"< 	c #CBD08E",
"[ 	c #EAE591",
"} 	c #F6E989",
"| 	c #FFEF87",
"1 	c #FFF284",
"2 	c #F5E472",
"3 	c #F7E96F",
"4 	c #F3E86C",
"5 	c #F5E96F",
"6 	c #ECE06A",
"7 	c #FEEE7F",
"8 	c #FBEA80",
"9 	c #FBEE86",
"0 	c #FCF08A",
"a 	c #FEF28E",
"b 	c #EEE886",
"c 	c #D3D477",
"d 	c #CFD994",
"e 	c #C7D6AF",
"f 	c #C7CD8D",
"g 	c #BDBB64",
"h 	c #CEC256",
"i 	c #D3C048",
"j 	c #D1B93D",
"k 	c #D1B83A",
"l 	c #E1CC4D",
"m 	c #FFF272",
"n 	c #F4E663",
"o 	c #F6E967",
"p 	c #E2D555",
"q 	c #E9D95F",
"r 	c #EBD766",
"s 	c #FAE578",
"t 	c #FCEC7D",
"u 	c #FFF081",
"v 	c #FEE97C",
"w 	c #FFEE7E",
"x 	c #FFF07A",
"y 	c #EAE17A",
"z 	c #D3D693",
"A 	c #C9D498",
"B 	c #CEC975",
"C 	c #DACE6C",
"D 	c #EEE280",
"E 	c #F9ED89",
"F 	c #FCF187",
"G 	c #FBEF7F",
"H 	c #FFF781",
"I 	c #F1E168",
"J 	c #D7C44B",
"K 	c #FFF279",
"L 	c #FDE76F",
"M 	c #E4CE57",
"N 	c #EBD25E",
"O 	c #F9E06C",
"P 	c #FFEB78",
"Q 	c #FAEA79",
"R 	c #FFEE85",
"S 	c #FFE77D",
"T 	c #FFEC7E",
"U 	c #FFEF85",
"V 	c #DCD97A",
"W 	c #EDF9B9",
"X 	c #C4D18C",
"Y 	c #D0CE61",
"Z 	c #F6E265",
"` 	c #FDE463",
" .	c #FFEB72",
"..	c #FCEC7B",
"+.	c #F5E87F",
"@.	c #FCF188",
"#.	c #FFF88D",
"$.	c #F6EC7D",
"%.	c #FDF27F",
"&.	c #F8E974",
"*.	c #E7D45C",
"=.	c #F5DF67",
"-.	c #F6DC63",
";.	c #F9DC64",
">.	c #F6D961",
",.	c #FBE26C",
"'.	c #FFF17F",
").	c #FCEB7F",
"!.	c #FEE883",
"~.	c #FFED88",
"{.	c #E5DA6E",
"].	c #F6F69C",
"^.	c #D3D68F",
"/.	c #D7D46B",
"(.	c #EDE465",
"_.	c #FCEA62",
":.	c #F0DA51",
"<.	c #F2DD5D",
"[.	c #FAE86C",
"}.	c #FBEA74",
"|.	c #FDED7C",
"1.	c #FCEE81",
"2.	c #FAEE82",
"3.	c #FDF185",
"4.	c #E9DB60",
"5.	c #FFF06C",
"6.	c #D3BD34",
"7.	c #E1C73F",
"8.	c #F2D356",
"9.	c #FFE671",
"0.	c #FFE97B",
"a.	c #FFEE87",
"b.	c #FFEB88",
"c.	c #FFEF8D",
"d.	c #FDF48F",
"e.	c #EFE37D",
"f.	c #EED970",
"g.	c #FAEB84",
"h.	c #BABD62",
"i.	c #CBCC90",
"j.	c #E1D36A",
"k.	c #EFDF66",
"l.	c #FEEB68",
"m.	c #F9E65C",
"n.	c #E5D248",
"o.	c #E5D14C",
"p.	c #F0DB5B",
"q.	c #F8E366",
"r.	c #FEE972",
"s.	c #FCEA7A",
"t.	c #FCEB81",
"u.	c #FCEE85",
"v.	c #FDF080",
"w.	c #ECE163",
"x.	c #F4E75D",
"y.	c #D4BF30",
"z.	c #F8DD50",
"A.	c #F9D855",
"B.	c #FCD961",
"C.	c #FFE373",
"D.	c #FFE77B",
"E.	c #FFED85",
"F.	c #FDEB85",
"G.	c #E0D772",
"H.	c #EBDE75",
"I.	c #FFEE79",
"J.	c #CBB440",
"K.	c #C8C159",
"L.	c #DED383",
"M.	c #F5DA69",
"N.	c #FDDE6A",
"O.	c #FFE56D",
"P.	c #F3DE5E",
"Q.	c #E6D44E",
"R.	c #EBD752",
"S.	c #F5DE5C",
"T.	c #F9E062",
"U.	c #FCE36C",
"V.	c #FEE777",
"W.	c #FFEB7E",
"X.	c #FBE97D",
"Y.	c #FFEE7C",
"Z.	c #E4D558",
"`.	c #FFED67",
" +	c #CAB42A",
".+	c #F7DC51",
"++	c #FFDF5A",
"@+	c #FED859",
"#+	c #F4D256",
"$+	c #E8C84F",
"%+	c #E6C753",
"&+	c #F1D766",
"*+	c #FBE97B",
"=+	c #DDCA52",
"-+	c #C2A71A",
";+	c #BCA61F",
">+	c #D4CE6C",
",+	c #D2D8B2",
"'+	c #E5D178",
")+	c #FEDE6D",
"!+	c #FFE372",
"~+	c #FFE06C",
"{+	c #FFE970",
"]+	c #F0D85C",
"^+	c #E7CE4F",
"/+	c #E5CC4E",
"(+	c #EED159",
"_+	c #FCDF6A",
":+	c #FFE473",
"<+	c #FEE475",
"[+	c #FDE672",
"}+	c #FFEB74",
"|+	c #EEDA5D",
"1+	c #EDD859",
"2+	c #CEB737",
"3+	c #DFC443",
"4+	c #E6C947",
"5+	c #DDBF3D",
"6+	c #DFC240",
"7+	c #DEC141",
"8+	c #D7B83B",
"9+	c #CCB033",
"0+	c #B39B1F",
"a+	c #AB9410",
"b+	c #C8AF17",
"c+	c #DAC73D",
"d+	c #A9A54A",
"e+	c #D9D7A4",
"f+	c #F2DE87",
"g+	c #FEE275",
"h+	c #FCE271",
"i+	c #FFE673",
"j+	c #FFDF6E",
"k+	c #FFDD6D",
"l+	c #FDDC68",
"m+	c #F2D35F",
"n+	c #EFD163",
"o+	c #FADB6F",
"p+	c #FFE375",
"q+	c #FFE365",
"r+	c #EFD655",
"s+	c #FFEC71",
"t+	c #E7CE58",
"u+	c #977F11",
"v+	c #907A0B",
"w+	c #8E7B03",
"x+	c #938405",
"y+	c #908301",
"z+	c #958402",
"A+	c #9E8705",
"B+	c #AD950F",
"C+	c #B7A014",
"D+	c #D2BC2B",
"E+	c #C5AB18",
"F+	c #9D8B0B",
"G+	c #B7B761",
"H+	c #D9D99B",
"I+	c #F1E084",
"J+	c #FDE778",
"K+	c #F5E06D",
"L+	c #FFE876",
"M+	c #FFE378",
"N+	c #FFDD72",
"O+	c #F7D663",
"P+	c #EACD58",
"Q+	c #EED264",
"R+	c #FDE374",
"S+	c #FFE675",
"T+	c #FDE36A",
"U+	c #FCE15C",
"V+	c #EBD149",
"W+	c #EDD153",
"X+	c #D4BA43",
"Y+	c #826A00",
"Z+	c #8C770C",
"`+	c #8C7D0A",
" @	c #8F8509",
".@	c #97900C",
"+@	c #A59B15",
"@@	c #B49E17",
"#@	c #B1960B",
"$@	c #AB9100",
"%@	c #A58B00",
"&@	c #9C8300",
"*@	c #CABE48",
"=@	c #C6CC8C",
"-@	c #D7DE9A",
";@	c #F8E771",
">@	c #FBEA76",
",@	c #FBE777",
"'@	c #FCE075",
")@	c #FFE377",
"!@	c #FFE871",
"~@	c #F7E366",
"{@	c #F7E569",
"]@	c #F8E96C",
"^@	c #F5E269",
"/@	c #F2DE61",
"(@	c #EED84F",
"_@	c #C7AF27",
":@	c #957D00",
"<@	c #8B7600",
"[@	c #806C00",
"}@	c #827200",
"|@	c #817600",
"1@	c #867E00",
"2@	c #8C7F00",
"3@	c #9C7E00",
"4@	c #B69007",
"5@	c #BA9604",
"6@	c #C3A50F",
"7@	c #DFCB36",
"8@	c #CCC85C",
"9@	c #748366",
"0@	c #D0DFA6",
"a@	c #D9D569",
"b@	c #F8EA67",
"c@	c #F5E56B",
"d@	c #FAE771",
"e@	c #FFE678",
"f@	c #FBE56D",
"g@	c #F8E565",
"h@	c #F9E866",
"i@	c #E6D758",
"j@	c #DFD053",
"k@	c #E6D65C",
"l@	c #BDAB2F",
"m@	c #A49013",
"n@	c #AC9919",
"o@	c #D1BE3D",
"p@	c #CAB737",
"q@	c #C7B338",
"r@	c #C7B537",
"s@	c #C1B731",
"t@	c #C2B42F",
"u@	c #C8AC2E",
"v@	c #CBAD33",
"w@	c #DAC248",
"x@	c #D5C651",
"y@	c #BEBB50",
"z@	c #737F3F",
"A@	c #DAD96F",
"B@	c #DDCC3E",
"C@	c #FAE45D",
"D@	c #FCE364",
"E@	c #FCE46A",
"F@	c #FAE16B",
"G@	c #FAE067",
"H@	c #EED652",
"I@	c #E3CC48",
"J@	c #DECB4A",
"K@	c #DBCC55",
"L@	c #AB9E36",
"M@	c #897D1B",
"N@	c #8F831D",
"O@	c #B8AC3E",
"P@	c #CCBC42",
"Q@	c #CBB838",
"R@	c #CEB439",
"S@	c #CEB537",
"T@	c #CCBB39",
"U@	c #CBBD40",
"V@	c #C7BA4A",
"W@	c #B5AC4F",
"X@	c #9AA056",
"Y@	c #6A7C4A",
"Z@	c #979C59",
"`@	c #E7DB6B",
" #	c #D6C343",
".#	c #D9C548",
"+#	c #D9C54A",
"@#	c #DDC750",
"##	c #E1CA56",
"$#	c #E4CF58",
"%#	c #D8C656",
"&#	c #B3A948",
"*#	c #8D873B",
"=#	c #595925",
"-#	c #43481F",
";#	c #424B1C",
">#	c #505920",
",#	c #596116",
"'#	c #646716",
")#	c #756E20",
"!#	c #756F21",
"~#	c #6B6E1D",
"{#	c #646C21",
"]#	c #596327",
"^#	c #44552B",
"/#	c #6D6F48",
"(#	c #AFB25B",
"_#	c #D0CE5D",
":#	c #DCD35A",
"<#	c #DCD155",
"[#	c #D1C54D",
"}#	c #B6AC3D",
"|#	c #989234",
"1#	c #7E7D3C",
"2#	c #616849",
"3#	c #46581C",
"4#	c #5E6821",
"5#	c #666D20",
"6#	c #676F24",
"7#	c #576323",
"8#	c #435428",
"                                                                ",
"                                                                ",
"                                                                ",
"                                                                ",
"                                                                ",
"                                                                ",
"                                                                ",
"                                                                ",
"                              . + @ # $ % & * =                 ",
"                        - ; > , ' ) ! ~ { ] ^ / ( _             ",
"                  : < [ } | 1 2 3 4 5 6 7 8 9 0 a b c d         ",
"              e f g h i j k l m n o p q r s t u v w x y z       ",
"          A B C D E 0 F G H I J K L M N O P Q t R S T U V W     ",
"        X Y Z `  ...+.@.#.$.%.&.*.=.-.;.>.,.'.).!.~.R U {.].    ",
"      ^./.(._.:.<.[.}.|.1.2.3.%.4.5.6.7.8.9.0.a.b.c.d.e.f.g.h.  ",
"    i.j.k.l.m.n.o.p.q.r.s.t.u.v.w.x.y.z.A.B.C.D.E.F.G.H.I.J.K.  ",
"    L.M.N.O.P.Q.R.S.T.U.V.W.X.Y.Z.`. +.+++@+#+$+%+&+*+=+-+;+>+  ",
"  ,+'+)+!+~+{+]+^+/+(+_+:+<+[+}+|+1+2+3+4+5+6+7+8+9+0+a+b+c+d+  ",
"  e+f+g+h+i+j+k+l+m+n+o+p+9.q+r+s+t+u+v+w+x+y+z+A+B+C+D+E+F+G+  ",
"  H+I+J+K+L+M+N+O+P+Q+R+S+T+U+V+W+X+Y+Z+`+ @.@+@@@#@$@%@&@*@=@  ",
"  -@y ;@>@,@'@)@!@~@{@]@^@/@o.(@_@:@<@[@}@|@1@2@3@4@5@6@7@8@9@  ",
"  0@a@b@c@d@e@<+f@g@h@n i@j@k@l@m@n@o@p@q@r@s@t@u@v@w@x@y@z@    ",
"    A@B@C@D@E@F@,.G@H@I@J@K@L@M@N@O@P@Q@R@S@T@U@V@W@X@Y@        ",
"    Z@`@P@ #.#+#@###$#%#&#*#=#-#;#>#,#'#)#!#~#{#]#^#            ",
"      /#(#_#:#<#[#}#|#1#2#                                      ",
"          3#4#5#6#7#8#                                          ",
"                                                                ",
"                                                                ",
"                                                                ",
"                                                                ",
"                                                                ",
"                                                                "};
