/* XPM */
static const char * account_16x16_xpm[] = {
"16 16 20 1",
" 	c None",
".	c #7E7E80",
"+	c #919192",
"@	c #9B9B9C",
"#	c #6F7072",
"$	c #585859",
"%	c #F1CDCB",
"&	c #B07F7B",
"*	c #DA7979",
"=	c #E3E4E4",
"-	c #FEA04F",
";	c #F5DBDA",
">	c #666668",
",	c #A3A4A5",
"'	c #C5C5C5",
")	c #BEBDBE",
"!	c #ADACAD",
"~	c #89898A",
"{	c #B5B5B6",
"]	c #CBCCCC",
"                ",
"     .+@@+.     ",
"      #$$#      ",
"      %&*=      ",
"      %--;      ",
"     .#>>#.     ",
"    .>>##>>.    ",
"   .>>.,'.>>.   ",
"   #>>)!@~>>.   ",
"   #>>@{@>>>#   ",
"   #>>>.'{>>>   ",
"   #>#~.~]#>>   ",
"   #>>{!',>>>   ",
"   ##>#.~>>#>   ",
"   ..$>>>>>..   ",
"    ........    "};
