/* XPM */
static const char *accounting_16x16_xpm[] = {
"16 16 7 1",
" 	c None",
".	c #5A6169",
"+	c #616870",
"@	c #F2F2F3",
"#	c #DEE0E3",
"$	c #CFD2D6",
"%	c #4D535A",
"                ",
" ..........     ",
" +@######$%     ",
" +%%%%%%%%%     ",
"   %            ",
"   %  ..........",
"   %%%+@######$%",
"   %  +%%%%%%%%%",
"   %            ",
"   %  ..........",
"   %%%+@######$%",
"   %  +%%%%%%%%%",
"   %            ",
"   %  ..........",
"   %%%+@######$%",
"      +%%%%%%%%%"};
