/* XPM */
static char * altrix_xpm[] = {
"87 30 3 1",
" 	c None",
".	c #22437F",
"+	c #000000",
"                                                                                       ",
"......     .....                                 ....                                  ",
"......     .....                                 .....                                 ",
".......    .....                                 .....                                 ",
".......    .....                                 .....                                 ",
"........   .....     ........       ........   ..........     ........      .......... ",
"........   .....    ..........    ..........   ..........    ..........     .......... ",
".........  .....   ............   ..........   ..........   ............    .......... ",
".........  .....  ......   .....  ....    ..     .....     ......  ......   ......     ",
"..... .... .....  .....    .....  ....           .....     .....    .....   .....      ",
"..... .... .....  ..............  .........      .....     .....    .....   .....      ",
".....  .........  ..............   ..........    .....     .....    .....   .....      ",
".....  .........  ..............    ..........   .....     .....    .....   .....      ",
".....   ........  .....                  .....   .....     .....    .....   .....      ",
".....   ........  ......    ...   ..     ......  .....     ......  ......   .....      ",
".....    .......   ............   ............   ........   ............    .....      ",
".....    .......    ...........   ............   ........    ..........     .....      ",
".....     ......     .........    ..........      .......     ........      .....      ",
"                                                                                       ",
"                 +++                                                                   ",
"       +++++++   +++           +++                                                     ",
"      ++++++++                 +++                                                     ",
"      +++    +   +++   ++++++ +++++++   +++++   +++++++ ++++   +++++++    ++++++       ",
"      ++++       +++  +++++++ +++++++  +++++++  +++++++++++++  ++++++++  +++++++       ",
"      ++++++++   +++  +++   +  +++    +++   +++ +++  +++  +++       +++  +++   +       ",
"       ++++++++  +++  ++++++   +++    +++++++++ +++  +++  +++   +++++++  ++++++        ",
"           ++++  +++   ++++++  +++    +++++++++ +++  +++  +++  ++++++++   ++++++       ",
"      +     +++  +++  +   +++  +++    +++    +  +++  +++  +++  +++  +++  +   +++       ",
"      ++++++++   +++  +++++++  ++++++ ++++++++  +++  +++  +++  ++++++++  +++++++       ",
"      ++++++++   +++  ++++++    +++++   ++++++  +++  +++  +++   +++++++  ++++++        "};
