/* XPM */
static const char * attachment_16x16_xpm[] = {
"16 16 72 1",
" 	c None",
".	c #6891A7",
"+	c #618CA1",
"@	c #799DAF",
"#	c #638DA4",
"$	c #789CAF",
"%	c #DAE4E9",
"&	c #93B0BE",
"*	c #7EA0B3",
"=	c #628AA0",
"-	c #658FA4",
";	c #D3DEE4",
">	c #DAE3E9",
",	c #83A5B6",
"'	c #4E7F96",
")	c #86A6B7",
"!	c #4F7C93",
"~	c #668FA6",
"{	c #5E889F",
"]	c #E3EAEE",
"^	c #F2F5F7",
"/	c #DCE6EA",
"(	c #7B9EB1",
"_	c #C2D1DA",
":	c #C0D2DA",
"<	c #265877",
"[	c #59849B",
"}	c #F8FAFB",
"|	c #5A879D",
"1	c #558198",
"2	c #84A5B8",
"3	c #DFE8EC",
"4	c #4A7690",
"5	c #CCD8DF",
"6	c #30627F",
"7	c #779AAE",
"8	c #6D95A9",
"9	c #406E88",
"0	c #43758F",
"a	c #2A5F7D",
"b	c #2D6481",
"c	c #DBE4E9",
"d	c #618BA2",
"e	c #F5F8FA",
"f	c #557F99",
"g	c #F7F9FA",
"h	c #F1F4F6",
"i	c #DEE7EB",
"j	c #D9E4E9",
"k	c #87A8B9",
"l	c #386883",
"m	c #F2F6F7",
"n	c #D7E1E7",
"o	c #D7E2E8",
"p	c #7FA1B4",
"q	c #61899F",
"r	c #7297AA",
"s	c #D3DFE6",
"t	c #5E89A1",
"u	c #C1D0D8",
"v	c #DCE5EA",
"w	c #6891A6",
"x	c #FCFDFE",
"y	c #D9E2E8",
"z	c #6590A5",
"A	c #90ACBB",
"B	c #E0E9ED",
"C	c #295E7B",
"D	c #5A859B",
"E	c #E5ECF0",
"F	c #CEDBE1",
"G	c #FCFDFD",
"                ",
"                ",
"        ~z#     ",
"       2   t    ",
"       k $ d    ",
"     - ) * {    ",
"     8 , ( [    ",
"     . p 7 f    ",
"     + @ r !    ",
"     | w = 4    ",
"     ' &DA 9    ",
"     0  j  l    ",
"     b     <    ",
"      1   q     ",
"       aC6      ",
"                "};
