/* XPM */
static const char *backup_16x16_xpm[] = {
"16 16 33 1",
" 	c None",
".	c #C9CBC8",
"+	c #BEBEBE",
"@	c #D7D7D7",
"#	c #FBFBFB",
"$	c #FBF7FB",
"%	c #C7C7C7",
"&	c #D3D3D3",
"*	c #E3E3E3",
"=	c #FFFFFF",
"-	c #BABABA",
";	c #F3F3F3",
">	c #F7F7F7",
",	c #B6B6B6",
"'	c #B2B2B2",
")	c #DBDBDB",
"!	c #F3EFF2",
"~	c #ABAAAB",
"{	c #C3C3C3",
"]	c #A2A2A2",
"^	c #EFEFEF",
"/	c #AEAEAE",
"(	c #DFDFDF",
"_	c #EBEBEB",
":	c #DDD6C8",
"<	c #D6CEC2",
"[	c #CECABE",
"}	c #9F9E9E",
"|	c #9EA2A0",
"1	c #DBD8D3",
"2	c #DCD7DC",
"3	c #A2A29E",
"4	c #A29EA2",
"      .++++@    ",
"      +##$#%@   ",
"    .+&&&*=#%@  ",
"    -;>>#@*=#+  ",
"  .+-,'.;#)*$+  ",
"  +$!*=~{;$+$]  ",
"  +#^)==/.;+$]  ",
"  +#^(==='!]$]  ",
"  +#>_()*,;];]  ",
"  ]>:<[[_}>]!]  ",
"  |$$!^>$];]_]  ",
"  ]>(::($]!]]'  ",
"  |>1<<1>]_]    ",
"  ]^:[[:^]]'    ",
"  |__2@_^]      ",
"  '}34]|}'      "};
