/* XPM */
static const char *balance_16x16_xpm[] = {
"16 16 3 1",
" 	c None",
".	c #000000",
"+	c #B6B6B6",
"                ",
"       .        ",
"       .        ",
"   ..........   ",
"  .   ...   .   ",
"  .    .    .   ",
" + +   .   + +  ",
" + +   .   + +  ",
"+   +  .  +   + ",
"+   +  .  +   + ",
".....  .  +...+ ",
" ...   .   ...  ",
"      ...       ",
"     .....      ",
"      ...       ",
"                "};
