/* XPM */
static const char * bank_16x16_xpm[] = {
"16 16 39 1",
" 	c None",
".	c #767676",
"+	c #6D6D6D",
"@	c #969696",
"#	c #D7D7D7",
"$	c #616161",
"%	c #848484",
"&	c #C7C7C7",
"*	c #BDBDBD",
"=	c #7A7A7A",
"-	c #565656",
";	c #727272",
">	c #B4B4B4",
",	c #B9B9B9",
"'	c #737373",
")	c #525252",
"!	c #C8C8C8",
"~	c #414141",
"{	c #444444",
"]	c #4A4A4A",
"^	c #717171",
"/	c #F0F0F0",
"(	c #696969",
"_	c #E9E9E9",
":	c #707070",
"<	c #606060",
"[	c #E2E2E2",
"}	c #575757",
"|	c #DDDDDD",
"1	c #777777",
"2	c #4E4E4E",
"3	c #DADADA",
"4	c #7F7F7F",
"5	c #464646",
"6	c #D9D9D9",
"7	c #898989",
"8	c #7D7D7D",
"9	c #7B7B7B",
"0	c #F5F5F5",
"       ..       ",
"     +@##@+     ",
"   $%&*==*&%$   ",
" -;>,'----',>;- ",
" )!!!!!!!!!!!!) ",
" ~{]{{]{{]{{]{~ ",
"  ^/^^/^^/^^/^  ",
"  (_::_::_::_(  ",
"  <[^^[^^[^^[<  ",
"  }|11|11|11|}  ",
"  234434434432  ",
"  567767767765  ",
"889=99=99=99=988",
"(00000000000000(",
"2222222222222222",
"                "};
