/* XPM */
static const char * barcode_16x16_xpm[] = {
"32 32 18 1",
" 	c None",
".	c #000000",
"+	c #080000",
"@	c #000808",
"#	c #080808",
"$	c #101010",
"%	c #101018",
"&	c #181010",
"*	c #181818",
"=	c #181820",
"-	c #202020",
";	c #202028",
">	c #202828",
",	c #282828",
"'	c #757575",
")	c #F8F8F8",
"!	c #FCFCFC",
"~	c #FFFFFF",
"                                ",
"                                ",
"                                ",
"                                ",
"################################",
"*!!!!!!!!)))!)!!!!!!!!!!!!!!!!!*",
"*!!!#)*!$+!$!#!+!&!+!&-!*!&!-$!*",
"*!!!#)*!$+!$!#!+!&!+!&-!*!&!-$!*",
"*!!!#)*!$+!$!#!+!&!+!&-!*!&!-$!*",
"*!!!+)*!++!+!+!+!+!+!++!+!+!++!*",
"*!!!+)*!++!+!+!+!+!+!++!+!+!++!*",
"*!!!+)*!++!+!+!+!+!+!++!+!+!++!*",
"*!!!+)*!++!+!+!+!+!+!++!+!+!++!*",
"*!!!+)*!++!+!+!+!+!+!++!+!+!++!*",
"*!!!+)*!++!+!+!+!+!+!++!+!+!++!*",
"*!!!+)*!++!+!+!+!+!+!++!+!+!++!*",
"*!!!+)*!++!+!+!+!+!+!++!+!+!++!*",
"*!!!+)*!++!+!+!+!+!+!++!+!+!++!*",
"*!!!+)*!++!+!+!+!+!+!++!+!+!++!*",
"*!!!+)*!++!+!+!+!+!+!++!+!+!++!*",
"*!!!+)*!++!+!+!+!+!+!++!+!+!++!*",
"*!!!+!*!++!+!+!+!+!+!++!+!+!++!*",
"*!~~.!*!!!!!!!!!!!!!!!!!!!!!+.~*",
"*!;*#!*!;*!!;!=#*!..!,%!*#*!+#~*",
"*~~**!*!'*!**!**~!.!!!*!*!*!+*~*",
"*!;!@!*!!@!*@!!!-!*>!*=!-*@!+@~*",
"*!$-*!*!-$!!+!+++!**!,)!*.*!+$~*",
"*!!!!!!!!)))!)!!!!!!!!!!!!!!!!!*",
"################################",
"                                ",
"                                ",
"                                "};
