/* XPM */
static const char * calculator_16x16_xpm[] = {
"16 16 24 1",
" 	c None",
".	c #9B9B9C",
"+	c #585859",
"@	c #B5B5B6",
"#	c #E3E4E4",
"$	c #D6D6D7",
"%	c #ECB9B6",
"&	c #D1D1D2",
"*	c #FFFFFF",
"=	c #FFD8B6",
"-	c #FEBC84",
";	c #949496",
">	c #ADACAD",
",	c #89898A",
"'	c #666668",
")	c #A3A4A5",
"!	c #7E7E80",
"~	c #BEBDBE",
"{	c #6F7072",
"]	c #E6E6E6",
"^	c #EFEFEF",
"/	c #C5C5C5",
"(	c #E0E0E1",
"_	c #F6F6F7",
"    .........   ",
"   .+++++++++.  ",
"   .+@###$%%+.  ",
"   .+&***=--+.  ",
"   .+;@@@@>>+.  ",
"   .+++++++++.  ",
"   .+,.')!!)+.  ",
"   .+~${].;^+.  ",
"   .+{{'{''{+.  ",
"   .+>/{&;,$+.  ",
"   .+.>'@,!~+.  ",
"   .+{!'!{{!+.  ",
"   .+/({^.;_+.  ",
"   .+{!'!{{!+.  ",
"   ..+++++++..  ",
"    .........   "};
