/* XPM */
static const char * calendar_16x16_xpm[] = {
"16 16 44 1",
" 	c None",
".	c #5085A6",
"+	c #6CC1F4",
"@	c #4D82A3",
"#	c #0B7FE4",
"$	c #235574",
"%	c #0882F2",
"&	c #0A7CEB",
"*	c #497E9F",
"=	c #087CF9",
"-	c #497D9F",
";	c #46799A",
">	c #FEFEFF",
",	c #457999",
"'	c #417596",
")	c #C6D9E5",
"!	c #8BAABC",
"~	c #3E7292",
"{	c #FCFDFF",
"]	c #FFFFFF",
"^	c #FF3F3F",
"/	c #EE3133",
"(	c #3D7091",
"_	c #3A6D8E",
":	c #F8FAFF",
"<	c #CA949A",
"[	c #396C8D",
"}	c #376989",
"|	c #F4F8FE",
"1	c #FFC0C0",
"2	c #366889",
"3	c #326585",
"4	c #F0F5FE",
"5	c #326484",
"6	c #2E6181",
"7	c #EBF4FD",
"8	c #2E5F7F",
"9	c #2A5C7C",
"0	c #E8F1FD",
"a	c #295B7A",
"b	c #275878",
"c	c #E6F0FD",
"d	c #E5F0FD",
"e	c #265877",
"                ",
" .............  ",
".+++++++++++++. ",
"@#$$$$%$%%%%%&@ ",
"*=============- ",
";>>>>>>>>>>>>>, ",
"'>))))!!!!!!!>' ",
"~{){){!]!^/]!{( ",
"_:!!!!!!/<</!:[ ",
"}|!]!]!]/1<^!|2 ",
"34!!!!!!!//!!45 ",
"67!]!]!]!]!{)78 ",
"90!!!!!!!!!))0a ",
"bcdccccccccccce ",
"$$$$$$$$$$$$$$$ ",
"                "};
