/* XPM */
static const char * calendar_bmp_btn_xpm[] = {
"14 13 134 2",
"  	c None",
". 	c #C5D5EA",
"+ 	c #AAC5EE",
"@ 	c #9FC0ED",
"# 	c #9DBEEB",
"$ 	c #9ABCEB",
"% 	c #96BAE9",
"& 	c #93B7E7",
"* 	c #90B5E6",
"= 	c #8CB2E4",
"- 	c #88AFE2",
"; 	c #84ACE0",
"> 	c #80A9DD",
", 	c #7DA5DC",
"' 	c #91B1DC",
") 	c #A6C4ED",
"! 	c #F4F7FB",
"~ 	c #77A2D7",
"{ 	c #9EBFEC",
"] 	c #FFA465",
"^ 	c #FFA364",
"/ 	c #FFA060",
"( 	c #FF9E5D",
"_ 	c #FF9958",
": 	c #FF9654",
"< 	c #FF904D",
"[ 	c #FF8B47",
"} 	c #FF8442",
"| 	c #FF7F3D",
"1 	c #6F9BD4",
"2 	c #98BAE9",
"3 	c #FFA262",
"4 	c #FFA161",
"5 	c #FF9F5F",
"6 	c #FF9D5C",
"7 	c #FF9A5A",
"8 	c #FF9857",
"9 	c #FF9554",
"0 	c #FF9452",
"a 	c #6493CE",
"b 	c #94B7E7",
"c 	c #A6C3E9",
"d 	c #FFFFFF",
"e 	c #A9C4E8",
"f 	c #AAC6E9",
"g 	c #ACC7E8",
"h 	c #B0C8E8",
"i 	c #EBF1F7",
"j 	c #5F8FCB",
"k 	c #8FB4E5",
"l 	c #F2F6FA",
"m 	c #ACC6E9",
"n 	c #ACC7EA",
"o 	c #ADC7E9",
"p 	c #AEC9E9",
"q 	c #B0C9E9",
"r 	c #71B06C",
"s 	c #6EAF6A",
"t 	c #6DAD68",
"u 	c #B5CCE8",
"v 	c #DEE7F2",
"w 	c #598AC8",
"x 	c #8CB1E3",
"y 	c #F1F6FA",
"z 	c #AEC9EA",
"A 	c #B0C9EA",
"B 	c #B3CBE9",
"C 	c #73B16F",
"D 	c #95D28E",
"E 	c #6FAF6B",
"F 	c #DBE5F1",
"G 	c #5586C6",
"H 	c #87AEE1",
"I 	c #F0F4FA",
"J 	c #B2CBEA",
"K 	c #B3CCEA",
"L 	c #7AB575",
"M 	c #79B574",
"N 	c #78B473",
"O 	c #B7CEEA",
"P 	c #75B370",
"Q 	c #74B26F",
"R 	c #72B16E",
"S 	c #AEC8E8",
"T 	c #C9D7EA",
"U 	c #5486C4",
"V 	c #82AADF",
"W 	c #EFF3F9",
"X 	c #9BD494",
"Y 	c #BACFEA",
"Z 	c #F2F6FB",
"` 	c #F0F3FA",
" .	c #CBD8EB",
"..	c #DDE6F2",
"+.	c #5F8DC8",
"@.	c #7EA8DD",
"#.	c #BAD0EB",
"$.	c #BBD0EB",
"%.	c #BDD1EB",
"&.	c #B5CDEA",
"*.	c #CCD9EB",
"=.	c #DBE4F1",
"-.	c #F1F4FA",
";.	c #5C8AC6",
">.	c #7AA4D9",
",.	c #EEF3F9",
"'.	c #BED2EB",
").	c #BFD3EB",
"!.	c #C0D3EB",
"~.	c #ADC7EA",
"{.	c #CDD9EC",
"].	c #F0F3F9",
"^.	c #EFF2F9",
"/.	c #5F8CC6",
"(.	c #75A1D7",
"_.	c #EDF2F8",
":.	c #EAF0F7",
"<.	c #E6EDF6",
"[.	c #E2EAF4",
"}.	c #DEE7F3",
"|.	c #D8E2F0",
"1.	c #C8D6EA",
"2.	c #DCE5F2",
"3.	c #F2F5FA",
"4.	c #5E8BC5",
"5.	c #8DAFDA",
"6.	c #739CD4",
"7.	c #6896D1",
"8.	c #6392CE",
"9.	c #5E8ECB",
"0.	c #5B8AC9",
"a.	c #5687C7",
"b.	c #5284C3",
"c.	c #759AC8",
". + @ # $ % & * = - ; > , ' ",
") ! ! ! ! ! ! ! ! ! ! ! ! ~ ",
"{ ! ] ^ / ( _ : < [ } | ! 1 ",
"2 ! ] ^ 3 4 5 6 7 8 9 0 ! a ",
"b ! c d e d f d g d h d i j ",
"k l f m n o p q r s t u v w ",
"x y z d A d B d C D E d F G ",
"H I J K L M N O P Q R S T U ",
"V W O d L X M d Y Z `  ...+.",
"@.W #.$.L L L %.&.I *.=.-.;.",
">.,.'.d ).d !.d ~.{.=.].^./.",
"(._.:.<.[.}.=.|.1.2.-.].3.4.",
"5.6.7.8.9.0.a.b.b.b.b.b.b.c."};
