/* XPM */
static const char * cart_add_16x16_xpm[] = {
"18 18 10 1",
" 	c None",
".	c #777777",
"+	c #555555",
"@	c #DDDDDD",
"#	c #EEEEEE",
"$	c #BBBBBB",
"%	c #AAAAAA",
"&	c #888888",
"*	c #CCCCCC",
"=	c #FFFFFF",
"                  ",
"                  ",
"                  ",
"#&$               ",
"% &$$$$$$$$$$$$@  ",
"%&&=#=#=#=#=#=#%  ",
"  &#$$$$$%$%$%$&  ",
"  &=*=*#%#%#%@%&  ",
"  &*=*#*#%#%@%@&  ",
"  &#%#$@%#%@%@&@  ",
"  &$@%@%@%@%$%%%  ",
"  $&&&&&&&&&%==&  ",
"   &      $%$==&&%",
"   &&&&&&&%======&",
"  $++     %===#=#&",
"   &$     %&%==&&.",
"            &=#&  ",
"            %&&.  "};
