/* XPM */
static const char * cashdesk_16x16_xpm[] = {
"16 16 22 1",
" 	c None",
".	c #C5C5C5",
"+	c #BEBDBE",
"@	c #666668",
"#	c #6F7072",
"$	c #7E7E80",
"%	c #A3A4A5",
"&	c #B5B5B6",
"*	c #9B9B9C",
"=	c #F1CDCB",
"-	c #ECB9B6",
";	c #BE0202",
">	c #DA7979",
",	c #949496",
"'	c #899295",
")	c #ADACAD",
"!	c #E69F9F",
"~	c #89898A",
"{	c #BD9091",
"]	c #D34F4F",
"^	c #C92828",
"/	c #919192",
"                ",
".+++            ",
"@@#$%           ",
"@@$&*  =        ",
"@@$%* -;>       ",
"@@###,+>  =     ",
"@@@@@@@' -;-    ",
"@@@@@@@@#)>     ",
"@@@@@@@@@#  !   ",
"@@@@@@@@@@~=;!  ",
"@@@@@@@@@@@{>   ",
"@@@@@@@@@@@'  !-",
"@@@@@@@@@@@#%]^!",
"@@@@@@@@@@@#%^;-",
"%%%%%%%%%%%%%];-",
"*///////////    "};
