/* XPM */
static const char * chart_line_16x16_xpm[] = {
"16 16 89 1",
" 	c None",
".	c #EE2A31",
"+	c #FB6967",
"@	c #F34449",
"#	c #EE2931",
"$	c #FB6867",
"%	c #F3575B",
"&	c #F46E72",
"*	c #E93F48",
"=	c #9CB1D0",
"-	c #A7C0E4",
";	c #5A8CD4",
">	c #F24B51",
",	c #FC9998",
"'	c #F97575",
")	c #4D80C9",
"!	c #F0343A",
"~	c #4F82C9",
"{	c #5887CD",
"]	c #4F83CD",
"^	c #D1DFF2",
"/	c #EDF3FA",
"(	c #F5585B",
"_	c #ACC5E8",
":	c #A6BADE",
"<	c #5586CA",
"[	c #FEEEEF",
"}	c #F45055",
"|	c #FEB5B2",
"1	c #FBB0B1",
"2	c #AD8DB0",
"3	c #F9A5A8",
"4	c #ABC4E6",
"5	c #FC9493",
"6	c #EA535C",
"7	c #F89396",
"8	c #FFFBFB",
"9	c #FB9392",
"0	c #F8686A",
"a	c #FAABAC",
"b	c #CF566A",
"c	c #C57A91",
"d	c #8CA1C0",
"e	c #FBFCFE",
"f	c #ADC6EA",
"g	c #C899B0",
"h	c #FC9997",
"i	c #376AB2",
"j	c #4975B4",
"k	c #F95E5E",
"l	c #598BD2",
"m	c #F03339",
"n	c #F56E73",
"o	c #F0353C",
"p	c #A5BCDB",
"q	c #578AD2",
"r	c #4C81CC",
"s	c #FCD9DA",
"t	c #C4A6BC",
"u	c #F3676E",
"v	c #F55C5E",
"w	c #4E7ABB",
"x	c #A5BBDB",
"y	c #6B98D6",
"z	c #FEF2F3",
"A	c #A3B9D7",
"B	c #FEDCDC",
"C	c #F8FAFD",
"D	c #F78588",
"E	c #ADC7EB",
"F	c #93ACD1",
"G	c #F5575B",
"H	c #A9C1E3",
"I	c #5588D1",
"J	c #FE9694",
"K	c #83A7DA",
"L	c #FFFDFD",
"M	c #FBC1C2",
"N	c #7A88BD",
"O	c #F95F5F",
"P	c #F87374",
"Q	c #709FBD",
"R	c #4874B3",
"S	c #96B1D9",
"T	c #CFDDF0",
"U	c #F56D71",
"V	c #789CCD",
"W	c #F14D52",
"X	c #FFFFFF",
"                ",
"             1va",
"             (h}",
"            8G@3",
"            7UL ",
"       E;_ M>[  ",
",+5    q=QN*tSwp",
"$|kB  ^r):6cVidj",
"9O'0Pg{T Dn  xRA",
"   e2bW%!oz     ",
"  /yKCsmJ.      ",
"fI]-   &#u      ",
"lF~             ",
"4<H             ",
"                ",
"                "};
