/* XPM */
static const char * clock_16x16_xpm[] = {
"16 16 9 1",
" 	c None",
".	c #9E9A83",
"+	c #68675E",
"@	c #000000",
"#	c #B7B189",
"$	c #8C8C8C",
"%	c #F3F3F3",
"&	c #FFFFFF",
"*	c #0064CB",
"                ",
"     .++@++.    ",
"   #++$#@#$++#  ",
"  #+$%&&@&&%$+# ",
"  +$@&&&@&&&@$+ ",
" .+%&@&&&&&@&%+.",
" +$&&&*&&&&&&&$+",
" +#&&&&*&&&&&&#+",
" @@@@&&&*******@",
" +#&&&&&&&&&&&#+",
" +$&&&&&&&&&&&$+",
" .+%&@&&&&&@&%+.",
"  +$@&&&@&&&@$+ ",
"  #+$%&&@&&%$+# ",
"   #++$#@#$++#  ",
"     .++@++.    "};
