/* XPM */
static const char *coins_16x16_xpm[] = {
"16 16 96 2",
"  	c None",
". 	c #D5A248",
"+ 	c #DDB055",
"@ 	c #EECC6F",
"# 	c #FBDE7C",
"$ 	c #FFE17C",
"% 	c #FFE681",
"& 	c #F5DC8E",
"* 	c #E5BB6C",
"= 	c #E1AE53",
"- 	c #FCE898",
"; 	c #FFF3A7",
"> 	c #FFEEA2",
", 	c #AE7E39",
"' 	c #E2B055",
") 	c #FED374",
"! 	c #FCF1C2",
"~ 	c #FFFACD",
"{ 	c #FFF6BD",
"] 	c #FFF4B7",
"^ 	c #E3CF91",
"/ 	c #D6A544",
"( 	c #A67636",
"_ 	c #E0A445",
": 	c #EAAF4E",
"< 	c #ECC574",
"[ 	c #F1BE5B",
"} 	c #D4962D",
"| 	c #93620F",
"1 	c #8E6115",
"2 	c #9B6E2C",
"3 	c #AD7E39",
"4 	c #D8A54A",
"5 	c #DF9A37",
"6 	c #F1B54D",
"7 	c #DA9F44",
"8 	c #B6833C",
"9 	c #AD874B",
"0 	c #A68A57",
"a 	c #A38A5A",
"b 	c #CCAF6A",
"c 	c #DEAB4F",
"d 	c #E5BC6D",
"e 	c #D0AC6A",
"f 	c #BE975B",
"g 	c #FBEFB3",
"h 	c #DBA147",
"i 	c #C4832F",
"j 	c #9E5C16",
"k 	c #88570C",
"l 	c #D39C43",
"m 	c #B17C37",
"n 	c #8E622F",
"o 	c #906D3E",
"p 	c #ECBB5E",
"q 	c #F1CF7E",
"r 	c #AB7B38",
"s 	c #CAA769",
"t 	c #E6B458",
"u 	c #EEBD5E",
"v 	c #D5AD61",
"w 	c #B59058",
"x 	c #A68453",
"y 	c #9B7949",
"z 	c #B18D53",
"A 	c #D09D3C",
"B 	c #724108",
"C 	c #8B5E13",
"D 	c #A87937",
"E 	c #E1AF54",
"F 	c #A97A38",
"G 	c #7F5122",
"H 	c #825C30",
"I 	c #917243",
"J 	c #E0AD53",
"K 	c #FBE493",
"L 	c #F6DB8B",
"M 	c #EFC974",
"N 	c #D4AF65",
"O 	c #AA8346",
"P 	c #9B7D4D",
"Q 	c #9B6F35",
"R 	c #E0B66A",
"S 	c #C7A365",
"T 	c #D3B676",
"U 	c #855612",
"V 	c #A57635",
"W 	c #DB9E43",
"X 	c #AB7431",
"Y 	c #895D2B",
"Z 	c #704923",
"` 	c #75522C",
" .	c #E9B95F",
"..	c #CA9E52",
"+.	c #8A6739",
"@.	c #7A5932",
"                  . . . . .     ",
"              . + @ # $ % & * . ",
"              = - ; ; ; ; ; > , ",
"              ' ) ! ~ { ] ^ / ( ",
"              _ : < [ } | 1 2 3 ",
"    . . . . 4 5 6 7 8 9 0 a b , ",
". + @ # $ % & * c d e f g ^ / ( ",
"= - ; ; ; ; ; > , h i j k 1 2 3 ",
"' ) ! ~ { ] ^ / ( l m n o a b , ",
"' p q [ } | 1 2 r , e f s ^ / ( ",
"  t u v w x y z A ( i j B C 2 D ",
". E p q [ } | 1 2 F m G H I b , ",
"J K L M N O 0 P Q R e f S T / ( ",
"' ) ! ~ { ] ^ / ( h i j B U 2 V ",
"' p q [ } | 1 2 V W X Y Z `     ",
"     ...O +.@.                  "};
