/* XPM */
static const char * comments_16x16_xpm[] = {
"16 16 48 1",
" 	c None",
".	c #5887B8",
"+	c #BED1E4",
"@	c #F2F6FA",
"#	c #F1F6FA",
"$	c #F1F5FA",
"%	c #F0F5FA",
"&	c #E9F0F6",
"*	c #ADC4DC",
"=	c #EFF5FA",
"-	c #EEF4FA",
";	c #EDF3FA",
">	c #EBF3F9",
",	c #EBF2F9",
"'	c #E9F1F8",
")	c #E2EAF3",
"!	c #EAF2F9",
"~	c #E8F0F8",
"{	c #E6EFF7",
"]	c #E4EEF7",
"^	c #F2F7FA",
"/	c #ECF3FA",
"(	c #E7F0F8",
"_	c #C0D3E6",
":	c #739BC4",
"<	c #5E8CBB",
"[	c #5F8CBB",
"}	c #ECF1F8",
"|	c #F9FBFD",
"1	c #759CC5",
"2	c #8CACCE",
"3	c #CEDCEA",
"4	c #FAFCFD",
"5	c #5D8BBA",
"6	c #B9CDE2",
"7	c #BACEE2",
"8	c #E2ECF6",
"9	c #E7EFF7",
"0	c #E5ECF4",
"a	c #F8FBFD",
"b	c #EAF1F8",
"c	c #E0E9F2",
"d	c #8EAECF",
"e	c #D1DEEB",
"f	c #E3EBF4",
"g	c #DDE7F1",
"h	c #A3BED8",
"i	c #F1F6F9",
" ........       ",
".+@##$$%&*.     ",
".@=-;>,'=).     ",
".#-!'~{]').     ",
".^/'(_:<[<..... ",
".}|({1+@##$$%&*.",
".23445@=-;>,'=).",
"  .&6.#-!'~{]').",
"  .7..^/'({]890.",
"  .. .}a({]~b|c.",
"  .  .de44afgh..",
"       .i6....  ",
"       .7.      ",
"       ..       ",
"       .        ",
"                "};
