/* XPM */
static const char * config_32x32_xpm[] = {
"32 32 216 2",
"  	c None",
". 	c #B8B8B8",
"+ 	c #A2A1A2",
"@ 	c #9B9B9C",
"# 	c #A6A6A6",
"$ 	c #9E9E9E",
"% 	c #A3A3A3",
"& 	c #A1A0A1",
"* 	c #A7A6A7",
"= 	c #9B9B9B",
"- 	c #D5D5D5",
"; 	c #AFAFAF",
"> 	c #858485",
", 	c #888888",
"' 	c #909090",
") 	c #ECECEC",
"! 	c #C8C7C8",
"~ 	c #B9B9B9",
"{ 	c #E6E6E6",
"] 	c #BEBEBE",
"^ 	c #A7A7A7",
"/ 	c #9D9D9E",
"( 	c #A5A5A5",
"_ 	c #787879",
": 	c #696868",
"< 	c #EFEFEF",
"[ 	c #ADADAD",
"} 	c #848484",
"| 	c #868686",
"1 	c #AFAEAF",
"2 	c #B2B1B2",
"3 	c #8D8D8D",
"4 	c #8E8E8E",
"5 	c #8A8A8A",
"6 	c #BAB9BA",
"7 	c #969696",
"8 	c #A8A8A8",
"9 	c #D9D9DA",
"0 	c #8A898A",
"a 	c #5D5D5D",
"b 	c #515151",
"c 	c #363636",
"d 	c #333232",
"e 	c #7D7D7E",
"f 	c #9D9D9D",
"g 	c #838383",
"h 	c #A9A8A9",
"i 	c #B3B3B3",
"j 	c #E0DFE0",
"k 	c #9F9E9F",
"l 	c #A1A0A2",
"m 	c #AEADAE",
"n 	c #6B6B6B",
"o 	c #29292A",
"p 	c #858586",
"q 	c #7E7E7E",
"r 	c #C5C4C5",
"s 	c #C7C7C8",
"t 	c #A6A5A6",
"u 	c #B9B8B9",
"v 	c #585758",
"w 	c #4C4B4C",
"x 	c #777778",
"y 	c #929292",
"z 	c #545454",
"A 	c #4D4C4D",
"B 	c #BDBDBD",
"C 	c #BABABB",
"D 	c #ACABAC",
"E 	c #878687",
"F 	c #3A393A",
"G 	c #747574",
"H 	c #646464",
"I 	c #9A999A",
"J 	c #3C3C3C",
"K 	c #6C6C6C",
"L 	c #B4B3B3",
"M 	c #9E9D9E",
"N 	c #908F90",
"O 	c #424242",
"P 	c #5F5F5F",
"Q 	c #B0B0B0",
"R 	c #A8A7A8",
"S 	c #ABAAAB",
"T 	c #8B8A8B",
"U 	c #5D5C5D",
"V 	c #BAB9B9",
"W 	c #888889",
"X 	c #555555",
"Y 	c #353535",
"Z 	c #717172",
"` 	c #B2B2B2",
" .	c #A4A3A4",
"..	c #9C9C9C",
"+.	c #AAAAAB",
"@.	c #9E9E9F",
"#.	c #7F7E7F",
"$.	c #949494",
"%.	c #A2A2A2",
"&.	c #8C8C8C",
"*.	c #5B5B5B",
"=.	c #5A5A5A",
"-.	c #787878",
";.	c #999999",
">.	c #D6D5D6",
",.	c #ADACAD",
"'.	c #DBDADA",
").	c #A9A9A9",
"!.	c #383738",
"~.	c #777777",
"{.	c #767676",
"].	c #7B7B7B",
"^.	c #858585",
"/.	c #6E6E6E",
"(.	c #626262",
"_.	c #5E5E5E",
":.	c #585858",
"<.	c #4F4F4F",
"[.	c #89898A",
"}.	c #646465",
"|.	c #EBEBEB",
"1.	c #EBEBEC",
"2.	c #CECECE",
"3.	c #B7B6B7",
"4.	c #B8B7B8",
"5.	c #808080",
"6.	c #3F3E3F",
"7.	c #3D3D3D",
"8.	c #2E2D2E",
"9.	c #505050",
"0.	c #747474",
"a.	c #666666",
"b.	c #4E4E4E",
"c.	c #3F3F3F",
"d.	c #404040",
"e.	c #818181",
"f.	c #A3A2A3",
"g.	c #7F7F80",
"h.	c #E5E5E5",
"i.	c #585859",
"j.	c #3D3C3D",
"k.	c #4B4B4B",
"l.	c #8F8F90",
"m.	c #939393",
"n.	c #212121",
"o.	c #616161",
"p.	c #484848",
"q.	c #333233",
"r.	c #161617",
"s.	c #4D4D4E",
"t.	c #A09FA0",
"u.	c #9F9F9F",
"v.	c #CDCDCE",
"w.	c #B7B7B7",
"x.	c #828282",
"y.	c #8D8C8D",
"z.	c #303030",
"A.	c #7C7C7C",
"B.	c #797979",
"C.	c #3A3A3A",
"D.	c #2D2D2D",
"E.	c #898888",
"F.	c #757576",
"G.	c #DFDFE0",
"H.	c #DBDADB",
"I.	c #444344",
"J.	c #464646",
"K.	c #686868",
"L.	c #979797",
"M.	c #7F7F7F",
"N.	c #D9D9D9",
"O.	c #C4C4C4",
"P.	c #ABABAB",
"Q.	c #323132",
"R.	c #656565",
"S.	c #777677",
"T.	c #333333",
"U.	c #BDBCBD",
"V.	c #737373",
"W.	c #AEACAE",
"X.	c #807F80",
"Y.	c #929293",
"Z.	c #474747",
"`.	c #474647",
" +	c #323232",
".+	c #4C4C4C",
"++	c #AEAEAE",
"@+	c #929192",
"#+	c #B5B5B5",
"$+	c #A8A8A9",
"%+	c #383838",
"&+	c #7C7B7C",
"*+	c #676667",
"=+	c #959595",
"-+	c #7B7B7C",
";+	c #444444",
">+	c #414141",
",+	c #464546",
"'+	c #343334",
")+	c #636363",
"!+	c #706F70",
"~+	c #535353",
"{+	c #3E3E3E",
"]+	c #7A7A7A",
"^+	c #878787",
"/+	c #606060",
"(+	c #313131",
"_+	c #1E1E1E",
":+	c #151515",
"<+	c #262626",
"[+	c #6F6E6F",
"}+	c #3B3B3B",
"|+	c #4A4A4A",
"1+	c #6D6C6D",
"2+	c #8B8B8B",
"3+	c #BBBABB",
"                                                                ",
"                                                                ",
"                                                                ",
"                                                                ",
"                                  .     + @ #                   ",
"                                $ % & * = - ; >                 ",
"                              , ' ) ! ~ - { ] ' ^ / (           ",
"                              _ : < { [ } | 1 2 3 4 5 6         ",
"                              7 8 9 0 a b c d e ; f g ~         ",
"                          8 h i j k l     m n o p q 7           ",
"                          g r < s t         u v w x y           ",
"                          z A B C D           E F G H 3         ",
"                          I J K L M           N O K P P         ",
"                      Q R S T U V W S         E X b Y Z         ",
"              ` %  .  ..+.@.#.$.i @ p %.%.D &.*.=.X -.m         ",
"            ;.;.>.,. .,.'.).!.~.{.].^./.K (._.:.<.$.            ",
"            [.}.|.1.2.. 3.4.5.6.7.8.9.0.a.b.c.d.7.e.            ",
"            f.g.h.; i.j.c k.l.m., b n.o.k.p.q.r.s.t.            ",
"          u.M v.w.x.p  .y.p.z.A.B.5.C.D.K R E.F.=               ",
"        m.6 G.H.$         R I.J.K.M L.].&                       ",
"        _.M.N.O.P.          5.Q.U R.).                          ",
"        S.T.B.U.#           V.J.<.J.:.W.                        ",
"          X.X w.Y.          y.Z.`. +.+++                        ",
"          @+B.#+@+^.      $+H O %+c.&+                          ",
"          *+@+ .=+g.-+, M.P ;+>+A.                              ",
"          %+c.,+'+)+!+_.~+O {+Y ]+                              ",
"            -.^+`.8./+b.(+_+:+<+[+                              ",
"                f ;+}+|+^+g ,+*+                                ",
"                  1+d.2+    3+                                  ",
"                                                                ",
"                                                                ",
"                                                                "};
