/* XPM */
static const char * connect_16x16_xpm[] = {
"16 16 48 1",
" 	c None",
".	c #44AA44",
"+	c #42A842",
"@	c #47AD47",
"#	c #61C761",
"$	c #78DE78",
"%	c #88EE88",
"&	c #3EA43E",
"*	c #4BB14B",
"=	c #72D872",
"-	c #85EB85",
";	c #40A640",
">	c #6ED46E",
",	c #81E781",
"'	c #369C36",
")	c #55BB55",
"!	c #7CE27C",
"~	c #329832",
"{	c #67CD67",
"]	c #75DB75",
"^	c #77DD77",
"/	c #2D932D",
"(	c #52B852",
"_	c #51B751",
":	c #5EC45E",
"<	c #68CE68",
"[	c #6FD56F",
"}	c #288E28",
"|	c #4FB54F",
"1	c #399F39",
"2	c #339933",
"3	c #238923",
"4	c #56BC56",
"5	c #3BA13B",
"6	c #1F851F",
"7	c #3CA23C",
"8	c #48AE48",
"9	c #4AB04A",
"0	c #53B953",
"a	c #4DB34D",
"b	c #177D17",
"c	c #46AC46",
"d	c #54BA54",
"e	c #137913",
"f	c #187E18",
"g	c #309630",
"h	c #45AB45",
"i	c #117711",
"                ",
"     ......     ",
"   +@#$%%$#@+   ",
"  &*=------=*&  ",
"  ;>,,,,,,,,>;  ",
" ')!!!!!!!!!!)' ",
" ~{]^^^^^^^^]{~ ",
" /(@_:<[[<:_@(/ ",
" }|1222222221|} ",
" 34@55555555@43 ",
" 67(8......8(76 ",
"  690|aaaa|096  ",
"  b3c)d00d)c3b  ",
"   efgh))hgfe   ",
"     iiiiii     ",
"                "};
