/* XPM */
static const char *contacts_16x16_xpm[] = {
"16 16 36 1",
" 	c None",
".	c #252525",
"+	c #171717",
"@	c #262626",
"#	c #B6B6B6",
"$	c #353535",
"%	c #151515",
"&	c #2F2F2F",
"*	c #343434",
"=	c #323232",
"-	c #191919",
";	c #161616",
">	c #2D2D2D",
",	c #202020",
"'	c #1C1C1C",
")	c #1B1B1B",
"!	c #B8B8B8",
"~	c #3D3D3D",
"{	c #181818",
"]	c #373737",
"^	c #BBBBBB",
"/	c #BABABA",
"(	c #C0C0C0",
"_	c #282828",
":	c #242424",
"<	c #BFBFBF",
"[	c #C6C6C6",
"}	c #CFCFCF",
"|	c #1A1A1A",
"1	c #CECECE",
"2	c #DADADA",
"3	c #1E1E1E",
"4	c #D9D9D9",
"5	c #D7D7D7",
"6	c #303030",
"7	c #313131",
"                ",
"                ",
"    .+@#        ",
"   $%%+&#  *=#  ",
"   &%-;># ,%;'# ",
"   )%%%-! %%+%! ",
"   ~%{%]^ ;%;%/ ",
"    +%-(  _%%:< ",
"    -%'[   +%[  ",
"   )%-%-}  ||_1 ",
" -;%-%+%%;2 3%+4",
"{%%+;%%-+%%2=-%+",
"%+%{%+%%%{;56%;;",
";%+%+|+%;%-17|%;",
"                ",
"                "};
