/* XPM */
static const char * continue_32x32_xpm[] = {
"32 32 218 2",
"  	c None",
". 	c #3A7304",
"+ 	c #B8D59D",
"@ 	c #C3DCAA",
"# 	c #BDD8A3",
"$ 	c #BFDAA5",
"% 	c #98C36E",
"& 	c #BED9A4",
"* 	c #BEDAA4",
"= 	c #89BC59",
"- 	c #91BF64",
"; 	c #B9D79D",
"> 	c #BEDAA2",
", 	c #87BB56",
"' 	c #88BB58",
") 	c #8BBC5C",
"! 	c #B1D392",
"~ 	c #BDDBA0",
"{ 	c #84BA51",
"] 	c #84B953",
"^ 	c #86BA55",
"/ 	c #86BA56",
"( 	c #A7CC85",
"_ 	c #BCDB9F",
": 	c #82BB4D",
"< 	c #82B84E",
"[ 	c #82B850",
"} 	c #83B851",
"| 	c #9CC674",
"1 	c #A4D376",
"2 	c #A5D578",
"3 	c #A7D679",
"4 	c #A7D67A",
"5 	c #A8D77C",
"6 	c #A9D77D",
"7 	c #ABD880",
"8 	c #B7DC92",
"9 	c #BCDF9B",
"0 	c #BDDE9D",
"a 	c #BDDE9E",
"b 	c #BDDD9E",
"c 	c #BCDC9E",
"d 	c #BADA9B",
"e 	c #81BA4A",
"f 	c #80B84B",
"g 	c #7FB64B",
"h 	c #7FB64C",
"i 	c #80B64D",
"j 	c #90BF64",
"k 	c #AEDB82",
"l 	c #64BC0F",
"m 	c #66BE10",
"n 	c #66BF10",
"o 	c #67C010",
"p 	c #63BA0F",
"q 	c #61B70E",
"r 	c #61B510",
"s 	c #78BE34",
"t 	c #7DBE3D",
"u 	c #7BBC3D",
"v 	c #7AB93E",
"w 	c #79B73E",
"x 	c #77B43E",
"y 	c #77B13E",
"z 	c #76B03E",
"A 	c #76B13F",
"B 	c #AEDC82",
"C 	c #68C111",
"D 	c #69C211",
"E 	c #69C311",
"F 	c #68C211",
"G 	c #62B90E",
"H 	c #60B60E",
"I 	c #60B310",
"J 	c #75BB32",
"K 	c #78BB39",
"L 	c #77B93A",
"M 	c #76B639",
"N 	c #75B339",
"O 	c #73B039",
"P 	c #73AF3A",
"Q 	c #AFDD83",
"R 	c #69C412",
"S 	c #6BC612",
"T 	c #6BC512",
"U 	c #63BB0F",
"V 	c #5FB40D",
"W 	c #60B212",
"X 	c #76BA35",
"Y 	c #75B836",
"Z 	c #73B535",
"` 	c #71B235",
" .	c #70AF35",
"..	c #6FAD34",
"+.	c #70AD35",
"@.	c #B0DE83",
"#.	c #6DC913",
"$.	c #6CC813",
"%.	c #62B80E",
"&.	c #5FB50D",
"*.	c #5DB10C",
"=.	c #67B31F",
"-.	c #72B631",
";.	c #71B331",
">.	c #70B131",
",.	c #6DAE30",
"'.	c #6CAB30",
").	c #6BAB2F",
"!.	c #6AC512",
"~.	c #6ECB14",
"{.	c #6FCD14",
"].	c #65BD10",
"^.	c #63B90F",
"/.	c #60B50D",
"(.	c #5DB20C",
"_.	c #5BAE0B",
":.	c #6CB427",
"<.	c #6EB22C",
"[.	c #6CAF2C",
"}.	c #6BAC2C",
"|.	c #69A92C",
"1.	c #68A92B",
"2.	c #B0DF83",
"3.	c #6DCA13",
"4.	c #70CD14",
"5.	c #71D015",
"6.	c #65BE10",
"7.	c #5EB20C",
"8.	c #5DAD12",
"9.	c #6BB128",
"0.	c #69AE27",
"a.	c #68AA28",
"b.	c #65A727",
"c.	c #66A728",
"d.	c #64A726",
"e.	c #64A625",
"f.	c #58AA0A",
"g.	c #61AC1A",
"h.	c #66AC24",
"i.	c #64A923",
"j.	c #62A522",
"k.	c #62A523",
"l.	c #61A521",
"m.	c #60A420",
"n.	c #6DC813",
"o.	c #57A60A",
"p.	c #61AA1D",
"q.	c #61A71E",
"r.	c #5EA31D",
"s.	c #5DA31C",
"t.	c #5DA21B",
"u.	c #5AAD0B",
"v.	c #58A90A",
"w.	c #55A509",
"x.	c #59A510",
"y.	c #5DA519",
"z.	c #5BA118",
"A.	c #5BA119",
"B.	c #5AA117",
"C.	c #5CB00C",
"D.	c #5AAC0B",
"E.	c #57A90A",
"F.	c #52A108",
"G.	c #58A113",
"H.	c #589F14",
"I.	c #579F13",
"J.	c #58A015",
"K.	c #5EB20D",
"L.	c #5CAF0C",
"M.	c #59AB0B",
"N.	c #57A80A",
"O.	c #54A408",
"P.	c #52A007",
"Q.	c #519D08",
"R.	c #549D0F",
"S.	c #5AA018",
"T.	c #65BC0F",
"U.	c #67BF10",
"V.	c #5BAD0B",
"W.	c #56A609",
"X.	c #54A308",
"Y.	c #519F07",
"Z.	c #4F9B06",
"`.	c #509B09",
" +	c #519B0A",
".+	c #ADD982",
"++	c #64BB0F",
"@+	c #59AC0B",
"#+	c #53A108",
"$+	c #509E07",
"%+	c #4E9A06",
"&+	c #ABD781",
"*+	c #ACD881",
"=+	c #ACD981",
"-+	c #ACD982",
";+	c #AAD681",
">+	c #A9D580",
",+	c #A8D380",
"'+	c #A8D27F",
")+	c #A7D17F",
"!+	c #4F9C06",
"~+	c #6DAB31",
"{+	c #A7D07F",
"]+	c #519E07",
"^+	c #4E9B06",
"/+	c #79B242",
"(+	c #A6CF7F",
"_+	c #509B08",
":+	c #A5CD7E",
"<+	c #549D0E",
"[+	c #8FBF61",
"}+	c #A4CC7E",
"|+	c #96C36C",
"1+	c #A3CB7E",
"2+	c #9AC571",
"3+	c #A3CA7E",
"4+	c #9AC472",
"5+	c #97C16E",
"                                                                ",
"                            . .                                 ",
"                            . + .                               ",
"                            . @ # .                             ",
"                            . $ % & .                           ",
"                            . * = - ; .                         ",
"                            . > , ' ) ! .                       ",
"                            . ~ { ] ^ / ( .                     ",
"  . . . . . . . . . . . . . . _ : < [ } } | .                   ",
"  . 1 2 3 4 5 6 7 8 9 0 a b c d e f g h i i j .                 ",
"  . k l m n o n m l p q r s t u v w x y z A A A .               ",
"  . B n C D E F C n l G H I J K L M N O P P P P P .             ",
"  . Q C R S S T R C m U q V W X Y Z `  ...+.+.+.+....           ",
"  . @.E S #.#.$.S E o l %.&.*.=.-.;.>.,.'.'.'.'.'.'.)..         ",
"  . @.!.$.~.{.~.$.!.C ].^./.(._.:.<.[.}.|.|.|.|.|.|.1.1..       ",
"  . 2.S 3.4.5.4.#.T F 6.p H 7._.8.9.0.a.b.b.c.b.b.b.b.d.e..     ",
"  . 2.S 3.4.5.4.#.S F 6.p H 7._.f.g.h.i.j.k.k.k.k.j.j.l.l.m..   ",
"  . @.!.n.~.{.~.$.!.C ].^./.(._.f.o.p.q.r.r.r.r.r.r.r.s.t..     ",
"  . @.E S #.#.n.S E o l %./.*.u.v.w.x.y.z.A.A.A.z.z.z.B..       ",
"  . Q C R S S S R C m U q V C.D.E.w.F.G.H.H.H.H.H.I.J..         ",
"  . B n C E E D C n l G H K.L.M.N.O.P.Q.R.R.R.R.R.S..           ",
"  . k T.m U.o n m l p q V *.V.f.W.X.Y.Z.`. + + +t..             ",
"  . .+p ++l ].l ++^.q &.7.L.@+N.w.#+$+%+%+%+%+k..               ",
"  . &+*+*+=+-+=+*+*+&+;+>+,+'+)+X.P.!+%+%+%+~+.                 ",
"  . . . . . . . . . . . . . . {+#+]+^+%+%+/+.                   ",
"                            . (+P.!+%+_+] .                     ",
"                            . :+$+%+<+[+.                       ",
"                            . }+Z.B.|+.                         ",
"                            . 1+j.2+.                           ",
"                            . 3+4+.                             ",
"                            . 5+.                               ",
"                            . .                                 "};
