/* XPM */
static const char * currency_16x16_xpm[] = {
"16 16 52 1",
" 	c None",
".	c #CDF8A3",
"+	c #D0F0B0",
"@	c #D3F2B5",
"#	c #CDFF9B",
"$	c #C5FF8C",
"%	c #C6FB90",
"&	c #A5DD6E",
"*	c #D6EBC1",
"=	c #CCFE99",
"-	c #9CD762",
";	c #8BC84D",
">	c #7CB644",
",	c #A3DF68",
"'	c #A7DE71",
")	c #CCF1A7",
"!	c #C1F78B",
"~	c #ADD684",
"{	c #A4D673",
"]	c #B3D395",
"^	c #BFE698",
"/	c #C2F98B",
"(	c #B0E57A",
"_	c #BFDE9F",
":	c #C8DCB3",
"<	c #ABE86F",
"[	c #BBF77F",
"}	c #B5F574",
"|	c #C2F391",
"1	c #AACE86",
"2	c #8FCC51",
"3	c #9FDF5F",
"4	c #B4EE7A",
"5	c #C0F48B",
"6	c #C8ECA3",
"7	c #ADDE7B",
"8	c #76B438",
"9	c #80BE41",
"0	c #A2DB69",
"a	c #BBDA9C",
"b	c #C1EC95",
"c	c #91CD54",
"d	c #97C866",
"e	c #B1EA77",
"f	c #B7E887",
"g	c #7ABB3A",
"h	c #7BAE48",
"i	c #7EBF3D",
"j	c #81BB47",
"k	c #6AA72D",
"l	c #6DA832",
"m	c #618C36",
"                ",
"       .+       ",
"     @#$%&%     ",
"    *=-;>,'%    ",
"    )!~{] &&    ",
"    ^/ (_       ",
"    :<[}|       ",
"     123456     ",
"       7890a    ",
"       bb cd    ",
"    &e fb gh    ",
"    giggggjg    ",
"     kggglm     ",
"       mm       ",
"                ",
"                "};
