/* XPM */
static const char * currency_2_16x16_xpm[] = {
"16 16 18 1",
" 	c None",
".	c #FED0A9",
"+	c #FFB056",
"@	c #F8AE77",
"#	c #F98402",
"$	c #EF8F21",
"%	c #F7973A",
"&	c #F7BB8E",
"*	c #EF7D03",
"=	c #EEA769",
"-	c #F7C9B2",
";	c #DB7700",
">	c #EB9351",
",	c #F6A061",
"'	c #BC6400",
")	c #F0B9A4",
"!	c #EBC5B3",
"~	c #E68050",
"       .+       ",
"       @#       ",
"     @$%$$%&    ",
"    $**$=$#*-   ",
"   -;*>  &*;,   ",
"   &;;;         ",
"    ;;;;>&      ",
"     ;';;';=    ",
"      &>';''>   ",
"         ='';   ",
"   =''&   '''   ",
"   )'''!!~''>   ",
"    >'''''';    ",
"      >''>      ",
"       @#       ",
"       .+       "};
