/* XPM */
static const char * client_16x16_xpm[] = {
"16 16 39 1",
" 	c None",
".	c #92816C",
"+	c #86735C",
"@	c #947347",
"#	c #957041",
"$	c #916630",
"%	c #5C4831",
"&	c #87745E",
"*	c #9A7B54",
"=	c #CFB590",
"-	c #E3C497",
";	c #C2955A",
">	c #93642B",
",	c #5B4932",
"'	c #8D7E6D",
")	c #BA9D75",
"!	c #F9E0BA",
"~	c #F7DAAB",
"{	c #F1C383",
"]	c #BB7A34",
"^	c #5A4934",
"/	c #9F978C",
"(	c #D8B889",
"_	c #F2CA8E",
":	c #F0BF7B",
"<	c #E7A356",
"[	c #D97E2A",
"}	c #4E4E4E",
"|	c #A3A3A3",
"1	c #E7A556",
"2	c #E29543",
"3	c #DD7F2C",
"4	c #96673D",
"5	c #A6774D",
"6	c #74A1CF",
"7	c #EDB56C",
"8	c #FBEACF",
"9	c #34548E",
"0	c #5F8DBD",
"                ",
"      .+.       ",
"     +@#$%      ",
"    &*=-;>,     ",
"    ')!~{]^     ",
"    /(_:<[}     ",
"     |1234      ",
"      555       ",
"    6678:99     ",
"   6009:9009    ",
"  60000900009   ",
"  60000000009   ",
"  99999999999   ",
"                ",
"                ",
"                "};
