/* XPM */
static const char * client_32x32_xpm[] = {
"32 32 348 2",
"  	c None",
". 	c #A17733",
"+ 	c #AD7E3A",
"@ 	c #AA7D38",
"# 	c #9B712F",
"$ 	c #B4843C",
"% 	c #B68234",
"& 	c #B68131",
"* 	c #B27D2E",
"= 	c #AB782B",
"- 	c #A67730",
"; 	c #B3843C",
"> 	c #B98435",
", 	c #C48E3E",
"' 	c #C89241",
") 	c #C28C3C",
"! 	c #B68132",
"~ 	c #A77425",
"{ 	c #A1732C",
"] 	c #9F7330",
"^ 	c #B48135",
"/ 	c #C38D3D",
"( 	c #D39C4B",
"_ 	c #DAA251",
": 	c #CF9948",
"< 	c #BF8A3A",
"[ 	c #AE7A2A",
"} 	c #9F6E22",
"| 	c #986C28",
"1 	c #AC7E39",
"2 	c #B48031",
"3 	c #C6903F",
"4 	c #D7A04F",
"5 	c #E3AB59",
"6 	c #C18C3B",
"7 	c #AF7B2C",
"8 	c #9E6B1D",
"9 	c #B67B1E",
"0 	c #C18019",
"a 	c #E4AE5A",
"b 	c #E7B25F",
"c 	c #E3AB53",
"d 	c #A97C37",
"e 	c #B07C2E",
"f 	c #CC9645",
"g 	c #D19B4A",
"h 	c #CA9343",
"i 	c #BC8636",
"j 	c #AB7728",
"k 	c #B37516",
"l 	c #CA8A26",
"m 	c #E6B363",
"n 	c #E8B362",
"o 	c #E7B05C",
"p 	c #E6AE57",
"q 	c #E5AB50",
"r 	c #E5AA4F",
"s 	c #E3A94D",
"t 	c #976B27",
"u 	c #A9772B",
"v 	c #B37E2F",
"w 	c #BD8737",
"x 	c #BB8536",
"y 	c #B07C2C",
"z 	c #A9721D",
"A 	c #C38119",
"B 	c #E7B463",
"C 	c #E7B260",
"D 	c #E9B76A",
"E 	c #EABB73",
"F 	c #EABA71",
"G 	c #E8B463",
"H 	c #E5AB4F",
"I 	c #E3A440",
"J 	c #E4A94B",
"K 	c #A47630",
"L 	c #A67224",
"M 	c #AC7728",
"N 	c #AE792A",
"O 	c #AA7627",
"P 	c #A26F20",
"Q 	c #B57714",
"R 	c #DA9E40",
"S 	c #E7B15E",
"T 	c #E9B669",
"U 	c #ECC180",
"V 	c #EFC88F",
"W 	c #EEC68A",
"X 	c #EBBD76",
"Y 	c #E3A544",
"Z 	c #E2A23B",
"` 	c #D99A37",
" .	c #895F1D",
"..	c #A1742E",
"+.	c #9E6D22",
"@.	c #9D691C",
"#.	c #9A671A",
"$.	c #9A691E",
"%.	c #C17E14",
"&.	c #E4AD58",
"*.	c #E7AF58",
"=.	c #EABA70",
"-.	c #EEC78C",
";.	c #F2D3A7",
">.	c #F0CE9B",
",.	c #E8B464",
"'.	c #E4A748",
").	c #E19C31",
"!.	c #E2A74A",
"~.	c #6F4D0E",
"{.	c #7D5616",
"].	c #966C27",
"^.	c #A17430",
"/.	c #C07D12",
"(.	c #E6B15D",
"_.	c #E5AB52",
":.	c #E9B86C",
"<.	c #EDC384",
"[.	c #F0CC96",
"}.	c #EFC990",
"|.	c #EBBE7A",
"1.	c #E8B260",
"2.	c #E3A645",
"3.	c #DF992B",
"4.	c #767E32",
"5.	c #757E25",
"6.	c #565E08",
"7.	c #64580E",
"8.	c #6D4E0C",
"9.	c #6E480A",
"0.	c #6E470A",
"a.	c #6B4C0C",
"b.	c #BB7B12",
"c.	c #E3AA50",
"d.	c #E5A84B",
"e.	c #E7B15D",
"f.	c #ECBF7B",
"g.	c #EBBD78",
"h.	c #E6AD54",
"i.	c #E2A13C",
"j.	c #E0992A",
"k.	c #E2A749",
"l.	c #737C1F",
"m.	c #677108",
"n.	c #626D07",
"o.	c #5D680B",
"p.	c #6C791B",
"q.	c #4A5206",
"r.	c #474E05",
"s.	c #545E0D",
"t.	c #A57B14",
"u.	c #D89937",
"v.	c #E4A747",
"w.	c #E4A849",
"x.	c #E6AF58",
"y.	c #E5AC52",
"z.	c #E3A442",
"A.	c #E09A2D",
"B.	c #E2A038",
"C.	c #788029",
"D.	c #646E07",
"E.	c #697408",
"F.	c #687408",
"G.	c #69740C",
"H.	c #5B6507",
"I.	c #5A6306",
"J.	c #606C09",
"K.	c #79770B",
"L.	c #BE8018",
"M.	c #E4A84B",
"N.	c #E2A13A",
"O.	c #E2A23E",
"P.	c #E3A543",
"Q.	c #E2A039",
"R.	c #E09A2C",
"S.	c #E09B2E",
"T.	c #767C35",
"U.	c #656F0E",
"V.	c #626C07",
"W.	c #657007",
"X.	c #677208",
"Y.	c #6B7608",
"Z.	c #6C7708",
"`.	c #6B7609",
" +	c #435E4B",
".+	c #7B6845",
"++	c #C58726",
"@+	c #E3A84B",
"#+	c #DF9727",
"$+	c #E3A94B",
"%+	c #C48625",
"&+	c #7A8035",
"*+	c #5E6807",
"=+	c #5B6407",
"-+	c #636D07",
";+	c #656F07",
">+	c #687208",
",+	c #687308",
"'+	c #687309",
")+	c #3B595A",
"!+	c #345C8F",
"~+	c #5C82B5",
"{+	c #8E7951",
"]+	c #C1811C",
"^+	c #D69837",
"/+	c #E0A648",
"(+	c #E4A94E",
"_+	c #D69936",
":+	c #BF801B",
"<+	c #907646",
"[+	c #476894",
"}+	c #798034",
"|+	c #545C06",
"1+	c #5C6507",
"2+	c #616A07",
"3+	c #646F07",
"4+	c #455F42",
"5+	c #345B8F",
"6+	c #5B84B8",
"7+	c #3F70B1",
"8+	c #3869A7",
"9+	c #6E7F8A",
"0+	c #997942",
"a+	c #BE8120",
"b+	c #BF7E17",
"c+	c #BD801F",
"d+	c #9C783A",
"e+	c #636F75",
"f+	c #4B719D",
"g+	c #4974AB",
"h+	c #557AAD",
"i+	c #787F3A",
"j+	c #50580B",
"k+	c #5E6707",
"l+	c #5F6807",
"m+	c #606907",
"n+	c #606A07",
"o+	c #5A6814",
"p+	c #285083",
"q+	c #5981B6",
"r+	c #3E6FAF",
"s+	c #366BAE",
"t+	c #386DB2",
"u+	c #5684BB",
"v+	c #39679E",
"w+	c #B4B8BE",
"x+	c #B9B9B9",
"y+	c #3F618E",
"z+	c #4C75A6",
"A+	c #3F70AD",
"B+	c #3364A3",
"C+	c #4A74AB",
"D+	c #4A72A5",
"E+	c #6A712A",
"F+	c #5D660A",
"G+	c #5D6607",
"H+	c #395653",
"I+	c #416B9E",
"J+	c #4A77B0",
"K+	c #3568AA",
"L+	c #366AAE",
"M+	c #376CB1",
"N+	c #3A70B4",
"O+	c #3A6FB7",
"P+	c #A0B6D4",
"Q+	c #EAEAEA",
"R+	c #D0D7E2",
"S+	c #3568AB",
"T+	c #376AAB",
"U+	c #3466A7",
"V+	c #33639F",
"W+	c #547AAD",
"X+	c #7B8237",
"Y+	c #707827",
"Z+	c #6D7522",
"`+	c #6C7420",
" @	c #284F7E",
".@	c #557CAF",
"+@	c #3A6AA8",
"@@	c #3467A8",
"#@	c #366AAD",
"$@	c #376BB0",
"%@	c #5E88BE",
"&@	c #EBEBEB",
"*@	c #9BB2D0",
"=@	c #3569AB",
"-@	c #3365A5",
";@	c #3263A1",
">@	c #31619E",
",@	c #406CA2",
"'@	c #486EA2",
")@	c #626820",
"!@	c #656B22",
"~@	c #214B85",
"{@	c #5C81B2",
"]@	c #3464A2",
"^@	c #31629F",
"/@	c #3262A0",
"(@	c #3567A9",
"_@	c #366AAB",
":@	c #D1D4D9",
"<@	c #6A8CB9",
"[@	c #3365A4",
"}@	c #2D5991",
"|@	c #36629B",
"1@	c #5478A8",
"2@	c #567CAD",
"3@	c #3766A1",
"4@	c #2B558A",
"5@	c #3362A1",
"6@	c #3364A4",
"7@	c #3465A6",
"8@	c #A0AFC3",
"9@	c #4771A9",
"0@	c #3363A2",
"a@	c #305F9B",
"b@	c #2C5890",
"c@	c #325A8E",
"d@	c #5478A5",
"e@	c #476EA0",
"f@	c #2A5388",
"g@	c #31609D",
"h@	c #32629F",
"i@	c #708CB0",
"j@	c #305E99",
"k@	c #2F5D97",
"l@	c #2E5B93",
"m@	c #38557D",
"n@	c #436899",
"o@	c #4B6B95",
"p@	c #43699A",
"q@	c #325F9A",
"r@	c #305E9A",
"s@	c #39649D",
"t@	c #2F5D98",
"u@	c #2F5C96",
"v@	c #305D95",
"w@	c #376197",
"x@	c #486E9E",
"y@	c #436085",
"z@	c #5376A4",
"A@	c #597BA9",
"B@	c #5A7EAA",
"C@	c #5A7DAA",
"D@	c #5A7DA9",
"E@	c #5A7CA8",
"F@	c #5A7BA6",
"G@	c #5074A1",
"                                                                ",
"                                                                ",
"                                                                ",
"                    . + @ #                                     ",
"                  $ % & * = -                                   ",
"                ; > , ' ) ! ~ {                                 ",
"              ] ^ / ( _ : < [ } |                               ",
"              1 2 3 4 5 ( 6 7 8 9 0   a b c                     ",
"              d e < f g h i j k l m n o p q r s                 ",
"              t u v w < x y z A B C D E F G H I J               ",
"                K L M N O P Q R S T U V W X S Y Z `             ",
"                 ...+.@.#.$.%.&.*.=.-.;.>.U ,.'.).!.            ",
"                ~.{.].^.^.]./.(._.:.<.[.}.|.1.2.3.q             ",
"            4.5.6.7.8.9.0.a.b.c.d.e.=.f.g.T h.i.j.k.            ",
"            l.m.n.o.p.q.r.s.t.u.v.w.x.b e.y.z.A.B.              ",
"          C.D.m.E.F.G.H.I.J.K.L.M.N.O.P.z.Q.R.S.J               ",
"        T.U.V.W.X.E.Y.Z.Z.`. +.+++@+N.R.#+j.N.$+%+              ",
"        &+*+=+-+;+m.>+,+'+)+!+~+{+]+^+/+(+/+_+:+<+[+            ",
"        }+|+1+2+V.-+D.3+4+5+6+7+8+9+0+a+b+c+d+e+f+g+h+          ",
"        i+j+1+k+l+m+n+o+p+q+r+s+t+u+v+w+x+x+y+z+A+B+C+D+        ",
"          E+F+=+H.1+G+H+I+J+K+L+M+N+O+P+Q+R+S+T+U+B+V+W+        ",
"            X+Y+Z+`+`+ @.@+@@@U+#@$@M+%@&@*@=@@@-@;@>@,@'@      ",
"                )@!@!@~@{@]@^@/@(@K+=@_@:@<@U+[@;@>@}@|@1@      ",
"                        2@3@4@5@6@-@7@7@8@9@0@/@>@a@b@c@d@      ",
"                          e@f@g@>@h@/@/@i@>@g@a@j@k@l@m@n@      ",
"                          o@p@|@q@r@r@r@s@j@t@u@v@w@x@y@        ",
"                              z@A@B@B@B@B@C@D@E@F@G@            ",
"                                                                ",
"                                                                ",
"                                                                ",
"                                                                ",
"                                                                "};
