/* XPM */
static const char * database_16x16_xpm[] = {
"16 16 241 2",
"  	c None",
". 	c #326598",
"+ 	c #4E7CAB",
"@ 	c #6B92BE",
"# 	c #80A3CC",
"$ 	c #8AAED5",
"% 	c #8EB5D9",
"& 	c #8CB7DA",
"* 	c #84B3D5",
"= 	c #74A9CC",
"- 	c #6296BE",
"; 	c #4A7EAB",
"> 	c #326498",
", 	c #386A9C",
"' 	c #5E88B5",
") 	c #AFC9EC",
"! 	c #CCDEFE",
"~ 	c #D4E4FF",
"{ 	c #D6E6FF",
"] 	c #D1E8FF",
"^ 	c #CBEAFF",
"/ 	c #C7EDFF",
"( 	c #C4EFFF",
"_ 	c #C0F4FF",
": 	c #BCF5FF",
"< 	c #B0F0FE",
"[ 	c #96D9EC",
"} 	c #538EB6",
"| 	c #396D9E",
"1 	c #4474A4",
"2 	c #8CABD4",
"3 	c #D6E5FF",
"4 	c #D3E4FF",
"5 	c #D1E2FF",
"6 	c #D0E2FF",
"7 	c #C9E4FF",
"8 	c #C5E5FF",
"9 	c #C1E8FF",
"0 	c #BEEAFF",
"a 	c #BCEFFF",
"b 	c #BAF3FF",
"c 	c #B9F7FF",
"d 	c #B8FDFF",
"e 	c #75B6D3",
"f 	c #437AA8",
"g 	c #3A69A1",
"h 	c #577EB7",
"i 	c #85A4CF",
"j 	c #9AB7DF",
"k 	c #A7C0E8",
"l 	c #AEC9ED",
"m 	c #B2D2F4",
"n 	c #B4D7F6",
"o 	c #B1DAF6",
"p 	c #AEDCF4",
"q 	c #A3D7F0",
"r 	c #97D1E9",
"s 	c #82BEDC",
"t 	c #649DC4",
"u 	c #4A76B3",
"v 	c #3A6CA2",
"w 	c #3969A2",
"x 	c #5E80BE",
"y 	c #9AB0DC",
"z 	c #BBCCE9",
"A 	c #C6D6EC",
"B 	c #B2C9E3",
"C 	c #A8C3D9",
"D 	c #9DBBDC",
"E 	c #93B3D7",
"F 	c #86ACCD",
"G 	c #81A8D0",
"H 	c #7CA0CD",
"I 	c #7597CD",
"J 	c #7594CE",
"K 	c #5983BC",
"L 	c #3F70A6",
"M 	c #5A7FBE",
"N 	c #97ACDE",
"O 	c #C7D6F2",
"P 	c #F2F8FF",
"Q 	c #F5F8FF",
"R 	c #F2FBFF",
"S 	c #E2F1FE",
"T 	c #C9E3F6",
"U 	c #B6D3F4",
"V 	c #A3C5E7",
"W 	c #95B5DE",
"X 	c #7FA5D7",
"Y 	c #6D9CCE",
"Z 	c #5384BC",
"` 	c #3D70A4",
" .	c #31619D",
"..	c #416CB1",
"+.	c #82A0D7",
"@.	c #C0D4F8",
"#.	c #EAF1FF",
"$.	c #E2EEFF",
"%.	c #E1F2FF",
"&.	c #C6E4FD",
"*.	c #B6DBF6",
"=.	c #A7D0EE",
"-.	c #96C1E9",
";.	c #83B8E0",
">.	c #71A8D9",
",.	c #5990CD",
"'.	c #386DAF",
").	c #32669F",
"!.	c #547AB7",
"~.	c #6C8EC6",
"{.	c #81A4D2",
"].	c #95B4D9",
"^.	c #91B6E3",
"/.	c #9AC1E7",
"(.	c #94BCE7",
"_.	c #82B5E3",
":.	c #77ABD9",
"<.	c #639BCD",
"[.	c #5687C6",
"}.	c #447EBB",
"|.	c #4D7BBC",
"1.	c #4F7BB5",
"2.	c #3F6FA3",
"3.	c #3A69A2",
"4.	c #6083BF",
"5.	c #A3B5E0",
"6.	c #CAD8F0",
"7.	c #DFE4F9",
"8.	c #C3D5E6",
"9.	c #B9CFE4",
"0.	c #9FB9D8",
"a.	c #93B3D0",
"b.	c #8DADCF",
"c.	c #87AAD4",
"d.	c #87A7D5",
"e.	c #85A4D4",
"f.	c #7FA2D5",
"g.	c #5985BD",
"h.	c #3F70A5",
"i.	c #3868A2",
"j.	c #96AEE0",
"k.	c #C7D4F4",
"l.	c #EBF4FF",
"m.	c #F6F8FF",
"n.	c #E5F2FE",
"o.	c #CDEDFC",
"p.	c #BAD8F0",
"q.	c #A5C2E5",
"r.	c #8CB5DE",
"s.	c #7BA4D4",
"t.	c #6F9AD2",
"u.	c #5184BE",
"v.	c #3C6FA5",
"w.	c #31639D",
"x.	c #406CB0",
"y.	c #7B9BD5",
"z.	c #B6CCF5",
"A.	c #E2EBFF",
"B.	c #DFF5FF",
"C.	c #E3F6FF",
"D.	c #D0E8FF",
"E.	c #BADCFC",
"F.	c #AED2F7",
"G.	c #96CBF2",
"H.	c #81B5E3",
"I.	c #6BA1D8",
"J.	c #528AC6",
"K.	c #386CAE",
"L.	c #33659F",
"M.	c #3B6AA2",
"N.	c #5B7FBB",
"O.	c #7797CC",
"P.	c #84A6CF",
"Q.	c #91B0D7",
"R.	c #88A5DB",
"S.	c #7BADDF",
"T.	c #70A7DB",
"U.	c #5B96D4",
"V.	c #5296C5",
"W.	c #4B87C1",
"X.	c #4A85BB",
"Y.	c #4D7EBC",
"Z.	c #5381C0",
"`.	c #567FB9",
" +	c #4070A5",
".+	c #A4B7E3",
"++	c #D4DEF4",
"@+	c #EEEFFA",
"#+	c #DEEDF6",
"$+	c #CFE0E9",
"%+	c #BDCAD5",
"&+	c #B3BDDA",
"*+	c #A5B9D3",
"=+	c #9DBADE",
"-+	c #97B1D8",
";+	c #8DABD5",
">+	c #7B9DD2",
",+	c #5784BC",
"'+	c #3D70A5",
")+	c #5B80BF",
"!+	c #9AB0E2",
"~+	c #C4D6F4",
"{+	c #E6F0FF",
"]+	c #E2F1FF",
"^+	c #F2F9FF",
"/+	c #DEF3FF",
"(+	c #C9E9F6",
"_+	c #B1D6F0",
":+	c #9FC2E7",
"<+	c #88B1DC",
"[+	c #78A4D5",
"}+	c #6A99D1",
"|+	c #5084BC",
"1+	c #2F6299",
"2+	c #3968A6",
"3+	c #7898D0",
"4+	c #BECFF5",
"5+	c #E1EFFF",
"6+	c #E7EFFF",
"7+	c #E9F6FF",
"8+	c #D1E9FF",
"9+	c #BEE1FE",
"0+	c #AADEF6",
"a+	c #94C2ED",
"b+	c #7EB5E1",
"c+	c #6CA2D5",
"d+	c #538AC3",
"e+	c #3A6EA5",
"f+	c #34679A",
"g+	c #306398",
"h+	c #4877A8",
"i+	c #6690BE",
"j+	c #7AA0CA",
"k+	c #85AAD2",
"l+	c #7DA8D5",
"m+	c #76A3CD",
"n+	c #6693C8",
"o+	c #578BBB",
"p+	c #467CAE",
"q+	c #396EA4",
"r+	c #316598",
"    . + @ # $ % & * = - ; >     ",
", ' ) ! ~ { ] ^ / ( _ : < [ } | ",
"1 2 3 4 5 6 7 8 9 0 a b c d e f ",
"g h i j k l m n o p q r s t u v ",
"w x y z A B C D E F G H I J K L ",
"w M N O P Q R S T U V W X Y Z ` ",
" ...+.@.#.$.%.&.*.=.-.;.>.,.'.).",
"g !.~.{.].^./.(._.:.<.[.}.|.1.2.",
"3.4.5.6.7.8.9.0.a.b.c.d.e.f.g.h.",
"i.M j.k.l.l.m.n.o.p.q.r.s.t.u.v.",
"w.x.y.z.A.B.C.D.E.F.G.H.I.J.K.L.",
"M.N.O.P.Q.R.S.T.U.V.W.X.Y.Z.`. +",
"3.4..+++@+#+$+%+&+*+=+-+;+>+,+'+",
"i.)+!+~+{+]+^+/+(+_+:+<+[+}+|+v.",
"1+2+3+4+5+6+7+8+9+0+a+b+c+d+e+f+",
"    g+h+i+j+k+l+m+n+o+p+q+r+    "};
