/* XPM */
static const char * document_16x16_xpm[] = {
"16 16 103 2",
"  	c None",
". 	c #84ABD1",
"+ 	c #6F9FD0",
"@ 	c #7CA9D6",
"# 	c #8BB4DC",
"$ 	c #98BDE2",
"% 	c #A2C4E6",
"& 	c #689BCE",
"* 	c #DDEEFF",
"= 	c #6B9ED1",
"- 	c #DFEFFF",
"; 	c #DEAE56",
"> 	c #E5CDA1",
", 	c #FFFEE7",
"' 	c #F9FEF7",
") 	c #FFFDFE",
"! 	c #FFFEF9",
"~ 	c #FDFEF8",
"{ 	c #FBE79E",
"] 	c #E4BC43",
"^ 	c #F2ED9C",
"/ 	c #FEFCAF",
"( 	c #DDAC56",
"_ 	c #F8FCA5",
": 	c #FFFEA2",
"< 	c #ECD083",
"[ 	c #F6E29A",
"} 	c #DDAD56",
"| 	c #DAAB55",
"1 	c #F8F8A0",
"2 	c #F9F8A0",
"3 	c #F8F9A0",
"4 	c #FEFE9C",
"5 	c #E5B644",
"6 	c #E3C184",
"7 	c #D7A854",
"8 	c #F9F399",
"9 	c #FAF399",
"0 	c #FAF398",
"a 	c #FAF499",
"b 	c #F9F398",
"c 	c #FCFFA8",
"d 	c #FFFDF4",
"e 	c #FEFFF7",
"f 	c #F8FEF0",
"g 	c #FBFEF3",
"h 	c #F5FEF9",
"i 	c #FFFEF5",
"j 	c #D4A752",
"k 	c #FEFFD5",
"l 	c #FAEE90",
"m 	c #FAED90",
"n 	c #FBED90",
"o 	c #FBEE90",
"p 	c #D2A653",
"q 	c #D1A452",
"r 	c #FEFB9A",
"s 	c #FBE787",
"t 	c #FBE786",
"u 	c #FBE686",
"v 	c #CFA452",
"w 	c #CCA150",
"x 	c #FEF895",
"y 	c #FCE07C",
"z 	c #FCE17C",
"A 	c #FCE07D",
"B 	c #FEF795",
"C 	c #CBA150",
"D 	c #C99E4F",
"E 	c #FFF28E",
"F 	c #FDDA73",
"G 	c #FDD973",
"H 	c #FCDA73",
"I 	c #FEF28E",
"J 	c #C89E4F",
"K 	c #C59D4F",
"L 	c #FFEC86",
"M 	c #FDD46B",
"N 	c #FED36B",
"O 	c #FED46A",
"P 	c #FED46B",
"Q 	c #FDD36A",
"R 	c #FFEC87",
"S 	c #C29A4D",
"T 	c #FFE67F",
"U 	c #FFCF63",
"V 	c #FFCE63",
"W 	c #FECE63",
"X 	c #FECF64",
"Y 	c #FFE67E",
"Z 	c #C0984D",
"` 	c #FFE078",
" .	c #FFE178",
"..	c #FFE077",
"+.	c #FFE177",
"@.	c #FEE077",
"#.	c #A68240",
"$.	c #AD813F",
"%.	c #AB803B",
"&.	c #AE803F",
"*.	c #A8803B",
"=.	c #AF813E",
"-.	c #A88140",
"    . + @ # $ % % $ # @ + .     ",
"    & * * * * * * * * * * &     ",
"    = - - - - - - - - - - =     ",
"  ; ; ; ; ; ; > - - - - - = ;   ",
"; , ' ) ! ~ { ] ^ - - - - = / ; ",
"( , _ _ _ _ : < [ - - - - = / } ",
"| , 1 2 3 2 : 4 < 5 5 5 5 5 5 6 ",
"7 , 8 9 0 a b 9 c d e f g h i 7 ",
"j k l m l n l m m m n m m o , p ",
"q r s t u s s u s s t t t s , v ",
"w x y z y y z y y A A y A y B C ",
"D E F F F F G G F G G H F F I J ",
"K L M N O P P O P N Q O P N R K ",
"S T U V W X W W U V U V V W Y S ",
"Z ` ` ` `  ... .`  .+.`  .@...Z ",
"  #.$.%.&.&.&.&.&.&.&.&.*.=.-.  "};
