/* XPM */
static const char * empresa_32x32_xpm[] = {
"32 32 486 2",
"  	c None",
". 	c #8D8D8D",
"+ 	c #898989",
"@ 	c #8B8B8B",
"# 	c #888888",
"$ 	c #818181",
"% 	c #808080",
"& 	c #828282",
"* 	c #A7A7A7",
"= 	c #9A9A9A",
"- 	c #909090",
"; 	c #8E8E8E",
"> 	c #8C8C8C",
", 	c #D6D6D6",
"' 	c #DADADA",
") 	c #DDDDDD",
"! 	c #DFDFDF",
"~ 	c #E1E1E1",
"{ 	c #A4A4A4",
"] 	c #AFAFAF",
"^ 	c #7C7C7C",
"/ 	c #A0A0A0",
"( 	c #9C9C9C",
"_ 	c #949494",
": 	c #B7B7B7",
"< 	c #DEDEDE",
"[ 	c #D0D0D0",
"} 	c #CFCFCF",
"| 	c #E3E3E3",
"1 	c #F5F5F5",
"2 	c #FAFAFA",
"3 	c #ECECEC",
"4 	c #C9C9C9",
"5 	c #878787",
"6 	c #939393",
"7 	c #969696",
"8 	c #979797",
"9 	c #FFFFFF",
"0 	c #FBFBFB",
"a 	c #F3F3F3",
"b 	c #E8E8E8",
"c 	c #E0E0E0",
"d 	c #D8D8D8",
"e 	c #D9D9D9",
"f 	c #DCDCDC",
"g 	c #E4E4E4",
"h 	c #E6E6E6",
"i 	c #787878",
"j 	c #CECECE",
"k 	c #D1D1D1",
"l 	c #D4D4D4",
"m 	c #F4F4F4",
"n 	c #F8F8F8",
"o 	c #F0F0F0",
"p 	c #EFEFEF",
"q 	c #F2F2F2",
"r 	c #EEEEEE",
"s 	c #E9E9E9",
"t 	c #D3D3D3",
"u 	c #F6F6F6",
"v 	c #797979",
"w 	c #919191",
"x 	c #EDEDED",
"y 	c #999999",
"z 	c #A6A6A6",
"A 	c #BEBEBE",
"B 	c #C1C1C1",
"C 	c #C5C5C5",
"D 	c #C0C0C0",
"E 	c #737373",
"F 	c #7D7D7D",
"G 	c #EBEBEB",
"H 	c #FEFEFE",
"I 	c #FDFDFD",
"J 	c #FCFCFC",
"K 	c #D5D5D5",
"L 	c #D7D7D7",
"M 	c #E2E2E2",
"N 	c #A9A9A9",
"O 	c #B1B1B1",
"P 	c #B9B9B9",
"Q 	c #C4C4C4",
"R 	c #B3B3B3",
"S 	c #777777",
"T 	c #F4F2EF",
"U 	c #3C588B",
"V 	c #6E84AF",
"W 	c #FDFBF7",
"X 	c #FFFFFE",
"Y 	c #F9F9F9",
"Z 	c #BCBCBC",
"` 	c #B5B5B5",
" .	c #ABABAB",
"..	c #A1A1A1",
"+.	c #9D9D9D",
"@.	c #9E9E9E",
"#.	c #A2A2A2",
"$.	c #A3A3A3",
"%.	c #F1EEEA",
"&.	c #4465A2",
"*.	c #295AB0",
"=.	c #F6F0E8",
"-.	c #435C8C",
";.	c #B8C0CE",
">.	c #FEFDFC",
",.	c #F7F7F7",
"'.	c #9F9F9F",
").	c #A5A5A5",
"!.	c #EDEBE6",
"~.	c #5777AF",
"{.	c #406FBD",
"].	c #FDF7EB",
"^.	c #1A479C",
"/.	c #3E66AE",
"(.	c #E9E7E0",
"_.	c #9DA7B7",
":.	c #F3F1EC",
"<.	c #FAFAF9",
"[.	c #9F9F9E",
"}.	c #A4A4A2",
"|.	c #A8A5A1",
"1.	c #A8A5A0",
"2.	c #A9A5A0",
"3.	c #A7A39E",
"4.	c #A2A1A0",
"5.	c #A5A5A4",
"6.	c #AAA9A7",
"7.	c #ADAAA4",
"8.	c #A8A49D",
"9.	c #A5A099",
"0.	c #9F9C99",
"a.	c #A8A7A6",
"b.	c #989898",
"c.	c #ECEAE6",
"d.	c #6F8DBD",
"e.	c #5383CB",
"f.	c #FFF8ED",
"g.	c #305DA9",
"h.	c #5379BA",
"i.	c #F0EBE0",
"j.	c #043A9D",
"k.	c #2755A7",
"l.	c #F1EFE9",
"m.	c #A4A3A1",
"n.	c #9D9C9D",
"o.	c #A9A8A6",
"p.	c #AAA9A8",
"q.	c #566276",
"r.	c #0B3686",
"s.	c #083E96",
"t.	c #0040A5",
"u.	c #1451A5",
"v.	c #AEAAA5",
"w.	c #E9E7E3",
"x.	c #7E9CC9",
"y.	c #6A97D7",
"z.	c #FFFBF1",
"A.	c #4571B5",
"B.	c #5F88C6",
"C.	c #F3EDE1",
"D.	c #2253AC",
"E.	c #2B5FB6",
"F.	c #F5F1EB",
"G.	c #A8A6A2",
"H.	c #5A6377",
"I.	c #324F84",
"J.	c #284F8C",
"K.	c #1D4F98",
"L.	c #0F4EA5",
"M.	c #A3A19F",
"N.	c #ADAAA6",
"O.	c #AEACAA",
"P.	c #516585",
"Q.	c #003AA6",
"R.	c #0041A8",
"S.	c #0045AD",
"T.	c #1A58AB",
"U.	c #B1ACA6",
"V.	c #E9E6E3",
"W.	c #8BAAD4",
"X.	c #7BABE5",
"Y.	c #FFFCF3",
"Z.	c #5982C1",
"`.	c #6F98D2",
" +	c #F7F2E7",
".+	c #3867B6",
"++	c #4172C2",
"@+	c #F9F5F0",
"#+	c #9B9B9B",
"$+	c #AAA7A3",
"%+	c #314E81",
"&+	c #003AA7",
"*+	c #0040A8",
"=+	c #0047B3",
"-+	c #A6A5A2",
";+	c #AEABA7",
">+	c #AFADAA",
",+	c #5B6E8A",
"'+	c #0041AB",
")+	c #0046AC",
"!+	c #004AB1",
"~+	c #185AAE",
"{+	c #B3AEA8",
"]+	c #AAAAAA",
"^+	c #747474",
"/+	c #E2E1E0",
"(+	c #DCE1E6",
"_+	c #ADCBEB",
":+	c #FEF9F3",
"<+	c #6A95CE",
"[+	c #81A9DD",
"}+	c #F8F1E7",
"|+	c #4A79C1",
"1+	c #5082CC",
"2+	c #FAF6F0",
"3+	c #F0F0EF",
"4+	c #ABA8A3",
"5+	c #325387",
"6+	c #0040A9",
"7+	c #0045AB",
"8+	c #0049AF",
"9+	c #004AB3",
"0+	c #ADAAA5",
"a+	c #B1AEA9",
"b+	c #AFADAB",
"c+	c #5E738F",
"d+	c #0045B0",
"e+	c #004BB1",
"f+	c #004CB3",
"g+	c #185EB4",
"h+	c #B5B0AA",
"i+	c #727272",
"j+	c #FCFCFB",
"k+	c #FBF9F7",
"l+	c #FAF7F3",
"m+	c #84A8D5",
"n+	c #89B6EA",
"o+	c #FAF3EA",
"p+	c #5F8BCD",
"q+	c #6394D8",
"r+	c #F9F5F1",
"s+	c #ACA9A4",
"t+	c #35588C",
"u+	c #0047B0",
"v+	c #004CB2",
"w+	c #004EB7",
"x+	c #B1ACA9",
"y+	c #B2AEAA",
"z+	c #B0AEAB",
"A+	c #617893",
"B+	c #004CB7",
"C+	c #004FB5",
"D+	c #0052B8",
"E+	c #1261BA",
"F+	c #B8B2AC",
"G+	c #ACACAC",
"H+	c #DEDEDD",
"I+	c #FDFCFC",
"J+	c #F8F7F7",
"K+	c #F6F3F1",
"L+	c #DDE6EE",
"M+	c #F6F2EC",
"N+	c #6F9DD9",
"O+	c #75A6E4",
"P+	c #FBF6F3",
"Q+	c #ACA8A4",
"R+	c #315B93",
"S+	c #004BB4",
"T+	c #004EB4",
"U+	c #0051B7",
"V+	c #0053BB",
"W+	c #B4AFAC",
"X+	c #B3AEAB",
"Y+	c #B0AEAC",
"Z+	c #6A7E99",
"`+	c #0050BC",
" @	c #0055BC",
".@	c #0056BF",
"+@	c #0D63C2",
"@@	c #B9B3AE",
"#@	c #868686",
"$@	c #E8E6E3",
"%@	c #506BA2",
"&@	c #2D58A5",
"*@	c #ECEAE7",
"=@	c #FAFAF7",
"-@	c #F9F9F7",
";@	c #F8F6F4",
">@	c #F4F3F0",
",@	c #F5F4F3",
"'@	c #346098",
")@	c #0050B9",
"!@	c #0053B9",
"~@	c #0056BC",
"{@	c #0058BF",
"]@	c #ADACAB",
"^@	c #AFAEAD",
"/@	c #AEAEAD",
"(@	c #B0B0B0",
"_@	c #B0AFAF",
":@	c #707070",
"<@	c #7A7A7A",
"[@	c #D7D5D2",
"}@	c #768FB8",
"|@	c #3167C0",
"1@	c #F2ECE4",
"2@	c #2D4C86",
"3@	c #A2ACC0",
"4@	c #F0EEEC",
"5@	c #AEAEAE",
"6@	c #AAA7A5",
"7@	c #B4AEA9",
"8@	c #BAB5AF",
"9@	c #BAB6B1",
"0@	c #B9B5B2",
"a@	c #B4B3B3",
"b@	c #D2CFCC",
"c@	c #7E99C0",
"d@	c #457BCD",
"e@	c #F5EFE7",
"f@	c #335A9E",
"g@	c #2759B1",
"h@	c #EEEBE4",
"i@	c #DAD8D5",
"j@	c #F2F1EF",
"k@	c #B4B4B4",
"l@	c #6B6B6B",
"m@	c #D1CFCC",
"n@	c #8CA6CB",
"o@	c #588FD9",
"p@	c #486CAA",
"q@	c #3F71BF",
"r@	c #F8F2E9",
"s@	c #3E588B",
"t@	c #A4ADBF",
"u@	c #EFEEEB",
"v@	c #D6D6D5",
"w@	c #AFAFAE",
"x@	c #288F25",
"y@	c #CDCCCA",
"z@	c #AABCD3",
"A@	c #69A3E8",
"B@	c #F7F2E9",
"C@	c #597EB7",
"D@	c #5183CC",
"E@	c #FBF5EA",
"F@	c #4062A0",
"G@	c #104AAF",
"H@	c #D5D7D6",
"I@	c #ADADAD",
"J@	c #B5B3B1",
"K@	c #B8B3AE",
"L@	c #C8C8C7",
"M@	c #F1EEEB",
"N@	c #CAD7E6",
"O@	c #F4F1EC",
"P@	c #6990C4",
"Q@	c #6596D8",
"R@	c #F9F3E9",
"S@	c #5171AA",
"T@	c #2860BD",
"U@	c #E1DFDD",
"V@	c #BAB7B1",
"W@	c #B7B6B3",
"X@	c #BBB9B4",
"Y@	c #BCB9B3",
"Z@	c #B8B3AD",
"`@	c #B1ACA7",
" #	c #BEB8B1",
".#	c #C63636",
"+#	c #696969",
"@#	c #767676",
"##	c #C7C7C7",
"$#	c #EAE9E9",
"%#	c #EEECE8",
"&#	c #84A4CE",
"*#	c #74A8E8",
"=#	c #F7F2E8",
"-#	c #5A7DB5",
";#	c #3A72C8",
">#	c #E4E2E0",
",#	c #D1D0D0",
"'#	c #B9B5AF",
")#	c #838383",
"!#	c #7E7E7E",
"~#	c #E9E9E8",
"{#	c #E9E6E2",
"]#	c #BFD3E8",
"^#	c #F5F0EA",
"/#	c #698DC1",
"(#	c #4D84D3",
"_#	c #E9E7E2",
":#	c #D1D1D0",
"<#	c #B8B4AE",
"[#	c #C2BCB5",
"}#	c #6A7485",
"|#	c #214686",
"1#	c #114390",
"2#	c #0043A3",
"3#	c #3362A4",
"4#	c #686868",
"5#	c #858585",
"6#	c #E8E7E7",
"7#	c #EAE8E8",
"8#	c #EDEAE6",
"9#	c #779CCC",
"0#	c #5F97E0",
"a#	c #EBE8E5",
"b#	c #CDCDCC",
"c#	c #BAB5B0",
"d#	c #4D5D78",
"e#	c #315188",
"f#	c #1F4A90",
"g#	c #0D489F",
"h#	c #084CA8",
"i#	c #C3BDB6",
"j#	c #50678B",
"k#	c #0039A7",
"l#	c #0043AA",
"m#	c #0046B0",
"n#	c #3A6AA9",
"o#	c #676767",
"p#	c #E8E7E6",
"q#	c #D0D3D7",
"r#	c #83B2E6",
"s#	c #EBE9E9",
"t#	c #CBCBCB",
"u#	c #133D84",
"v#	c #003CA7",
"w#	c #0041A9",
"x#	c #0046AE",
"y#	c #0951AE",
"z#	c #C4BEB8",
"A#	c #556D90",
"B#	c #0047AD",
"C#	c #0049B1",
"D#	c #3F6FAE",
"E#	c #7B7B7B",
"F#	c #E5E6E4",
"G#	c #EAEAEA",
"H#	c #B7B3AF",
"I#	c #15438C",
"J#	c #0043AB",
"K#	c #004AB0",
"L#	c #0F56B1",
"M#	c #BEBCB9",
"N#	c #5C7597",
"O#	c #0047B2",
"P#	c #004DB5",
"Q#	c #3A70B4",
"R#	c #656565",
"S#	c #E5E5E5",
"T#	c #B4B3B2",
"U#	c #164A92",
"V#	c #0048AF",
"W#	c #0F5AB5",
"X#	c #B9B8B8",
"Y#	c #647D9C",
"Z#	c #004CB6",
"`#	c #0052BA",
" $	c #3C77B9",
".$	c #A8A8A8",
"+$	c #666666",
"@$	c #BDBDBD",
"#$	c #C8C8C8",
"$$	c #1A4F98",
"%$	c #004DB4",
"&$	c #135FBB",
"*$	c #BBBBBB",
"=$	c #6681A1",
"-$	c #0050BE",
";$	c #0054BE",
">$	c #0053C1",
",$	c #387ABF",
"'$	c #7F7F7F",
")$	c #6E6E6E",
"!$	c #6F6F6F",
"~$	c #C6C6C6",
"{$	c #1855A1",
"]$	c #0052BC",
"^$	c #0054BC",
"/$	c #1466BF",
"($	c #6A6A6A",
"_$	c #717171",
":$	c #8F8F8F",
"<$	c #6D6D6D",
"                    . + @ # $ % &                               ",
"            * = - ; > , ' ) ! ~ { ] > ^                         ",
"        / ( _ : < [ } , ' ) ! ~ | 1 2 3 4 5                     ",
"  - 6 6 _ 7 8 4 9 0 a b c d e f ! ~ g h b { % i & .             ",
"  6 ' ) j k l ! m n a o p a q r s g ) e t 0 u l ( v             ",
"  w 3 9 9 x ) k k ' g 3 3 b o 7 y ( / { z A B C D 6 E ^ F $     ",
"  w G 9 H I 9 J r ! K L ) M ~ 7 / N O P B B Q 4 ' 9 9 f R > S ^ ",
"  . T U V W 9 X 0 Y n Y H Z `  ...( = = +./ +.+.@./ / ..#.$.7 E ",
"  ; %.&.*.=.-.;.X >.2 n ,.6 ( @.@.'.'./ ..$.$.$.).).).).{ ).8 E ",
"  . !.~.{.].^./.(._.:.<.1 8 [.}.|.1.2.3.4.{ 5.6.7.8.9.0.a.z b.E ",
"  > c.d.e.f.g.h.i.j.k.l.u b.m.}.|.1.2.3.n.o.p.q.r.s.t.u.v.N = E ",
"  > w.x.y.z.A.B.C.D.E.F.a = G.H.I.J.K.L.M.N.O.P.Q.R.S.T.U.N y E ",
"  @ V.W.X.Y.Z.`. +.+++@+a #+$+%+&+*+S.=+-+;+>+,+'+)+!+~+{+]+= ^+",
"  + /+(+_+:+<+[+}+|+1+2+3+( 4+5+6+7+8+9+0+a+b+c+d+e+f+g+h+ .( i+",
"  # < j+k+l+m+n+o+p+q+r+x +.s+t+u+8+v+w+x+y+z+A+B+C+D+E+F+G+#+i+",
"  5 H+I+,.J+K+L+M+N+O+P+x @.Q+R+S+T+U+V+W+X+Y+Z+`+ @.@+@@@] #+i+",
"  #@$@%@&@*@=@-@m ;@>@,@G '.o.'@)@!@~@{@]@^@/@] ] ] O (@_@(@( :@",
"  <@[@}@|@1@2@3@4@3 3 3 L N 5@6@7@8@9@0@a@5@5@] ] ] O (@(@O @.:@",
"  v b@c@d@e@f@g@h@i@j@x d  .] (@O O R k@k@5@5@] ] ] O (@(@O z l@",
"  i m@n@o@=.p@q@r@s@t@u@v@]+w@x@x@x@x@x@a@x@x@x@x@] O (@(@O { l@",
"  i y@z@A@B@C@D@E@F@G@H@K I@J@x@x@x@x@x@K@5@5@] ] ] O (@(@O #.l@",
"  S L@M@N@O@P@Q@R@S@T@U@l G+V@W@X@Y@Z@`@ #.#.#.#.#] O (@(@O { +#",
"  @###r $#%#&#*#=#-#;#>#,#5@'#.#.#.#.#.#.#5@5@] ] ] O (@(@O $.+#",
"  )#!#k x ~#{#]#^#/#(#_#:#5@<#W@X@Y@Z@`@[#5@5@}#|#1#2#3#(@O ).4#",
"    5#^+P p 6#7#8#9#0#a#b#5@c#d#e#f#g#h#i#5@5@j#k#l#m#n#(@O { o#",
"        E / G b p#q#r#s#t#] '#u#v#w#x#y#z#5@5@A#'+B#C#D#(@O z 4#",
"          E#@ g ~#p#F#G#t#] H#I#J#)+K#L#M#5@5@N#O#v+P#Q#(@O z R#",
"            )#E#t s S#S#4 ] T#U#V#e+T+W#X#5@5@Y#Z#U+`# $(@O .$+$",
"              $ i+@$G#h #$] R $$%$C+D+&$*$5@5@=$-$;$>$,$'$)$+$!$",
"                  :@).3 ~$(@k@{$]$^$;$/$$.; F )$($!$)$)$_$i+    ",
"                    !$:$B z #+- 5#i !$E ^+^+^+i+                ",
"                      i+<$)$:@)$_$                              "};
