/* XPM */
static const char * empresa_16x16_xpm[] = {
"16 16 189 2",
"  	c None",
". 	c #B7B7B7",
"+ 	c #C5C5C5",
"@ 	c #CDCDCD",
"# 	c #DEDEDE",
"$ 	c #EDEDED",
"% 	c #EAEAEA",
"& 	c #C8C8C8",
"* 	c #C9C9C9",
"= 	c #CBCBCB",
"- 	c #CECECE",
"; 	c #BDBDBD",
"> 	c #ADADAD",
", 	c #CBCDD1",
"' 	c #F0F2F6",
") 	c #F9F9F9",
"! 	c #ECECEC",
"~ 	c #E0E0E0",
"{ 	c #C4C4C4",
"] 	c #BFBFBF",
"^ 	c #B8B8B8",
"/ 	c #B1B1B1",
"( 	c #979797",
"_ 	c #9BA7BB",
": 	c #889FC6",
"< 	c #AEBCD3",
"[ 	c #DEE3EA",
"} 	c #989A9D",
"| 	c #91979E",
"1 	c #A2A1A1",
"2 	c #858B98",
"3 	c #7E8B9F",
"4 	c #9D9EA0",
"5 	c #5C739A",
"6 	c #7789A3",
"7 	c #969696",
"8 	c #ACB6C6",
"9 	c #99B4D9",
"0 	c #8DA6CC",
"a 	c #7895C8",
"b 	c #BFBFBE",
"c 	c #315694",
"d 	c #0748AA",
"e 	c #A6A5A2",
"f 	c #1A4B9C",
"g 	c #1B56AC",
"h 	c #9A9DA1",
"i 	c #0B4AA9",
"j 	c #4C76AD",
"k 	c #989898",
"l 	c #D3D3D4",
"m 	c #D7E1ED",
"n 	c #B5C9E2",
"o 	c #99B5DE",
"p 	c #BFBEBD",
"q 	c #295DA5",
"r 	c #0050B7",
"s 	c #ADAAA7",
"t 	c #1D5BAA",
"u 	c #1B61B9",
"v 	c #9FA2A6",
"w 	c #125AB5",
"x 	c #5583B7",
"y 	c #999999",
"z 	c #ADB3BD",
"A 	c #CAD2E1",
"B 	c #ECEDEF",
"C 	c #D8E2EE",
"D 	c #BEBEBD",
"E 	c #577BA9",
"F 	c #5380B6",
"G 	c #ADACAB",
"H 	c #7A90AA",
"I 	c #8B9DB2",
"J 	c #A0A7AE",
"K 	c #ABADB1",
"L 	c #9B9B9B",
"M 	c #A1ABBB",
"N 	c #809BC9",
"O 	c #96A9C9",
"P 	c #CAD1DC",
"Q 	c #AAA9A7",
"R 	c #A5A5A4",
"S 	c #ADADAC",
"T 	c #828C9E",
"U 	c #7C8DA7",
"V 	c #A4A6AA",
"W 	c #47679E",
"X 	c #7088AB",
"Y 	c #9D9D9D",
"Z 	c #B6BDC5",
"` 	c #A7BFDF",
" .	c #94ADD3",
"..	c #7C98C9",
"+.	c #2C5495",
"@.	c #0044AC",
"#.	c #B1AFAD",
"$.	c #1E519F",
"%.	c #235DAE",
"&.	c #A2A6AC",
"*.	c #0B4DAC",
"=.	c #567FB4",
"-.	c #9F9F9F",
";.	c #C1C2C4",
">.	c #E1E5E9",
",.	c #C6D4E5",
"'.	c #9EB9DE",
").	c #3061A6",
"!.	c #004FB7",
"~.	c #B4B3B1",
"{.	c #2561AC",
"].	c #2A6ABA",
"^.	c #A9ADB1",
"/.	c #2A69B6",
"(.	c #7294BB",
"_.	c #A1A1A1",
":.	c #99A3B2",
"<.	c #D9DBE0",
"[.	c #E2E6EB",
"}.	c #BEBDBD",
"|.	c #6584AB",
"1.	c #5D87B7",
"2.	c #B5B5B4",
"3.	c #97A3B2",
"4.	c #A4AEB9",
"5.	c #BABABA",
"6.	c #BFBDBA",
"7.	c #BCBAB8",
"8.	c #A3A3A3",
"9.	c #A4ADB9",
"0.	c #8DA9D2",
"a.	c #89A1C8",
"b.	c #B0BBCE",
"c.	c #BDBDBC",
"d.	c #9A9FA7",
"e.	c #8B98AB",
"f.	c #B7B6B4",
"g.	c #657BA1",
"h.	c #5D7CAA",
"i.	c #A9ACB1",
"j.	c #12489D",
"k.	c #6183B2",
"l.	c #A4A4A4",
"m.	c #C0C0C1",
"n.	c #C8D3E1",
"o.	c #A3BBDA",
"p.	c #7C99C8",
"q.	c #BEBDBC",
"r.	c #24529C",
"s.	c #064CAD",
"t.	c #BCB9B5",
"u.	c #1C54A5",
"v.	c #2A63B3",
"w.	c #ACB0B6",
"x.	c #0C52B1",
"y.	c #638BBC",
"z.	c #A5A5A5",
"A.	c #909090",
"B.	c #CBCBCA",
"C.	c #DCE0E4",
"D.	c #A4BDDD",
"E.	c #BDBCBA",
"F.	c #205CAB",
"G.	c #0757B9",
"H.	c #BFBBB7",
"I.	c #2F68AE",
"J.	c #5281BC",
"K.	c #B8BABD",
"L.	c #7896BB",
"M.	c #A9B5C3",
"N.	c #A7A7A7",
"O.	c #838383",
"P.	c #E4E4E4",
"Q.	c #BABAB9",
"R.	c #8296AF",
"S.	c #96A6B7",
"T.	c #BBBBBA",
"U.	c #C0BFBD",
"V.	c #BCBBBA",
"W.	c #B4B4B4",
"X.	c #ACACAC",
"Y.	c #8B8B8B",
"Z.	c #A8A8A8",
"`.	c #A0A0A0",
" +	c #9A9A9A",
".+	c #939393",
"++	c #868686",
"@+	c #818181",
"#+	c #797979",
"      . . . . . . . . .         ",
"  + @ # $ % @ & & * = - ; >     ",
"  , ' ) ! ~ { { + + { ] ^ / (   ",
"  _ : < [ ] } | 1 2 3 4 5 6 7   ",
"  8 9 0 a b c d e f g h i j k   ",
"  l m n o p q r s t u v w x y   ",
"  z A B C D E F G H I > J K L   ",
"  M N O P ; Q R S T U V W X Y   ",
"  Z `  ...b +.@.#.$.%.&.*.=.-.  ",
"  ;.>.,.'.p ).!.~.{.].^./.(._.  ",
"  :.O <.[.}.|.1.2.3.4.5.6.7.8.  ",
"  9.0.a.b.c.d.e.f.g.h.i.j.k.l.  ",
"  m.n.o.p.q.r.s.t.u.v.w.x.y.z.  ",
"  A.B.C.D.E.F.G.H.I.J.K.L.M.N.  ",
"    O.5.P.Q.R.S.T.U.V.W.X.8.Y.  ",
"        Z.> `. +.+++@+#+        "};
