/* XPM */
static const char *estate_16x16_xpm[] = {
"16 16 10 1",
" 	c None",
".	c #BBBBBB",
"+	c #AAAAAA",
"@	c #FFFFFF",
"#	c #EEEEEE",
"$	c #888888",
"%	c #DDDDDD",
"&	c #CCCCCC",
"*	c #777777",
"=	c #999999",
"  .........+    ",
" .@@#@#####$$   ",
" .@########$+   ",
" .#########$%   ",
" .@#+&+&+##$*   ",
" .#########$*   ",
" .#########$*   ",
" .########%$*   ",
" .#######%#$*   ",
" .#######%#$*   ",
" .######%#%$*   ",
" .###%#%#%%$*   ",
" .##%#%#%%&$*   ",
" +$$$$$$$$$=*   ",
" +&@@@@@@@@@*   ",
"  $*********    "};
