/* XPM */
static const char * export_16x16_xpm[] = {
"16 16 10 1",
" 	c None",
".	c #990000",
"+	c #660000",
"@	c #FF0000",
"#	c #666666",
"$	c #CCCCCC",
"%	c #999999",
"&	c #DDDFE1",
"*	c #006600",
"=	c #00FF00",
"       ..+      ",
"       .@+      ",
"       .@+      ",
"       .@+      ",
"     ...@+++    ",
"      .@@@+     ",
"       .@+      ",
"  ######.###### ",
" #$$$$$$$$$$$$##",
"#$$$$$$$$$$$$$##",
"#%%%%%%%%%%%%%##",
"#&&&&&&&&&&&*=##",
"#%%%%%%%%%%%=*##",
"#$$$$$$$$$$$$$##",
"############### ",
" #############  "};
