/* XPM */
static const char * file_conf_16x16_xpm[] = {
"16 16 148 2",
"  	c None",
". 	c #88ABDE",
"+ 	c #84A3D6",
"@ 	c #666666",
"# 	c #F7FFFF",
"$ 	c #F0F6FE",
"% 	c #77B3EA",
"& 	c #97D9FE",
"* 	c #E5F0FE",
"= 	c #43A6F7",
"- 	c #4192E0",
"; 	c #00A3FF",
"> 	c #57B5FF",
", 	c #F7FAFF",
"' 	c #0F9DFF",
") 	c #5EB7FA",
"! 	c #EAF3FE",
"~ 	c #E0EEFD",
"{ 	c #CCD5FF",
"] 	c #AAB3F5",
"^ 	c #7E88B3",
"/ 	c #6BC3FE",
"( 	c #1EA9FF",
"_ 	c #009AFF",
": 	c #0079E2",
"< 	c #004EA8",
"[ 	c #005EC4",
"} 	c #007CF5",
"| 	c #6FB7F4",
"1 	c #DBEAFC",
"2 	c #BAC9F4",
"3 	c #7FDEFF",
"4 	c #00A4FE",
"5 	c #0093FF",
"6 	c #0182E4",
"7 	c #071945",
"8 	c #010C44",
"9 	c #002584",
"0 	c #0064E2",
"a 	c #0098FF",
"b 	c #0081FF",
"c 	c #218EED",
"d 	c #CFE4FC",
"e 	c #BDCDF3",
"f 	c #42C3FC",
"g 	c #00ACFE",
"h 	c #0097FF",
"i 	c #2988CB",
"j 	c #9B9695",
"k 	c #B4B8C3",
"l 	c #84A1C3",
"m 	c #197AE1",
"n 	c #00CDFF",
"o 	c #00E4FF",
"p 	c #048BF8",
"q 	c #A1C6E4",
"r 	c #48BDFB",
"s 	c #0093FE",
"t 	c #0092FF",
"u 	c #3A9ADC",
"v 	c #6AD7F0",
"w 	c #00FFFF",
"x 	c #00CAFF",
"y 	c #037BFE",
"z 	c #66B6FD",
"A 	c #C4DEFB",
"B 	c #B5C8F2",
"C 	c #00BBFF",
"D 	c #0197FF",
"E 	c #0091FF",
"F 	c #2295E9",
"G 	c #4BEDFB",
"H 	c #00F9FF",
"I 	c #00A1FF",
"J 	c #006AE4",
"K 	c #A1BCD2",
"L 	c #AFC3F0",
"M 	c #00589A",
"N 	c #003F96",
"O 	c #009BFA",
"P 	c #028EFD",
"Q 	c #ABCFEA",
"R 	c #D6E7FD",
"S 	c #00E7FE",
"T 	c #00B0FF",
"U 	c #1677DD",
"V 	c #B8B5B4",
"W 	c #4D5B89",
"X 	c #0A6DB7",
"Y 	c #00D5FF",
"Z 	c #009EFF",
"` 	c #1693F8",
" .	c #02C2FD",
"..	c #0095FE",
"+.	c #0280FF",
"@.	c #7AB7E7",
"#.	c #0EC1FD",
"$.	c #009AFE",
"%.	c #008FFF",
"&.	c #1299FE",
"*.	c #0189FD",
"=.	c #0085FF",
"-.	c #007EF5",
";.	c #0576E8",
">.	c #A5BDEE",
",.	c #1DBBFC",
"'.	c #008CFA",
").	c #0084F4",
"!.	c #008EFF",
"~.	c #068DFE",
"{.	c #1C99FE",
"].	c #0D90FE",
"^.	c #0087FE",
"/.	c #018CFF",
"(.	c #0052BB",
"_.	c #1B3F86",
":.	c #AAAEB1",
"<.	c #00BFFF",
"[.	c #03ABF9",
"}.	c #064FAC",
"|.	c #00349B",
"1.	c #0176E1",
"2.	c #008BFF",
"3.	c #0087F8",
"4.	c #0180F5",
"5.	c #0083FF",
"6.	c #1C76D3",
"7.	c #A5ABB1",
"8.	c #8B91B6",
"9.	c #86D8F3",
"0.	c #64ACC2",
"a.	c #A1A3AD",
"b.	c #385EAC",
"c.	c #008CDF",
"d.	c #00A6FF",
"e.	c #018DFF",
"f.	c #004CAB",
"g.	c #0066CF",
"h.	c #0095FF",
"i.	c #0D85F2",
"j.	c #D5DCE1",
"k.	c #00C9F4",
"l.	c #0082D4",
"m.	c #006FE0",
"n.	c #1B80DA",
"o.	c #007FF4",
"p.	c #0FA0EF",
"q.	c #6EA0C5",
"      . . . . . . . + . @       ",
"      . # # # # $ $ $ . % @     ",
"      & # # # $ $ $ * = = - @   ",
"      ; > , ' ) ! ! ~ { { ] ^ @ ",
"  / ( _ : < [ } | * ~ 1 1 1 2 @ ",
"3 4 5 6 7 8 9 0 a b c 1 1 d e @ ",
"f g h i j k l m n o p q d d 2 @ ",
"r s t u ~ ~ 1 1 v w x y z A B @ ",
"C D E F 1 1 1 1 d G H I J K L @ ",
"M N O P Q R R d d d S T U V L @ ",
"W X Y Z ` R d d A A  ...+.@.L @ ",
"    #.$.%.&.d A A A *.=.-.;.>.@ ",
"    ,.5 '.).!.~.{.].^./.(._.:.@ ",
"    <.[.}.|.1.!.2.3.4.5.6.7.8.@ ",
"    9.0.a.b.c.d.e.f.g.h.i.j.@ @ ",
"            k.l.m.n.o.p.q.      "};
