/* XPM */
static const char * file_log_16x16_xpm[] = {
"16 16 110 2",
"  	c None",
". 	c #5A879D",
"+ 	c #1E5F7D",
"@ 	c #98ABA5",
"# 	c #155A7B",
"$ 	c #2F6A82",
"% 	c #FAE6C0",
"& 	c #A89D9F",
"* 	c #50507B",
"= 	c #25366E",
"- 	c #454B7E",
"; 	c #306981",
"> 	c #D3C1A9",
", 	c #4A4E85",
"' 	c #C0C1DC",
") 	c #4A4E80",
"! 	c #30697F",
"~ 	c #C9B69F",
"{ 	c #52578B",
"] 	c #E3E4F7",
"^ 	c #8CAAC5",
"/ 	c #316D8F",
"( 	c #0B4873",
"_ 	c #437893",
": 	c #30687C",
"< 	c #CAB28F",
"[ 	c #50558B",
"} 	c #8EAAC8",
"| 	c #4C85A2",
"1 	c #D4EDF8",
"2 	c #BCDAE9",
"3 	c #1D5F81",
"4 	c #30677A",
"5 	c #CAAF87",
"6 	c #4F538B",
"7 	c #8BA7C8",
"8 	c #CFE9F4",
"9 	c #BCDBE8",
"0 	c #9AC1D3",
"a 	c #77A6BD",
"b 	c #538BA6",
"c 	c #C5E2EE",
"d 	c #B7D7E5",
"e 	c #306678",
"f 	c #A0957C",
"g 	c #87A3C7",
"h 	c #C9E3EF",
"i 	c #A6C9D9",
"j 	c #377595",
"k 	c #689BB3",
"l 	c #8AB4C8",
"m 	c #578EA9",
"n 	c #BDDAE8",
"o 	c #B2D2E1",
"p 	c #306676",
"q 	c #C7A878",
"r 	c #4C518A",
"s 	c #83A0C7",
"t 	c #47819E",
"u 	c #C1DEE9",
"v 	c #A0C5D5",
"w 	c #7EACC0",
"x 	c #B6D6E2",
"y 	c #ABCDDB",
"z 	c #CBA871",
"A 	c #4B508A",
"B 	c #5481A9",
"C 	c #447F9C",
"D 	c #BAD7E3",
"E 	c #9ABFD0",
"F 	c #7AA7BC",
"G 	c #A2C5D5",
"H 	c #6497AF",
"I 	c #AFCFDD",
"J 	c #A5C7D6",
"K 	c #306573",
"L 	c #CCA66B",
"M 	c #4A4E8A",
"N 	c #7796C1",
"O 	c #417D9B",
"P 	c #ABCBD9",
"Q 	c #79A6BB",
"R 	c #6798B0",
"S 	c #75A3B9",
"T 	c #357493",
"U 	c #044F75",
"V 	c #9EC2D2",
"W 	c #325A70",
"X 	c #494D8A",
"Y 	c #7996C5",
"Z 	c #3F7B98",
"` 	c #6094AC",
" .	c #76A4B9",
"..	c #7AA7BB",
"+.	c #6A9BB2",
"@.	c #ABCCD8",
"#.	c #97BDCC",
"$.	c #7794C5",
"%.	c #3C7996",
"&.	c #9FC2D0",
"*.	c #709FB4",
"=.	c #78A4B8",
"-.	c #A5C6D3",
";.	c #92B8C8",
">.	c #1A386E",
",.	c #A0C2CF",
"'.	c #8EB4C4",
").	c #3A7794",
"!.	c #9CBFCC",
"~.	c #8AB2C2",
"    . . . . . . . . .           ",
"  + @ @ @ @ @ @ @ @ @ #         ",
"  $ % & * * * * * * * = -       ",
"  ; > , ' ' ' ' ' ' ' ' ' )     ",
"  ! ~ { ] ^ / / / / / / / ( _   ",
"  : < [ } | 1 1 1 1 1 1 1 1 2 3 ",
"  4 5 6 7 | 8 8 8 9 0 a b c d 3 ",
"  e f 6 g | h h i j k l m n o 3 ",
"  p q r s t u u v w u u k x y 3 ",
"  p z A B C D D E F D G H I J 3 ",
"  K L M N O P Q R S T U U P V 3 ",
"    W X Y Z ` U U  ...t +.@.#.3 ",
"      X $.%.&.*.=.-.-.-.-.-.;.3 ",
"        >.%.,.,.,.,.,.,.,.,.'.3 ",
"          ).!.!.!.!.!.!.!.!.~.3 ",
"            U U U U U U U U 3   "};
