/* XPM */
static const char * funcionario_33x41_xpm[] = {
"33 41 80 1",
" 	c None",
".	c #FFFFFF",
"+	c #DCE9F1",
"@	c #A3C0D7",
"#	c #72A0C0",
"$	c #608EB4",
"%	c #4D83AF",
"&	c #80A6C4",
"*	c #A9C7DB",
"=	c #E2ECF3",
"-	c #EAF1F6",
";	c #84AAC8",
">	c #417CA9",
",	c #316E9F",
"'	c #356F9F",
")	c #3974A2",
"!	c #94BCD4",
"~	c #F9F9F9",
"{	c #D9E5EE",
"]	c #568BB5",
"^	c #3F79A6",
"/	c #6D9BBD",
"(	c #3373A3",
"_	c #6893B5",
":	c #F1F6F9",
"<	c #F8FBFC",
"[	c #D3E2ED",
"}	c #FDFDFD",
"|	c #417FAA",
"1	c #3778A5",
"2	c #4480AB",
"3	c #3C7DAA",
"4	c #EEF3F7",
"5	c #B6CDDF",
"6	c #4483AD",
"7	c #4685AE",
"8	c #4886B0",
"9	c #4282AE",
"0	c #5D94B9",
"a	c #F0F5F8",
"b	c #639BBC",
"c	c #4889B1",
"d	c #3A80AD",
"e	c #87B1CD",
"f	c #FAFCFD",
"g	c #4A8AB2",
"h	c #498BB3",
"i	c #3E84AF",
"j	c #91B4CE",
"k	c #5D92B6",
"l	c #4B8CB4",
"m	c #6DA6C6",
"n	c #F4F8FB",
"o	c #4C8EB5",
"p	c #7AAAC7",
"q	c #4288B1",
"r	c #5A99BD",
"s	c #BBD5E4",
"t	c #9BC0D7",
"u	c #6196BC",
"v	c #C8DCE9",
"w	c #7FAECA",
"x	c #68A0C0",
"y	c #B7D1E2",
"z	c #C8E1ED",
"A	c #C0D7E6",
"B	c #488DB4",
"C	c #4D90B6",
"D	c #B0CDDF",
"E	c #4F92B8",
"F	c #72A8C7",
"G	c #F7F9FB",
"H	c #458DB6",
"I	c #5094BA",
"J	c #5298BC",
"K	c #539ABE",
"L	c #559CBE",
"M	c #569EC0",
"N	c #5790B7",
"O	c #5088B3",
"............+@#$%$&*=............",
"..........-;>,')))',%!~..........",
".........{],)^^^^^^^),/-.........",
"........+%'^^^^^^^^^^^(_:........",
".......<_'^^^^^>>>>>>>>(;........",
".......*'^^^>>>>>>>>>>>>>[.......",
"......}_)^>>>>>>||||||||1;.......",
"......{>^>>>||||||2222223]4......",
"......5^>>>|||22222222222|{......",
"......@(>||222226666666663[......",
"......@1|22226666777777773[......",
"......53|22666777777777776{......",
"......{6|66677778888888890a......",
"......}b367778888c8cccccde.......",
".......53677888cccccccccc[.......",
".......f#3888cccgghghghij........",
"........=kdcccgghhllllimn........",
".........=bdcghllloocipa.........",
"......-!pa<!oiqcccqqr*.+esn......",
"....nt]|duv.-*wxbxeyn.y0qcb*:....",
"...vu368c7cwz}.....<ApBoCCBqbDf..",
"..@6|88cchhqhbe!!!wroBEEECCCBqF[.",
"Ge36888cghloooHHHHoEIIIIIEECCoqo*",
"j16788ccglooCCEEIIIIIIIIIIEECCoqb",
"/37788cghloCCEEIIIIJJJJIIIIEECChx",
"#3778cchlooCCEIIIIJJJJJJJIIIECChx",
"#3788cchloCCEIIIIJJJKKKJJJIIIECBx",
"#|788cghloCCEIIIJJKKLLKKJJIIIECBx",
"#|78ccghloCCEIIIJJKLLLLKKJJIIEEBx",
"#|78ccglloCCEIIIJJKLMMLLKJJIIEEBx",
"#|78ccglloCCEIIIJJKLMMLLKJJIIEEBx",
"#|788cghloCCEIIIJJKLLLLKJJJIIECBx",
"#3788cghloCCEIIIJJJKKKKJJJIIIECBx",
"#3778cchloCCEEIIIJJJJJJJJIIIEECBx",
"#37788chlooCCEEIIIJJJJJJIIIIECChx",
"#36788cghloCCCEIIIIIIIIIIIIECCCcx",
"/36778ccglloCCEEEIIIIIIIIIEECCocx",
"N>67788cghlooCCCEEEIIIIIIEECCoocx",
"]>66788ccgllooCCCEEEEEEEECCCooocb",
"O13||99677qccchBBBBBBBBBBBBhccqiu",
"/]kkkkkk00uuuubbbbbbbbbbbbbbbbb0p"};
