/* XPM */
static const char * funcionario_16x16_xpm[] = {
"16 16 117 2",
"  	c None",
". 	c #FFFBF1",
"+ 	c #FFF2DB",
"@ 	c #FFE9C1",
"# 	c #FFF7E7",
"$ 	c #FFF9ED",
"% 	c #FFF1D9",
"& 	c #FFE7BF",
"* 	c #FFDEA5",
"= 	c #FAD694",
"- 	c #FEE9C2",
"; 	c #FFEED1",
"> 	c #FFEFD5",
", 	c #FFEBC9",
"' 	c #FFE4B4",
") 	c #FEDB9F",
"! 	c #F7D492",
"~ 	c #FFE2AE",
"{ 	c #FFE5B7",
"] 	c #FFE6BA",
"^ 	c #FFE3B2",
"/ 	c #FFDDA3",
"( 	c #FBD796",
"_ 	c #F2CF8B",
": 	c #FCD999",
"< 	c #FDDB9F",
"[ 	c #FEDCA0",
"} 	c #FDDA9C",
"| 	c #FAD695",
"1 	c #F4D18D",
"2 	c #E8C278",
"3 	c #F7D391",
"4 	c #F7D390",
"5 	c #F5D28E",
"6 	c #F1CD88",
"7 	c #E5C075",
"8 	c #D3A853",
"9 	c #E0B96B",
"0 	c #E8C275",
"a 	c #E3BD71",
"b 	c #DAB260",
"c 	c #CC9D43",
"d 	c #A7BAEF",
"e 	c #CCD6D3",
"f 	c #A4826A",
"g 	c #CA6A23",
"h 	c #B36733",
"i 	c #98A9AA",
"j 	c #8FB7F0",
"k 	c #C8D5F0",
"l 	c #EEF3FC",
"m 	c #D7E5FE",
"n 	c #D0C8D9",
"o 	c #CD1816",
"p 	c #BD6D79",
"q 	c #BDDAFB",
"r 	c #DEEAFE",
"s 	c #D8E0F4",
"t 	c #C5DDF9",
"u 	c #E1F1FF",
"v 	c #EAF5FF",
"w 	c #E1CBCD",
"x 	c #D83B3B",
"y 	c #D17E83",
"z 	c #EEF5FA",
"A 	c #E8F4FF",
"B 	c #DAECFD",
"C 	c #B9D4F6",
"D 	c #9FCBF9",
"E 	c #BADCFE",
"F 	c #C6E3FF",
"G 	c #D0E8FF",
"H 	c #CFB7C1",
"I 	c #E74040",
"J 	c #C86970",
"K 	c #CAE5F6",
"L 	c #B2DFE8",
"M 	c #A1CFEE",
"N 	c #A4CCFA",
"O 	c #8FC6FC",
"P 	c #A3D2FF",
"Q 	c #ACD7FF",
"R 	c #B5DCFD",
"S 	c #C09BA9",
"T 	c #EE3433",
"U 	c #CF5358",
"V 	c #B5D3F0",
"W 	c #A3D7F4",
"X 	c #81C0F7",
"Y 	c #91C5FD",
"Z 	c #7CBFFF",
"` 	c #89C5FF",
" .	c #92CAFF",
"..	c #99CEFA",
"+.	c #B57584",
"@.	c #E01A19",
"#.	c #C13437",
"$.	c #99BBE7",
"%.	c #95CBFF",
"&.	c #7EBCFE",
"*.	c #81C0FE",
"=.	c #6FBAFF",
"-.	c #77BDFF",
";.	c #7EC1FD",
">.	c #9794C0",
",.	c #C23040",
"'.	c #866283",
").	c #7FBAF5",
"!.	c #7DC0FF",
"~.	c #76BDFF",
"{.	c #6DB8FF",
"].	c #63B4FF",
"^.	c #66B8FF",
"/.	c #67B6FB",
"(.	c #69B9FF",
"_.	c #67B6FF",
":.	c #61B2FE",
"                                ",
"            . + @               ",
"          # $ % & * =           ",
"        - ; > , ' ) !           ",
"        ~ { ] ^ / ( _           ",
"        : < [ } | 1 2           ",
"          3 4 5 6 7 8           ",
"          9 0 a b c             ",
"        d e f g h i j           ",
"      k l m n o p q r s         ",
"      t u v w x y z A B C       ",
"    D E F G H I J K L M N       ",
"    O P Q R S T U V W X Y       ",
"    Z `  ...+.@.#.$.%.&.*.      ",
"      =.-.;.>.,.'.).!.~.{.      ",
"          ].^./.(._.:.          "};
