/* XPM */
static const char * funcionario_cargo_16x16_xpm[] = {
"16 16 13 1",
" 	c None",
".	c #7E7E7E",
"+	c #FFB400",
"@	c #FFD800",
"#	c #FFFFFF",
"$	c #FFF000",
"%	c #C5807C",
"&	c #DF9F9C",
"*	c #FFC6C3",
"=	c #FFD2D0",
"-	c #34548E",
";	c #41659C",
">	c #5079AD",
"     ......     ",
"    .+@#@##.    ",
"   .++@#@$$#.   ",
"  .+@@@#@$$$#.  ",
"  .+@@@@#$$$#.  ",
"  .+@@@@$$$$#.  ",
" .+++++++++++#. ",
"  ............  ",
"   .%%%%%%%%.   ",
"   .%&&&&&*=.   ",
"    .&&&**=.    ",
"   ..%&&&*=..   ",
" ..---%%%%---.. ",
".;;;;;;;;;;;;;;.",
".>>>>>>>>>>>>>>.",
" .............. "};
