/* XPM */
static const char * funcionario_32x32_xpm[] = {
"32 32 437 2",
"  	c None",
". 	c #6697B5",
"+ 	c #2772AB",
"@ 	c #2575A8",
"# 	c #2977A8",
"$ 	c #2871A6",
"% 	c #2672A6",
"& 	c #2777A8",
"* 	c #2B78A6",
"= 	c #2E70A2",
"- 	c #2A70A1",
"; 	c #2A74A5",
"> 	c #2B73A3",
", 	c #2677AF",
"' 	c #2170A8",
") 	c #2C74A6",
"! 	c #2373A6",
"~ 	c #2475AC",
"{ 	c #2973A4",
"] 	c #7DA9C6",
"^ 	c #87A6C2",
"/ 	c #2C75A0",
"( 	c #2972A7",
"_ 	c #2B75A4",
": 	c #2674A2",
"< 	c #2775A6",
"[ 	c #2875A1",
"} 	c #2875A3",
"| 	c #2875AB",
"1 	c #2C75A2",
"2 	c #2C76A5",
"3 	c #2275AB",
"4 	c #2576AB",
"5 	c #3178A6",
"6 	c #2673A7",
"7 	c #2676A9",
"8 	c #2879A6",
"9 	c #1F76AB",
"0 	c #2479B0",
"a 	c #2E729F",
"b 	c #ADC8DB",
"c 	c #518EBA",
"d 	c #2474A5",
"e 	c #2B7AA5",
"f 	c #2775A5",
"g 	c #2B74A7",
"h 	c #2A77AB",
"i 	c #2576AE",
"j 	c #2374A9",
"k 	c #2A79A4",
"l 	c #2B75A6",
"m 	c #2477AD",
"n 	c #1E75AB",
"o 	c #287AAC",
"p 	c #2976A4",
"q 	c #2A74A3",
"r 	c #2773A4",
"s 	c #2876A7",
"t 	c #2A76AA",
"u 	c #2975A9",
"v 	c #82ACC4",
"w 	c #3F8BBC",
"x 	c #2874A6",
"y 	c #1D77AB",
"z 	c #2F77A9",
"A 	c #2674A4",
"B 	c #2A76A7",
"C 	c #4885B2",
"D 	c #92BBDB",
"E 	c #ADCEDD",
"F 	c #AECBDD",
"G 	c #7DAECE",
"H 	c #377AA5",
"I 	c #2870A0",
"J 	c #2176AD",
"K 	c #2277AE",
"L 	c #2876A6",
"M 	c #317AAD",
"N 	c #2B72A0",
"O 	c #2273AA",
"P 	c #78AACB",
"Q 	c #468DBB",
"R 	c #2871A4",
"S 	c #2975A7",
"T 	c #2C75A8",
"U 	c #2874A5",
"V 	c #34789F",
"W 	c #9CC2D7",
"X 	c #FAFEFF",
"Y 	c #FFF8F6",
"Z 	c #FFFDFF",
"` 	c #FFFDFA",
" .	c #FFF8F0",
"..	c #ECF7FD",
"+.	c #74A5C6",
"@.	c #2D75A7",
"#.	c #2E76A6",
"$.	c #2C74A4",
"%.	c #2577A6",
"&.	c #2576A5",
"*.	c #3079A2",
"=.	c #7CA9C6",
"-.	c #4883AB",
";.	c #2A76A8",
">.	c #2275A9",
",.	c #2C73A1",
"'.	c #AECDEA",
").	c #FBFBFF",
"!.	c #FFFCF8",
"~.	c #FFFFFD",
"{.	c #FCFFFF",
"].	c #FFFFFF",
"^.	c #FDFCFA",
"/.	c #F5FFFF",
"(.	c #74A0BB",
"_.	c #2B77A9",
":.	c #2173AB",
"<.	c #2D75A5",
"[.	c #2875A9",
"}.	c #2374AB",
"|.	c #7AA7C4",
"1.	c #4787B3",
"2.	c #2677AC",
"3.	c #2D74A0",
"4.	c #6197BD",
"5.	c #FCFCFE",
"6.	c #FEFFFF",
"7.	c #FFFFFB",
"8.	c #FBFEFF",
"9.	c #FDFDFF",
"0.	c #FBFFFF",
"a.	c #ECF6F8",
"b.	c #3177A8",
"c.	c #2775A3",
"d.	c #377BAA",
"e.	c #5191BD",
"f.	c #4E8DB6",
"g.	c #5190BB",
"h.	c #4E8FB9",
"i.	c #5492B9",
"j.	c #4288BC",
"k.	c #2577A9",
"l.	c #2573A1",
"m.	c #2574AC",
"n.	c #7DAACB",
"o.	c #2375A4",
"p.	c #2C72A6",
"q.	c #B3CDE4",
"r.	c #FBFDFA",
"s.	c #FFFFFA",
"t.	c #FFFEFD",
"u.	c #FCFAFB",
"v.	c #76A1C1",
"w.	c #2B77AB",
"x.	c #2977A7",
"y.	c #7AA9C5",
"z.	c #D4E5EC",
"A.	c #E1E7E7",
"B.	c #D9E6EE",
"C.	c #D8EAF8",
"D.	c #DBE7F3",
"E.	c #DEE1E6",
"F.	c #C6D3DB",
"G.	c #2B749F",
"H.	c #287DB3",
"I.	c #7DA4C1",
"J.	c #2575AA",
"K.	c #DCE7ED",
"L.	c #FFFEFC",
"M.	c #FBFBFB",
"N.	c #FDFFFC",
"O.	c #FCFEFD",
"P.	c #FCFCFC",
"Q.	c #FFFCFB",
"R.	c #A5BED2",
"S.	c #2774AA",
"T.	c #2474AF",
"U.	c #2473AB",
"V.	c #2E7BAF",
"W.	c #2771A2",
"X.	c #2973A2",
"Y.	c #2A78A8",
"Z.	c #2C75AA",
"`.	c #2470A1",
" +	c #2973A0",
".+	c #2075AE",
"++	c #78A6C8",
"@+	c #2976AA",
"#+	c #2471A5",
"$+	c #DDEBEE",
"%+	c #FCFDFF",
"&+	c #F8FFFF",
"*+	c #FFFCFF",
"=+	c #FEFCFD",
"-+	c #9BC0DB",
";+	c #2172A9",
">+	c #2D77A6",
",+	c #2C77A1",
"'+	c #468AAF",
")+	c #6DA8C8",
"!+	c #78ABC8",
"~+	c #7AACC7",
"{+	c #77A8C6",
"]+	c #74A7C4",
"^+	c #77AAC9",
"/+	c #5E9CC5",
"(+	c #2D7BAC",
"_+	c #2E78A7",
":+	c #2777AC",
"<+	c #74A8CD",
"[+	c #2177AA",
"}+	c #2C72A5",
"|+	c #B8CFE1",
"1+	c #FEFFFA",
"2+	c #F4FFFF",
"3+	c #FFFEFF",
"4+	c #FDFDFD",
"5+	c #FEFCFF",
"6+	c #69A4CC",
"7+	c #2777AA",
"8+	c #2C72A3",
"9+	c #689EC2",
"0+	c #AACADF",
"a+	c #B5CFDC",
"b+	c #B0CBDC",
"c+	c #AECEE3",
"d+	c #B0CFE4",
"e+	c #B2CDE0",
"f+	c #9CBFD3",
"g+	c #2474A7",
"h+	c #78A7C5",
"i+	c #2D76A9",
"j+	c #6492B4",
"k+	c #FFFFF8",
"l+	c #F7FEFF",
"m+	c #FFFCF9",
"n+	c #EDF3F1",
"o+	c #3079A6",
"p+	c #2B77A8",
"q+	c #2D73A7",
"r+	c #2B72A8",
"s+	c #2A73A6",
"t+	c #2575A6",
"u+	c #2376AC",
"v+	c #2D76A3",
"w+	c #78A9C9",
"x+	c #2475AA",
"y+	c #2D74A2",
"z+	c #B0CCE2",
"A+	c #F9F9FB",
"B+	c #FCFFFB",
"C+	c #F7FFFF",
"D+	c #FFFAFB",
"E+	c #F1FFFF",
"F+	c #76A0B8",
"G+	c #2D77A8",
"H+	c #247AA9",
"I+	c #2278A7",
"J+	c #2677A6",
"K+	c #2C76A7",
"L+	c #2876A4",
"M+	c #71A8C7",
"N+	c #2676A7",
"O+	c #2873AC",
"P+	c #2776AE",
"Q+	c #A5C2D4",
"R+	c #F8FAF9",
"S+	c #FFFDF6",
"T+	c #FAFFFF",
"U+	c #ECF4F7",
"V+	c #6F9CB9",
"W+	c #287BB1",
"X+	c #2A75AE",
"Y+	c #2878AB",
"Z+	c #2977A5",
"`+	c #2676AB",
" @	c #2579A8",
".@	c #79A8C2",
"+@	c #4D88B4",
"@@	c #1F74AD",
"#@	c #679FC2",
"$@	c #D7E5E6",
"%@	c #6192BA",
"&@	c #5796C2",
"*@	c #FDFAF3",
"=@	c #F0EEF1",
"-@	c #F8F8F8",
";@	c #D6E5EA",
">@	c #2B7BAC",
",@	c #3176A0",
"'@	c #96BED8",
")@	c #C1D3DF",
"!@	c #4789B9",
"~@	c #2A73A0",
"{@	c #2377B3",
"]@	c #2577A7",
"^@	c #26759C",
"/@	c #2979AC",
"(@	c #2A72AC",
"_@	c #2B769E",
":@	c #2278B3",
"<@	c #2476A6",
"[@	c #2B79AA",
"}@	c #2A73A8",
"|@	c #4385B5",
"1@	c #3073A0",
"2@	c #91BBD3",
"3@	c #F4FCFE",
"4@	c #FEFEFF",
"5@	c #BED7DC",
"6@	c #3278AB",
"7@	c #CADCE6",
"8@	c #DEDADB",
"9@	c #6D7779",
"0@	c #8C8C8E",
"a@	c #EDF3F3",
"b@	c #93B8CB",
"c@	c #307CB0",
"d@	c #EDF8FE",
"e@	c #FFFBF5",
"f@	c #EEF7FC",
"g@	c #67A1C9",
"h@	c #2B75A2",
"i@	c #2579A5",
"j@	c #2774AC",
"k@	c #27729A",
"l@	c #2478A7",
"m@	c #2874A8",
"n@	c #7AA9C3",
"o@	c #A5C5DC",
"p@	c #F7FCF8",
"q@	c #C4DCE8",
"r@	c #EEF6F8",
"s@	c #686F68",
"t@	c #68696E",
"u@	c #6A6A72",
"v@	c #999A9C",
"w@	c #F8FAF7",
"x@	c #C6DDEB",
"y@	c #FEFAF7",
"z@	c #FBFDFC",
"A@	c #85AAC5",
"B@	c #2B76A0",
"C@	c #2972A5",
"D@	c #2578AC",
"E@	c #2C78AA",
"F@	c #2D78A0",
"G@	c #2A77A5",
"H@	c #2B78AC",
"I@	c #79A7C1",
"J@	c #AECDDF",
"K@	c #FFFDF7",
"L@	c #FDFEFF",
"M@	c #FAFCFB",
"N@	c #737172",
"O@	c #65696A",
"P@	c #68686A",
"Q@	c #A9A5A2",
"R@	c #FFFEF8",
"S@	c #F9FCFF",
"T@	c #FFFDFE",
"U@	c #FFFEFA",
"V@	c #F5FEFF",
"W@	c #70A5C4",
"X@	c #2871A8",
"Y@	c #2A78A6",
"Z@	c #2975A6",
"`@	c #2476A8",
" #	c #FEFFFD",
".#	c #FFFDFC",
"+#	c #F9FEFF",
"@#	c #FFFEFB",
"##	c #878588",
"$#	c #6B6C71",
"%#	c #6E6E6E",
"&#	c #B9B8B6",
"*#	c #F4F8FF",
"=#	c #4188B4",
"-#	c #2D6FA1",
";#	c #2D7AA8",
">#	c #2073A7",
",#	c #2172A7",
"'#	c #7CA8C5",
")#	c #FFFAF2",
"!#	c #FFFBFE",
"~#	c #FFFEF6",
"{#	c #9AA2A5",
"]#	c #6C656C",
"^#	c #5E656B",
"/#	c #D0D4D7",
"(#	c #FFF5F4",
"_#	c #AAC9DD",
":#	c #2878A9",
"<#	c #2678A7",
"[#	c #2F73A2",
"}#	c #1F7AB3",
"|#	c #2678AA",
"1#	c #7DA2BF",
"2#	c #FFFFF4",
"3#	c #F9FFFF",
"4#	c #B7B7BF",
"5#	c #696864",
"6#	c #656D70",
"7#	c #E6E5E3",
"8#	c #FFFDF9",
"9#	c #FEFDFB",
"0#	c #FDFFFE",
"a#	c #FDFBFE",
"b#	c #3279A3",
"c#	c #2A77A1",
"d#	c #2679AF",
"e#	c #2373A8",
"f#	c #2971A3",
"g#	c #7099B5",
"h#	c #FBFCFF",
"i#	c #D0D1CB",
"j#	c #6A6967",
"k#	c #6C6B67",
"l#	c #FAF8F9",
"m#	c #85AEC4",
"n#	c #1F79AB",
"o#	c #2B71A5",
"p#	c #2B73A5",
"q#	c #2E72A1",
"r#	c #2F78A3",
"s#	c #FEFEFE",
"t#	c #E6E6E6",
"u#	c #7A7A7A",
"v#	c #89898B",
"w#	c #FCFEFB",
"x#	c #BED6E2",
"y#	c #4E84A6",
"z#	c #3882B1",
"A#	c #3E88B7",
"B#	c #3E81AB",
"C#	c #4285B0",
"D#	c #4983A9",
"                                                                ",
"                                                                ",
"                                                                ",
"                                                                ",
"                                                                ",
"    . + @ # $ % & * = - ; ; > % , ' ) ; ; ; ; ; ; ; ; ! ~ { ]   ",
"  ^ / ( _ : & < [ } | # 1 2 3 4 1 5 6 7 7 7 7 7 7 7 7 8 9 0 a b ",
"  c d e f g { h i j k l m n o p q r # s s s s s s s s g t % u v ",
"  w x y 6 z A B C D E F G H I s J K L x x x x x x x x ' M N O P ",
"  Q R S T U V W X Y Z `  ...+.@.#.$.7 7 7 7 7 7 7 7 7 %.&.*.6 =.",
"  -.S ;.>.,.'.).!.~.Z {.].^./.(._.:.S L L L L L L L L <.3 [.}.|.",
"  1.x 2.3.4.{.5.6.7.8.Z 9.7.0.a.b.s c.T d.e.f.g.h.f.i.j.k.l.m.n.",
"  1.x o.p.q.r.s.` t.{.u.].s.7.].v.w.x.q y.z.A.B.C.D.E.F.G.H.T I.",
"  1.x B J.K.].L.s.M.~.7.N.O.P.Q.R.S.r T.U.V.W.X.q c.Y.Z.`. +.+++",
"  1.x @+#+$+%+&+~.{.*+7.{.0.{.=+-+;+>+,+'+)+!+~+{+]+^+/+(+_+:+<+",
"  1.x [+}+|+1+2+Q.3+6.4+6.5+3+s.6+7+p 8+9+0+a+b+c+d+e+f+N g+@ h+",
"  1.x 7 i+j+s.k+7.l+t.6.3+!.m+n+o+p+A q+r+Z.s+l 2 U t+u+_.v+0 w+",
"  1.x l x+y+z+A+B+C+D+].].!.E+F+U G+S.H+I+%.J+f U r K+1 .+<.L+M+",
"  1.x N+| O+P+Q+R+4+6.S+T+U+V+W+g+R X+x ;.;.s 7 Y+N+< Z+`+;  @.@",
"  +@@@,.#@$@%@s+&@*@=@-@;@>@,@'@)@!@~@{@]@^@/@(@_@:@x.<@[@I+}@.@",
"  |@1@2@3@4@5@6@7@8@9@0@a@b@c@d@e@f@g@}+h@i@j@< w.k@`+f r l@m@n@",
"  -.o@t.` p@Z q@r@s@t@u@v@w@x@L.6.y@z@A@B@C@D@E@[.F@x G@p <@H@I@",
"  J@X K@L@Z T+K@M@N@O@P@Q@O.R@S@T@6.U@V@W@X@Y@% &.t+>+Z@L `@`+|.",
"   #.#&+6.3++#@#@###$#%#&#6.6.T+R@L.C+{.*#=#-#<@2.;#>## d /@,#'#",
"  )#{.~.X 1+!#~#+#{#]#^#/#^.7.%+6.~.~.{.(#_#u :#<#[#}#7 |#h @ 1#",
"  t.+#S+].*+2#~.3#4#5#6#7#].].6.8#~.9#0#~.a#b#:+c#p.d#e#:#f#G@g#",
"  h#s.3+3+%+3+&+N.i#j#k#l#3+%+U@C+3#3+{.3+S@m#n#o#Y.p#[.x.q#r#g#",
"    s#].].].].P.].t#u#v#].].4+].].].].{.L.w#x#y#z#A#B#C#D#g#g#  ",
"                                                                ",
"                                                                ",
"                                                                ",
"                                                                "};
