/* XPM */
static const char *globe_16x16_xpm[] = {
"16 16 9 1",
" 	c None",
".	c #888888",
"+	c #999999",
"@	c #777777",
"#	c #AAAAAA",
"$	c #DDDDDD",
"%	c #BBBBBB",
"&	c #EEEEEE",
"*	c #FFFFFF",
"                ",
"     $%%%%$     ",
"    %$*&*&$#    ",
"   %**$$&%&*+   ",
"  %*&&$%&%%%$+  ",
" $$*&$%%%%%%&$% ",
" %*&&%&%&%%%&&. ",
" %%%&&&&%%###$. ",
" ##&&&%%%#&&#&@ ",
" ##&&&%%#&&&#$@ ",
" $%&&&&%#&&&&$% ",
"  #*&&&&#&&&$@  ",
"   #$&&&&&&$@   ",
"    #$&$&$$@    ",
"     %..@@%     ",
"                "};
