/* XPM */
static const char * graph_pie_16x16_xpm[] = {
"16 16 48 1",
" 	c None",
".	c #333366",
"+	c #7B7BE7",
"@	c #187BD6",
"#	c #777777",
"$	c #ADADFF",
"%	c #7B73D6",
"&	c #A5A5E7",
"*	c #6666CC",
"=	c #313984",
"-	c #5AA5EF",
";	c #8484BD",
">	c #4A4AB5",
",	c #BDC6EF",
"'	c #8C94DE",
")	c #4A84D6",
"!	c #7BB5F7",
"~	c #3184DE",
"{	c #9999FF",
"]	c #C6CEF7",
"^	c #8C8CEF",
"/	c #A5A5FF",
"(	c #635A9C",
"_	c #333399",
":	c #6B6BD6",
"<	c #8484D6",
"[	c #3366CC",
"}	c #B5B5F7",
"|	c #31395A",
"1	c #5A5ABD",
"2	c #394273",
"3	c #8484E7",
"4	c #9494D6",
"5	c #CED6F7",
"6	c #398CDE",
"7	c #7B7BDE",
"8	c #A5ADFF",
"9	c #B5BDFF",
"0	c #297BD6",
"a	c #8C8CF7",
"b	c #C6C6F7",
"c	c #9CA5FF",
"d	c #8484EF",
"e	c #949CD6",
"f	c #7BBDF7",
"g	c #BDC6F7",
"h	c #ADB5FF",
"i	c #393984",
"                ",
"    [))*        ",
"  *@~0~* *<#    ",
" )66666* *<<<#  ",
"*)-----* *733;# ",
")!ffff!* 7^^aa# ",
"||||||| :^{{{{<.",
"|:::::::3{{{//<.",
" :7dd^^c//8$}h;.",
" )+ac{$$$}}9gg1.",
" *,d/889ggg]]4_.",
" )e]/8g]]55g&*.#",
"  #ebgg]]g&7*.# ",
"   #('444%%>.#  ",
"    ##2i=.|##   ",
"      #####     "};
