/* XPM */
static const char *graph_lines_16x16_xpm[] = {
"16 16 50 1",
" 	c None",
".	c #000000",
"+	c #22BA00",
"@	c #4B4646",
"#	c #FFFFFF",
"$	c #FAFAF9",
"%	c #F9F9F9",
"&	c #F9FAF9",
"*	c #FAFAFA",
"=	c #0022FF",
"-	c #F4F4F4",
";	c #EFEFEF",
">	c #EAEAEA",
",	c #E9E9E9",
"'	c #EAE9EA",
")	c #E9EAE9",
"!	c #E9EAEA",
"~	c #E4E5E4",
"{	c #E4E4E4",
"]	c #E4E4E5",
"^	c #E5E5E4",
"/	c #DFDFDF",
"(	c #DEDFDF",
"_	c #DFDEDF",
":	c #DADADA",
"<	c #DADAD9",
"[	c #DAD9DA",
"}	c #DAD9D9",
"|	c #D9DAD9",
"1	c #D9D9D9",
"2	c #D4D4D4",
"3	c #BA0000",
"4	c #D4D4D5",
"5	c #FFBA00",
"6	c #CFCFCF",
"7	c #CECFCF",
"8	c #CACAC9",
"9	c #C9CACA",
"0	c #C9CAC9",
"a	c #C9C9CA",
"b	c #CAC9C9",
"c	c #CAC9CA",
"d	c #C4C5C4",
"e	c #C4C4C5",
"f	c #B9BABA",
"g	c #BAB9B9",
"h	c #BAB9BA",
"i	c #B9BAB9",
"j	c #B9B9BA",
"k	c #B9B9B9",
".          +++  ",
".@########+++###",
".@$%&****+++*===",
".@-+++++++======",
".++++=+++====;;;",
".++>===,=='>)>!'",
".@~=={==={]{~^]{",
".@==//(=//_/////",
".==:<:[}[:|:[1[1",
".=22233333342244",
".555333333336667",
".553338890333abc",
".33335de55555555",
".333555555555555",
".@fghi555jkfj333",
".@@@@@@@@@@@@@@@"};
