/* XPM */
static const char * icon_xpm[] = {
"32 32 549 2",
"  	c None",
". 	c #628EBD",
"+ 	c #5A89BD",
"@ 	c #5E8EBC",
"# 	c #5B8EBB",
"$ 	c #5C8FBE",
"% 	c #5E8EBE",
"& 	c #5A8EBD",
"* 	c #5C8EBF",
"= 	c #588DBF",
"- 	c #6493BF",
"; 	c #306DAC",
"> 	c #1B61A6",
", 	c #2469AC",
"' 	c #2368AB",
") 	c #2367A8",
"! 	c #2468A9",
"~ 	c #2366AA",
"{ 	c #2768AA",
"] 	c #2467AB",
"^ 	c #2267AA",
"/ 	c #2164AA",
"( 	c #3974AE",
"_ 	c #87ABCD",
": 	c #2368A9",
"< 	c #3975B3",
"[ 	c #3272B0",
"} 	c #3171AE",
"| 	c #3C78B6",
"1 	c #3F7CB3",
"2 	c #3F7AB4",
"3 	c #3F7AB2",
"4 	c #4179B4",
"5 	c #3D7AB3",
"6 	c #2E6FAF",
"7 	c #3672B0",
"8 	c #3674B1",
"9 	c #2D6FAC",
"0 	c #84AACE",
"a 	c #86ABD5",
"b 	c #3472AF",
"c 	c #98BAD6",
"d 	c #E3ECF5",
"e 	c #E5ECF6",
"f 	c #E2EAF5",
"g 	c #E0EAF3",
"h 	c #E3ECF3",
"i 	c #DCE8F4",
"j 	c #94B5D6",
"k 	c #326FAE",
"l 	c #3674AF",
"m 	c #88ABD1",
"n 	c #276BAC",
"o 	c #2E6BAA",
"p 	c #4982B7",
"q 	c #D1E1EE",
"r 	c #FFFFFD",
"s 	c #FFFFFF",
"t 	c #DEE8F2",
"u 	c #3D78B2",
"v 	c #3472AB",
"w 	c #3171AF",
"x 	c #85ABCF",
"y 	c #8AACCF",
"z 	c #266DAB",
"A 	c #2D6FAB",
"B 	c #4A84B6",
"C 	c #D7E3EF",
"D 	c #FEFFFF",
"E 	c #FFFEFF",
"F 	c #FEFEFF",
"G 	c #DCE6EF",
"H 	c #3375AF",
"I 	c #3273AD",
"J 	c #88AFD0",
"K 	c #296DAA",
"L 	c #3370AF",
"M 	c #4D86BD",
"N 	c #D5E1EF",
"O 	c #FFFFFB",
"P 	c #FFFEFC",
"Q 	c #D9E6EF",
"R 	c #417EB5",
"S 	c #3773AF",
"T 	c #3674AD",
"U 	c #86ACD0",
"V 	c #8BAFD1",
"W 	c #2A6EAD",
"X 	c #2F71AE",
"Y 	c #4F89BB",
"Z 	c #D5E3EC",
"` 	c #DEE7EE",
" .	c #407EB7",
"..	c #3977B2",
"+.	c #3276B3",
"@.	c #87AECF",
"#.	c #8BADD2",
"$.	c #3474B1",
"%.	c #5085B7",
"&.	c #D6E4EF",
"*.	c #FEFEFC",
"=.	c #DEEBF4",
"-.	c #417EB4",
";.	c #3C77AF",
">.	c #3877AD",
",.	c #89B2D2",
"'.	c #2F70AA",
").	c #3979B6",
"!.	c #3D7BB4",
"~.	c #9EBDD9",
"{.	c #DAE4F0",
"].	c #D7E5EE",
"^.	c #D7E4ED",
"/.	c #D7E5F2",
"(.	c #D6E2EE",
"_.	c #98BAD5",
":.	c #3B78B1",
"<.	c #3E7BB4",
"[.	c #8EB0D3",
"}.	c #2E70AD",
"|.	c #3E79B1",
"1.	c #4380B7",
"2.	c #4780B5",
"3.	c #4580B8",
"4.	c #4682B8",
"5.	c #4881B6",
"6.	c #4581B5",
"7.	c #4481B8",
"8.	c #4681B9",
"9.	c #4781B3",
"0.	c #4881B8",
"a.	c #4682B6",
"b.	c #4581B7",
"c.	c #4583B6",
"d.	c #4582B9",
"e.	c #4780B7",
"f.	c #3777B4",
"g.	c #437BB4",
"h.	c #3F7CB5",
"i.	c #3A78B1",
"j.	c #8DB1D3",
"k.	c #427EB2",
"l.	c #2B71AD",
"m.	c #2E6EAC",
"n.	c #2E70AA",
"o.	c #3071AB",
"p.	c #2F6FAC",
"q.	c #2F6FAD",
"r.	c #2E70AC",
"s.	c #3C7BB1",
"t.	c #3B79B2",
"u.	c #3B7AB0",
"v.	c #3B7AAF",
"w.	c #3C7AB5",
"x.	c #3172AC",
"y.	c #3673AC",
"z.	c #3070AD",
"A.	c #2B6FAC",
"B.	c #3876AF",
"C.	c #437FB3",
"D.	c #427EB4",
"E.	c #3C79B2",
"F.	c #8FB1D4",
"G.	c #3472AD",
"H.	c #4480B6",
"I.	c #6A99C3",
"J.	c #7FA7CA",
"K.	c #7CA6CC",
"L.	c #7AA6CD",
"M.	c #7EA3CD",
"N.	c #7AA4CC",
"O.	c #7CA6CE",
"P.	c #76A0C6",
"Q.	c #4D82B4",
"R.	c #477EB6",
"S.	c #487FB5",
"T.	c #4880B3",
"U.	c #5F93C2",
"V.	c #7EA6CA",
"W.	c #81A9CD",
"X.	c #6093C2",
"Y.	c #407DB6",
"Z.	c #7DA4CB",
"`.	c #6596C1",
" +	c #427FB5",
".+	c #437FB5",
"++	c #8EB2D4",
"@+	c #90B3D1",
"#+	c #3677B1",
"$+	c #4079B0",
"%+	c #5488BA",
"&+	c #CCD9E9",
"*+	c #F6FBFF",
"=+	c #F8F7FC",
"-+	c #F4F9FF",
";+	c #F4F8F7",
">+	c #F4F9FC",
",+	c #F3F8FB",
"'+	c #ECF1F7",
")+	c #6B9AC4",
"!+	c #3D7CB2",
"~+	c #4783B7",
"{+	c #457EB3",
"]+	c #B5C9E2",
"^+	c #F9FAFE",
"/+	c #FCFBFF",
"(+	c #B9D0E2",
"_+	c #3D7AB1",
":+	c #ABC7DF",
"<+	c #F2F7FA",
"[+	c #F5F9FC",
"}+	c #CFDCEC",
"|+	c #427CAE",
"1+	c #8FB2D2",
"2+	c #3975B1",
"3+	c #5A8FC1",
"4+	c #FEFFFD",
"5+	c #7DA3C8",
"6+	c #4A83B8",
"7+	c #4A81B7",
"8+	c #4982B9",
"9+	c #417FB2",
"0+	c #CBDDEB",
"a+	c #FDFEFF",
"b+	c #D5E3EE",
"c+	c #437CB3",
"d+	c #C2D5E6",
"e+	c #F2F3F7",
"f+	c #4B84B9",
"g+	c #457EB5",
"h+	c #91B4D4",
"i+	c #3A77B0",
"j+	c #447DB4",
"k+	c #4E86B9",
"l+	c #A3C2DE",
"m+	c #CADBE5",
"n+	c #C8D9E9",
"o+	c #C9DCEA",
"p+	c #CCDCEC",
"q+	c #CADBEB",
"r+	c #CBD9E6",
"s+	c #B9D2E6",
"t+	c #5C90C0",
"u+	c #447FB9",
"v+	c #4A82B5",
"w+	c #4581B3",
"x+	c #86A9CF",
"y+	c #B2CAE4",
"z+	c #B3CBE3",
"A+	c #85A8CE",
"B+	c #7BA7CE",
"C+	c #AEC8E1",
"D+	c #B0CAE1",
"E+	c #91B4D2",
"F+	c #4981B4",
"G+	c #90B3D3",
"H+	c #92B5D5",
"I+	c #3879B1",
"J+	c #4F84B8",
"K+	c #4382B8",
"L+	c #4B85B7",
"M+	c #4B82B8",
"N+	c #528CBC",
"O+	c #4884B8",
"P+	c #4D84BC",
"Q+	c #417CB4",
"R+	c #4A86B8",
"S+	c #427DB5",
"T+	c #3E7CB7",
"U+	c #447BB4",
"V+	c #407DB4",
"W+	c #3E7BB1",
"X+	c #92B5D3",
"Y+	c #3B79B4",
"Z+	c #4782BA",
"`+	c #5085B9",
" @	c #9CBBD8",
".@	c #C1D7E5",
"+@	c #C2D4E8",
"@@	c #719EC8",
"#@	c #93B6D6",
"$@	c #BCD2E0",
"%@	c #BBD0E5",
"&@	c #83ABCF",
"*@	c #8FB3D3",
"=@	c #CEDBEB",
"-@	c #CADAEA",
";@	c #8DB0D0",
">@	c #3F7EB4",
",@	c #C4D7E8",
"'@	c #C6D9E8",
")@	c #7EA5CC",
"!@	c #BCD1E6",
"~@	c #C1D3E7",
"{@	c #9DBCD9",
"]@	c #4B83B6",
"^@	c #97B6D5",
"/@	c #3F7CB2",
"(@	c #5F92C1",
"_@	c #DCE6F0",
":@	c #ADC8DB",
"<@	c #E4EDF6",
"[@	c #FEFEFE",
"}@	c #C2D3E5",
"|@	c #CEDFE9",
"1@	c #C0D2E6",
"2@	c #4886B9",
"3@	c #BFD2E3",
"4@	c #CEDEEE",
"5@	c #BED1E2",
"6@	c #E6EDF3",
"7@	c #558ABC",
"8@	c #4B85B5",
"9@	c #4983B5",
"0@	c #94B5D4",
"a@	c #94B7D5",
"b@	c #3E7DB2",
"c@	c #4281B7",
"d@	c #5B90BC",
"e@	c #D4E2ED",
"f@	c #A2C0DC",
"g@	c #FDFDFF",
"h@	c #B3CCE2",
"i@	c #4480B4",
"j@	c #C1D6E7",
"k@	c #BCCEE4",
"l@	c #B3CEE1",
"m@	c #FFFDFE",
"n@	c #C7D8EA",
"o@	c #AEC6DE",
"p@	c #FDFDFB",
"q@	c #D9E5F1",
"r@	c #4F89B9",
"s@	c #4785B6",
"t@	c #407DB3",
"u@	c #5088B9",
"v@	c #4E86B7",
"w@	c #6194BF",
"x@	c #73A0C7",
"y@	c #6E9FC7",
"z@	c #548CBD",
"A@	c #4E88B8",
"B@	c #5E93BD",
"C@	c #709DC6",
"D@	c #588EBC",
"E@	c #4C88BC",
"F@	c #5891BE",
"G@	c #6E9EC6",
"H@	c #5E91C0",
"I@	c #4C84B5",
"J@	c #5C90BF",
"K@	c #6D9EC9",
"L@	c #74A1C8",
"M@	c #5D90BD",
"N@	c #4D87B9",
"O@	c #568EBF",
"P@	c #6D9DC5",
"Q@	c #739FC6",
"R@	c #6392BC",
"S@	c #95B6D5",
"T@	c #98B7D4",
"U@	c #4C85BA",
"V@	c #5489BB",
"W@	c #97B8D7",
"X@	c #C3D4E6",
"Y@	c #C0D3E4",
"Z@	c #76A2C7",
"`@	c #4B83B4",
" #	c #93B4D3",
".#	c #BDD4E6",
"+#	c #B9CFE4",
"@#	c #80A8CB",
"##	c #8AAECE",
"$#	c #84ACCF",
"%#	c #4482B3",
"&#	c #82A8CC",
"*#	c #BED3E8",
"=#	c #C0D6E4",
"-#	c #8CB0D0",
";#	c #4684B3",
">#	c #7DA5C9",
",#	c #B7D0E6",
"'#	c #BDD1E9",
")#	c #96B8D4",
"!#	c #95B7D3",
"~#	c #95B8D6",
"{#	c #4884B6",
"]#	c #DEE8F4",
"^#	c #AEC8DF",
"/#	c #4F87B8",
"(#	c #E6EEF9",
"_#	c #C5D6E8",
":#	c #CEDEED",
"<#	c #C8D5E6",
"[#	c #C2D5E4",
"}#	c #D2E0ED",
"|#	c #4D85B8",
"1#	c #E8EFF5",
"2#	c #588EBD",
"3#	c #4B87BD",
"4#	c #9BBAD6",
"5#	c #4D87B7",
"6#	c #5F94BE",
"7#	c #CFDDEA",
"8#	c #F3F6FB",
"9#	c #F2F5FA",
"0#	c #A1BEDC",
"a#	c #D3E1EC",
"b#	c #F4F8FB",
"c#	c #F1F5F8",
"d#	c #B5CBE3",
"e#	c #C1D4E5",
"f#	c #F3F7FA",
"g#	c #F1F6F9",
"h#	c #B7CDE2",
"i#	c #4C88BA",
"j#	c #B2CDE0",
"k#	c #F4F5F9",
"l#	c #4D86BB",
"m#	c #F1F4F9",
"n#	c #D3E3F0",
"o#	c #588DB9",
"p#	c #4F87B6",
"q#	c #5088B7",
"r#	c #97B9D5",
"s#	c #9EBDDA",
"t#	c #5C92BE",
"u#	c #5C92C0",
"v#	c #84AFD1",
"w#	c #9EC0DB",
"x#	c #9FBFD8",
"y#	c #729FC9",
"z#	c #588EBA",
"A#	c #80ABCD",
"B#	c #9DBFDA",
"C#	c #9CBBD7",
"D#	c #77A3CA",
"E#	c #598DBC",
"F#	c #7CA9CA",
"G#	c #A1C1D8",
"H#	c #7BA7CA",
"I#	c #578DBC",
"J#	c #78A4C9",
"K#	c #9FBDD7",
"L#	c #A1C1DA",
"M#	c #7DA8CB",
"N#	c #99BCD8",
"O#	c #9CBED9",
"P#	c #86AFCF",
"Q#	c #5B91BF",
"R#	c #568FBC",
"S#	c #9ABCD7",
"T#	c #4E8ABC",
"U#	c #548EBC",
"V#	c #6B9BC3",
"W#	c #E1EAF3",
"X#	c #B1CCE1",
"Y#	c #598FBD",
"Z#	c #E2ECF6",
"`#	c #C2D7E8",
" $	c #D0E0EF",
".$	c #C4D7E6",
"+$	c #578FBE",
"@$	c #D3E1EE",
"#$	c #BFD5E3",
"$$	c #5F96BF",
"%$	c #5691BD",
"&$	c #9BBDD8",
"*$	c #548FBB",
"=$	c #E1E9F4",
"-$	c #B1CBDC",
";$	c #5790BB",
">$	c #D3DFED",
",$	c #C8DAE8",
"'$	c #C2D8E6",
")$	c #D5E1ED",
"!$	c #BED3E4",
"~$	c #E7F0F7",
"{$	c #6198C1",
"]$	c #5B92BB",
"^$	c #5A90BE",
"/$	c #9CBED7",
"($	c #A0C0D9",
"_$	c #548DBA",
":$	c #5E95BE",
"<$	c #6297C1",
"[$	c #A3C1D9",
"}$	c #77A3C8",
"|$	c #88B1CF",
"1$	c #A0BED6",
"2$	c #7DA9CC",
"3$	c #5A93C0",
"4$	c #83ACCC",
"5$	c #A3C3DA",
"6$	c #A2C2DB",
"7$	c #83ABCE",
"8$	c #578FC0",
"9$	c #7EA9CC",
"0$	c #A5C1D9",
"a$	c #A4C4DB",
"b$	c #7AA6CB",
"c$	c #A0C0D7",
"d$	c #A1BFD9",
"e$	c #8CB1CE",
"f$	c #6094BC",
"g$	c #5C91BD",
"h$	c #568CBA",
"i$	c #6399BF",
"j$	c #6196C0",
"k$	c #5E92C1",
"l$	c #5F93BB",
"m$	c #5E94C2",
"n$	c #6398C0",
"o$	c #5D92BC",
"p$	c #5D93BF",
"q$	c #5D92BE",
"r$	c #6396C3",
"s$	c #5E93BF",
"t$	c #6396C1",
"u$	c #5B91BD",
"v$	c #6397BF",
"w$	c #5F92BD",
"x$	c #5C93BC",
"y$	c #5B94C1",
"z$	c #6097C0",
"A$	c #9DBFD8",
"B$	c #A8C6DE",
"C$	c #508ABA",
"D$	c #6996BF",
"E$	c #6398C4",
"F$	c #6495BD",
"G$	c #6497C2",
"H$	c #6498C0",
"I$	c #6697C2",
"J$	c #6295C0",
"K$	c #5F8FBD",
"L$	c #A7C3DB",
"M$	c #72A2C6",
"N$	c #4F8CBB",
"O$	c #5994C0",
"P$	c #5891BC",
"Q$	c #5C91B9",
"R$	c #5892C0",
"S$	c #76A3CC",
"T$	c #ADC6DA",
"U$	c #9CBEDA",
"V$	c #9FBFD6",
"W$	c #9EBED7",
"X$	c #B0CADB",
"    . + @ # $ % % % % % % % % % % % % % % % % & # & * @ = -     ",
"  ; > , ' ) ! ! ! ! ! ! ! ! ! ! ! ! ! ! ! ! ! ~ { ) ] ! ^ / (   ",
"_ : < [ } | 1 2 2 2 2 2 2 2 2 2 2 2 2 2 2 2 2 3 4 1 5 6 7 8 9 0 ",
"a ! b b c d e f f f f f f f f f f f f f f f f g f h i j k l 6 0 ",
"m n o p q r s s s s s s s s s s s s s s s s s r s s r t u v w x ",
"y z A B C s D s s s s s s s s s s s s s s s s E F s D G 3 H I x ",
"J K L M N s O s s s s s s s s s s s s s s s s r D P s Q R S T U ",
"V W X Y Z s s s s s s s s s s s s s s s s s s r s r E `  ...+.@.",
"#.A $.%.&.*.s s s s s s s s s s s s s s s s s D E s s =.-.;.>.J ",
",.'.).!.~.{.].C C C C C C C C C C C C C C C C ^.&./.(._.:.<...J ",
"[.}.R <.|.1.2.3.4.5.6.4.7.8.9.0.a.3.3.2.a.b.4.c.d.2.e.f.g.h.i.V ",
"j.w 1.k.l l.m.n.o.p.q.r...s.t.u.v.s.w.x.9 }.I w.y.z.A.B.C.D.E.j.",
"F.G.H.H.I.J.K.L.M.N.O.P.Q.R.S.e.T.S.D.U.V.W.X.Y.$ Z.Z.`. +.+1 ++",
"@+#+$+%+&+*+=+-+;+>+,+'+)+!+~+p c.D.{+]+^+/+(+_+:+<+[+}+p -.|+1+",
"@+2+5 3+e 4+s E s s r E 5+;.6+7+8+9+6.0+a+r b+c+d+r r e+f+g+D.1+",
"h+i+j+k+l+m+n+o+p+q+r+s+t+u+v+w+5.2.3.x+y+z+A+Y.B+C+D+E+4.F+D.G+",
"H+I+J+8+K+L+M+k+N+O+P+8+Q+R+.+S+T+S+O+U+V+D.1 6+V+S+D.W+~+f+.+h+",
"X+Y+Z+`+ @.@+@@@_+#@$@%@&@H.*@=@-@;@>@x ,@'@++H.)@!@~@{@f+]@0.H+",
"^@/@.+(@_@E s :@6+<@[@4+}@5.|@s [@1@2@3@s r 4@O+5@s D 6@7@8@9@0@",
"a@b@c@d@e@s r f@9@e@r g@h@i@j@s r k@i@l@r m@n@e.o@p@D q@r@L+s@0@",
"#@t@u@v@w@x@y@z@A@B@y@C@D@E@F@x@G@H@I@J@K@L@M@N@O@P@Q@R@A@A@s@S@",
"T@t@U@V@W@X@Y@Z@`@ #.#+#@#B ##j@Y@$#%#&#*#=#-#;#>#,#'#)#v@A@8@!#",
"~# +{#`.]#F s ^#/#(#s D _#v@:#E D <#v@[#s s }#|#3@D D 1#2#A@3#)#",
"4#6.5#6#7#8#9#0#A@a#b#c#d#5#e#f#g#h#i#j#k#<+[#l#D+m#<+n#o#p#q#r#",
"s#A@t#u#v#w#x#y#z#A#B#C#D#E#F#G#B#H#I#J#K#L#M#D@L@N#O#P#J@Q#R#S#",
"~.T#U#V#W#r s X#Y#Z#E s `#R# $[@s .$+$=#s F @$O@#$s s 1#$$Q#%$&$",
"x#r@*$P@=$s D -$# <@s r .$;$>$D s ,$Y#'$s D )$+$!$s s ~${$]$^$/$",
"($_$:$<$j.[$[$}$t#|$($1$2$3$4$5$6$7$8$9$0$a$4$u#b$c$d$e$w@f$g$/$",
"O#h$i$j$k$l$u#m$n$o$p$q$t#r$s$o$u#s$t$f$t#u$U.v$w$q$x$y$z$w@t#A$",
"B$C$r$D$E$F$r$G$G$t$t$t$t$G$G$v$v$v$H$v$v$v$v$H$I$J$<$t$G$J$K$L$",
"  M$N$u$u$x$O$u$u$u$u$u$u$u$u$u$u$u$u$u$u$u$u$P$Q#u$Q$q$R$_$S$  ",
"    T${@U$1$x#A$A$A$A$A$A$A$A$x#x#x#x#x#x#x#x#V$B#B#W$W$B#X$    "};
