/* XPM */
static const char * image_16x16_xpm[] = {
"16 16 113 2",
"  	c None",
". 	c #20592E",
"+ 	c #255531",
"@ 	c #266430",
"# 	c #1C414F",
"$ 	c #285063",
"% 	c #285667",
"& 	c #2E6E6D",
"* 	c #31656D",
"= 	c #316D71",
"- 	c #3B7964",
"; 	c #426C64",
"> 	c #28649A",
", 	c #2D6E96",
"' 	c #37769D",
") 	c #417BA0",
"! 	c #497FA2",
"~ 	c #408056",
"{ 	c #4A805A",
"] 	c #4C8862",
"^ 	c #428075",
"/ 	c #4C8B70",
"( 	c #479175",
"_ 	c #3983C1",
": 	c #3385D7",
"< 	c #3786D1",
"[ 	c #3787D7",
"} 	c #3486D8",
"| 	c #3D87D7",
"1 	c #3989D7",
"2 	c #3D8CD7",
"3 	c #5C878D",
"4 	c #4B80A2",
"5 	c #5381A3",
"6 	c #5483A2",
"7 	c #5484A5",
"8 	c #56A584",
"9 	c #55A692",
"0 	c #6C91AB",
"a 	c #7495AC",
"b 	c #7D9CB4",
"c 	c #6AA482",
"d 	c #69AC83",
"e 	c #72A28D",
"f 	c #75A294",
"g 	c #71B0AE",
"h 	c #4289C2",
"i 	c #4D91D9",
"j 	c #5896D1",
"k 	c #5BADFF",
"l 	c #639CD6",
"m 	c #6DAFCC",
"n 	c #70A4DA",
"o 	c #76A9DE",
"p 	c #73B0D7",
"q 	c #62B4FF",
"r 	c #64B5FF",
"s 	c #7FB2E6",
"t 	c #72BDFF",
"u 	c #74C0FF",
"v 	c #77D7FF",
"w 	c #999999",
"x 	c #9D9D9D",
"y 	c #82BFBD",
"z 	c #A1A1A1",
"A 	c #A5A5A5",
"B 	c #AAAAAA",
"C 	c #ADADAD",
"D 	c #B1B1B1",
"E 	c #81B9D7",
"F 	c #91BDC5",
"G 	c #8CBBEC",
"H 	c #88C0D7",
"I 	c #88C1D9",
"J 	c #9CC6CF",
"K 	c #9DCAD7",
"L 	c #9BCCD8",
"M 	c #8FD0FF",
"N 	c #9CCEFF",
"O 	c #97D6FF",
"P 	c #A4C8D8",
"Q 	c #BBC4D8",
"R 	c #B0CEF5",
"S 	c #B4DFFF",
"T 	c #B1E0FF",
"U 	c #B9EFFF",
"V 	c #C1D8D6",
"W 	c #D2D9DC",
"X 	c #C5DCFF",
"Y 	c #CAE5E5",
"Z 	c #C2F1FF",
"` 	c #C4F2FF",
" .	c #C4F6FF",
"..	c #C3FBFF",
"+.	c #CCF4FF",
"@.	c #D3E8EC",
"#.	c #D3FBFF",
"$.	c #D2FFFF",
"%.	c #D6F8FF",
"&.	c #D5FDFF",
"*.	c #D9FFFF",
"=.	c #DDFFFF",
"-.	c #E0DFD9",
";.	c #EBEBEB",
">.	c #EEEEEE",
",.	c #E1FEFF",
"'.	c #E4F9FF",
").	c #E9FFFF",
"!.	c #EEFFFF",
"~.	c #F2F2F2",
"{.	c #F6F6F6",
"].	c #F9F9F9",
"^.	c #FEFEFE",
"                                ",
"D D D D D D D D D D D D D D D D ",
"D ^.^.^.^.^.^.^.^.^.^.^.^.^.^.D ",
"D ^.< } [ 1 2 : | p K H L J ^.D ",
"D ^.i u q k t r O ..!.).v I ^.D ",
"C ^.P ,.,.T S N M U ,.%.` E ^.C ",
"C ].Y $.!.^.#.+.Z  .&.&.^.V ].C ",
"B ].3 f =.).&.&.^.!.*.*.*.V ].B ",
"A {.; { c F '.^.!.).!.^.^.W {.A ",
"A ~.+ . @ ~ ] d 8 g m y @.-.~.A ",
"z ~.# % $ * = & ^ - / ( 9 e ~.z ",
"x >.> _ h j l n o s G R X Q >.x ",
"x >., ' ) ! 4 7 5 6 0 b b a >.x ",
"w ;.;.;.;.;.;.;.;.;.;.;.;.;.;.w ",
"w w w w w w w w w w w w w w w w ",
"                                "};
