/* XPM */
static const char *invoice_import_16x16_xpm[] = {
"16 16 78 1",
" 	c None",
".	c #6398CC",
"+	c #5A92CA",
"@	c #5992CA",
"#	c #5993CA",
"$	c #5992CB",
"%	c #5991C9",
"&	c #FAFBFB",
"*	c #7DB2E2",
"=	c #4A81C3",
"-	c #6397CA",
";	c #C7E0FA",
">	c #C9E1FB",
",	c #C9E2FB",
"'	c #C8E0FB",
")	c #C5DFF9",
"!	c #C1DBF8",
"~	c #B8D6F4",
"{	c #7DB0E1",
"]	c #5790C8",
"^	c #6CA54B",
"/	c #84B6E2",
"(	c #558FC8",
"_	c #88C062",
":	c #5088C6",
"<	c #548EC8",
"[	c #D7E7FE",
"}	c #D6E7FD",
"|	c #D5E7FD",
"1	c #D4E6FD",
"2	c #D2E6FC",
"3	c #CCE1FB",
"4	c #C7DFFA",
"5	c #C2DCF8",
"6	c #BDDAF6",
"7	c #BBD8F6",
"8	c #5089C8",
"9	c #538EC8",
"0	c #D8E8FE",
"a	c #D7E8FE",
"b	c #4F88C8",
"c	c #518AC8",
"d	c #D6E8FE",
"e	c #D3E5FD",
"f	c #D0E4FB",
"g	c #CCE3FB",
"h	c #2B9017",
"i	c #4177C1",
"j	c #4F88C7",
"k	c #D6E7FE",
"l	c #82E84E",
"m	c #4A83C7",
"n	c #4C86C7",
"o	c #D5E5FE",
"p	c #D3E5FC",
"q	c #D1E4FC",
"r	c #86ED52",
"s	c #89F153",
"t	c #4A83C6",
"u	c #80E449",
"v	c #80E64D",
"w	c #84EA51",
"x	c #477FC3",
"y	c #32901B",
"z	c #7EE44B",
"A	c #467AC2",
"B	c #F8D0D0",
"C	c #299017",
"D	c #7AE047",
"E	c #7CE448",
"F	c #3E70BD",
"G	c #279015",
"H	c #78DE45",
"I	c #7AE246",
"J	c #4A78C1",
"K	c #3B6EBD",
"L	c #3B6DBD",
"M	c #3A6DBC",
"  ..+@@#$%..    ",
" .&&&&&&&&&*=   ",
" -&;>,')!~&{{=  ",
" ]&^^^^^^^&{{/= ",
" (&^______&&&&= ",
" (&^^^^^^^^^^&: ",
" <&[}|1234567&8 ",
" 9&0{a{{{{{{5&b ",
" c&da}}|efghhiii",
" j&k{}{{{{hllhm ",
" n&oeepiqhlrslh ",
" t&o{e{{hluvwllh",
" x&oeepphhyzlhhh",
" A&oeeppqBCDEhF ",
" F&&&&&&&&GHIhF ",
"  FJKKKLLMhhhh  "};
