/* XPM */
static const char * invoice_16x16_xpm[] = {
"17 16 74 1",
" 	c None",
".	c #6398CC",
"+	c #5A92CA",
"@	c #5992CA",
"#	c #5993CA",
"$	c #5992CB",
"%	c #5991C9",
"&	c #FAFBFB",
"*	c #7DB2E2",
"=	c #4A81C3",
"-	c #6397CA",
";	c #C7E0FA",
">	c #C9E1FB",
",	c #C9E2FB",
"'	c #C8E0FB",
")	c #C5DFF9",
"!	c #C1DBF8",
"~	c #B8D6F4",
"{	c #7DB0E1",
"]	c #5790C8",
"^	c #6CA54B",
"/	c #84B6E2",
"(	c #558FC8",
"_	c #88C062",
":	c #5088C6",
"<	c #548EC8",
"[	c #D7E7FE",
"}	c #D6E7FD",
"|	c #D5E7FD",
"1	c #D4E6FD",
"2	c #D2E6FC",
"3	c #CCE1FB",
"4	c #C7DFFA",
"5	c #C2DCF8",
"6	c #BDDAF6",
"7	c #BBD8F6",
"8	c #5089C8",
"9	c #538EC8",
"0	c #D8E8FE",
"a	c #D7E8FE",
"b	c #4F88C8",
"c	c #518AC8",
"d	c #D6E8FE",
"e	c #D3E5FD",
"f	c #D0E4FB",
"g	c #CCE3FB",
"h	c #C6DFFA",
"i	c #4177C1",
"j	c #4F88C7",
"k	c #D6E7FE",
"l	c #4A83C7",
"m	c #4C86C7",
"n	c #D5E5FE",
"o	c #D3E5FC",
"p	c #D1E4FC",
"q	c #CEE2FC",
"r	c #C8E1FB",
"s	c #467DC3",
"t	c #4A83C6",
"u	c #477FC3",
"v	c #CCE2FC",
"w	c #C9E0FB",
"x	c #F4F7FB",
"y	c #3C6FBE",
"z	c #467AC2",
"A	c #F8D0D0",
"B	c #F8FBFD",
"C	c #3E70BD",
"D	c #4A78C1",
"E	c #3B6EBD",
"F	c #3B6DBD",
"G	c #3A6DBC",
"H	c #3A6CBC",
"I	c #4474BE",
"   ..+@@#$%..    ",
"  .&&&&&&&&&*=   ",
"  -&;>,')!~&{{=  ",
"  ]&^^^^^^^&{{/= ",
"  (&^______&&&&= ",
"  (&^^^^^^^^^^&: ",
"  <&[}|1234567&8 ",
"  9&0{a{{{{{{5&b ",
"  c&da}}|efg4hiii",
"  j&k{}{{{{{{i&l ",
"  m&neeoipqiir&s ",
"  t&n{e{{iii{r&i ",
"  u&neeoopivwrxy ",
"  z&neeoopAAArBC ",
"  C&&&&&&&&&&&&C ",
"   CDEEEFFGGHIC  "};
