/* XPM */
static const char *modules_16x16_xpm[] = {
"17 16 132 2",
"  	c None",
". 	c #243043",
"+ 	c #253455",
"@ 	c #253556",
"# 	c #263658",
"$ 	c #29374B",
"% 	c #2A3B5D",
"& 	c #2F4163",
"* 	c #334669",
"= 	c #374964",
"- 	c #384965",
"; 	c #384C6E",
"> 	c #3B506F",
", 	c #3D516F",
"' 	c #3D5170",
") 	c #445A7B",
"! 	c #405C98",
"~ 	c #425F98",
"{ 	c #45629D",
"] 	c #B33D3D",
"^ 	c #45639F",
"/ 	c #4F688E",
"( 	c #4F688F",
"_ 	c #4C6CA9",
": 	c #556B97",
"< 	c #4C6CAD",
"[ 	c #516CA4",
"} 	c #576C96",
"| 	c #4D6DAC",
"1 	c #5171B0",
"2 	c #5172B1",
"3 	c #5272B1",
"4 	c #5E739D",
"5 	c #5574B2",
"6 	c #5975A7",
"7 	c #5476B4",
"8 	c #5D76A6",
"9 	c #5F77A9",
"0 	c #5A79B5",
"a 	c #637AA4",
"b 	c #5C7BB6",
"c 	c #5F7CAC",
"d 	c #5D7CB6",
"e 	c #617FAE",
"f 	c #607EB8",
"g 	c #617EB7",
"h 	c #617EB8",
"i 	c #687EA9",
"j 	c #5D80BF",
"k 	c #657FB0",
"l 	c #13BE43",
"m 	c #6583B0",
"n 	c #6582BA",
"o 	c #6884B2",
"p 	c #6885BB",
"q 	c #6985BB",
"r 	c #6985BC",
"s 	c #6A86BC",
"t 	c #6489C5",
"u 	c #7088B3",
"v 	c #7388B3",
"w 	c #7988A7",
"x 	c #7A89A7",
"y 	c #728BB5",
"z 	c #7B8AA8",
"A 	c #728CC0",
"B 	c #6A8FC6",
"C 	c #6D8FC5",
"D 	c #6E90C7",
"E 	c #7692A8",
"F 	c #758EC1",
"G 	c #7791BE",
"H 	c #7992BD",
"I 	c #B18086",
"J 	c #7992C3",
"K 	c #7A92C3",
"L 	c #7B93C4",
"M 	c #8A94A9",
"N 	c #8795AF",
"O 	c #7E97C2",
"P 	c #7F96C5",
"Q 	c #8097C5",
"R 	c #7F98C3",
"S 	c #8198C6",
"T 	c #839CCA",
"U 	c #859FC7",
"V 	c #93A1BC",
"W 	c #99A3B6",
"X 	c #62CC80",
"Y 	c #9EA6B7",
"Z 	c #97A8C5",
"` 	c #E49C35",
" .	c #9FA7B7",
"..	c #7BC395",
"+.	c #C2A47D",
"@.	c #9FAFCE",
"#.	c #ABB2BF",
"$.	c #AAB3C0",
"%.	c #9DC0C7",
"&.	c #C2B6BC",
"*.	c #AFBDD3",
"=.	c #B7BDC8",
"-.	c #B6C2DB",
";.	c #C6C3C1",
">.	c #B9C6DF",
",.	c #C4C8CE",
"'.	c #E7BBBB",
").	c #BCCAE4",
"!.	c #A5E4B6",
"~.	c #C0CEE8",
"{.	c #C5CEE0",
"].	c #BDD2E5",
"^.	c #B4DFC6",
"/.	c #C3D2EB",
"(.	c #BAE8C6",
"_.	c #D8D8D8",
":.	c #E5E4E2",
"<.	c #F6E4CC",
"[.	c #E0F0E4",
"}.	c #EAEAEA",
"|.	c #E9EBF0",
"1.	c #E9ECF0",
"2.	c #ECEDED",
"3.	c #EBEDF2",
"4.	c #EBEEF3",
"5.	c #EEEEEE",
"6.	c #ECEFF3",
"7.	c #F0F0F0",
"8.	c #F1F1F1",
"9.	c #F0F5F1",
"0.	c #F5F5F5",
"a.	c #F6F6F6",
"                                  ",
"        < F K K K K K K K $ $ $   ",
"        | b n s q q p q s d 5 @   ",
"        k 0.0.0.0.0.0.0.0.0.0.%   ",
"{ r L L L K Q P S $ $ $ a.a.a.&   ",
"~ 1 3 h h h f g h 3 2 @ a.a.a.*   ",
"! 0.0.0.0.0.0.0.0.0.0.% a.a.0.;   ",
"^ 8.T 8.;.;.;.;.;.0.0.& 9.(.a.>   ",
"_ 5.$.5.;.;.;.;.;.0.0.* [.l a.'   ",
"7 0.<.0.;.a.a.a.;.a.a.; a.a.a.,   ",
"j 7.` 7.;.a.a.a.;.a.a.> ( ( / ,   ",
"t 0.:.0.;.a.a.a.;.a.a.'           ",
"B a.'.a.;.;.;.;.;.!.^.,           ",
"D 2.] 2.a.a.a.a.a.X ..,           ",
"2 2 2 2 2 2 2 2 2 2 2 ,           ",
"                                  "};
