/* XPM */
static const char * network_16x16_xpm[] = {
"16 16 48 1",
" 	c None",
".	c #010000",
"+	c #7A7D85",
"@	c #9D6A31",
"#	c #BDBDBD",
"$	c #D9C653",
"%	c #B79242",
"&	c #FBFA65",
"*	c #FFE934",
"=	c #FFE634",
"-	c #A17C43",
";	c #E4E4E5",
">	c #C6A545",
",	c #D4D7DE",
"'	c #D6C7A4",
")	c #D5D5D5",
"!	c #E1C843",
"~	c #B28C42",
"{	c #FFFA5A",
"]	c #CB9A1C",
"^	c #B7B8C2",
"/	c #EAB808",
"(	c #DECD56",
"_	c #B17E27",
":	c #F5C305",
"<	c #DCDCDC",
"[	c #D4B23E",
"}	c #B6AA93",
"|	c #BBB6AC",
"1	c #FCCB02",
"2	c #CDCDCD",
"3	c #C4C4C4",
"4	c #EBC41B",
"5	c #AE823A",
"6	c #BBBCBE",
"7	c #CEA329",
"8	c #F8F9FB",
"9	c #A79E84",
"0	c #C69A29",
"a	c #EDEFF4",
"b	c #B89342",
"c	c #E9DE5C",
"d	c #BBA86B",
"e	c #B4B4B4",
"f	c #D3B949",
"g	c #EDE6D9",
"h	c #E7E7E7",
"i	c #A2A5AA",
"                ",
"                ",
"       +++      ",
"      +3)<+     ",
"      +###+     ",
"      +a;#+     ",
"      -h;|-     ",
"     @-![0_@    ",
" +++]/>c!7]1:++ ",
"+2#,d4**==**='6+",
"+;#8'f&{&&&&{g,+",
"+)e^9>($$$$$$}i+",
" +++5~%%%%%b~++ ",
"    @@@@@@@@@   ",
"                ",
"                "};
