/* XPM */
static const char *network_offline_16x16_xpm[] = {
"16 16 30 1",
" 	c None",
".	c #82847F",
"+	c #C8C8C7",
"@	c #EDEDED",
"#	c #D6D6D6",
"$	c #364878",
"%	c #F0F0F0",
"&	c #EEEEEE",
"*	c #7284A6",
"=	c #7284A5",
"-	c #7C858F",
";	c #5D729A",
">	c #536993",
",	c #465E8B",
"'	c #496290",
")	c #7587A8",
"!	c #C97878",
"~	c #A40000",
"{	c #982C2A",
"]	c #49638F",
"^	c #CC0000",
"/	c #FFFFFF",
"(	c #DA4747",
"_	c #DE5B5B",
":	c #FDF6F6",
"<	c #F3F3F3",
"[	c #EBEBEB",
"}	c #FCF2F2",
"|	c #D9D9D9",
"1	c #886965",
"      ..........",
"      .+@@@@@@#.",
"      .@$$$$$$%.",
"      .&$*=**$&.",
".........-;>,$&.",
".+@@@@@@#.'''$@.",
".@$$$$$$%.$$$$@.",
".&$*=**$&.@@@@#.",
".&$);>,$!~~~~~~{",
".&$]'''$~^^^^^^~",
".@$$$$$$~^/((/^~",
".#@@@@@@~^_//_^~",
"........~^_:/_^~",
".<[[[[[[~^}__/^~",
".|||||||~^^^^^^~",
"........1~~~~~~ "};
