/* XPM */
static const char * new_16x16_xpm[] = {
"16 16 34 1",
" 	c None",
".	c #88ABDE",
"+	c #84A3D6",
"@	c #666666",
"#	c #F7FFFF",
"$	c #F0F6FE",
"%	c #CCD5FF",
"&	c #AAB3F5",
"*	c #E5F0FE",
"=	c #F7FAFF",
"-	c #EAF3FE",
";	c #E0EEFD",
">	c #DBEAFC",
",	c #CFE4FC",
"'	c #D6E7FD",
")	c #C4DEFB",
"!	c #809CCF",
"~	c #BFDBFA",
"{	c #7C95C8",
"]	c #538C28",
"^	c #798FC2",
"/	c #BBD8FA",
"(	c #87BA60",
"_	c #FFFFFF",
":	c #578F2D",
"<	c #7588BB",
"[	c #7282B5",
"}	c #CBE1FC",
"|	c #B5D5FA",
"1	c #6E7BAE",
"2	c #9DADD9",
"3	c #9AA8D6",
"4	c #99A1CC",
"5	c #9599C4",
".......+.@      ",
".####$$$%&@     ",
".###$$$*%%&@    ",
".==$$--;%%%&@   ",
".$$$-**;>>>&@   ",
".$--**;>>>,&@   ",
".--*;;>'',,&@   ",
"+;;>>>,,,))&@   ",
"!>>>>,,,))~&@   ",
"{''',,,)))]]]]] ",
"^'',,)))/]](_(:]",
"<,,,)))//]((_((]",
"[}}))~~~|]_____]",
"123334455]((_((]",
" @@@@@@@@]](_(]]",
"          ]]]]] "};
