/* XPM */
static const char * nota_fiscal_32x32_xpm[] = {
"32 32 45 1",
" 	c None",
".	c #538EC8",
"+	c #FAFBFB",
"@	c #D2E5FD",
"#	c #6CA54B",
"$	c #4A83C6",
"%	c #467AC2",
"&	c #3E70BD",
"*	c #D3E5FD",
"=	c #D5E6FD",
"-	c #D3E6FD",
";	c #D4E6FC",
">	c #D6E6FD",
",	c #DCE9FC",
"'	c #D6E7FC",
")	c #DDEAFB",
"!	c #DFEBFA",
"~	c #D4E6FD",
"{	c #DEEAFB",
"]	c #DFEAFB",
"^	c #E0ECFB",
"/	c #E3ECFA",
"(	c #D4E5FD",
"_	c #D8E7FC",
":	c #D9E8FC",
"<	c #DAE8FB",
"[	c #DEEBFB",
"}	c #E0EBFA",
"|	c #E1ECFA",
"1	c #E3EDFA",
"2	c #E4EDFA",
"3	c #D6E7FD",
"4	c #D7E7FC",
"5	c #DAE8FC",
"6	c #DBEAFB",
"7	c #DDEAFC",
"8	c #E0EBFB",
"9	c #E1ECFB",
"0	c #E2ECFA",
"a	c #E6EEF9",
"b	c #DAE9FC",
"c	c #E2ECFB",
"d	c #E4EEF9",
"e	c #E6EEFA",
"f	c #E8EFF9",
"     ................           ",
"    ..................          ",
"   ..++++++++++++++++..         ",
"   ..+@@@@@@@@@@@@@@@...        ",
"   ..+@@@@@@@@@@@@@@@..+.       ",
"   ..+###############..++.      ",
"   $$+###############......     ",
"   $$+##@@@@@@@@@@@@@@......    ",
"   $$+##@@@@@@@@@@@@@@@@##+$$   ",
"   $$+####################+$$   ",
"   $$+####################+$$   ",
"   $$+@@@@@@@@@@@@@@@@@@@@+$$   ",
"   %%+@@@@@@@@@@@@@@@@@@@@+$$   ",
"   %%+@&@@&&&&&&&&&&&&&&&@+$$   ",
"   %%+@@@@@@@@@@@@@@@@@@@@+$$   ",
"   %%+@&@@&&&&&&&&&&&&&&&@+$&&& ",
"   %%+@@@@@@@@@@@@@@@@@@@*+&&&  ",
"   %%+@&@@&&&&&&&&&&&&&&&=&&&   ",
"   &&+@@@@@@@@@@@@@@@@@-=&&&$   ",
"   &&+@&@@&&&&&&&&&&&&&&&&&$$   ",
"   &&+@@@@@@@@&@@@@@@;>&&&+$$   ",
"   &&+@&@@&&&&&&&&&&&&&&&,+$$   ",
"   &&+@@@@@@@@@&&&*='&&&))+&&   ",
"   &&+@&@@&&&&&&&&&&&&&&&!+&&   ",
"   &&+@@@@@@@@@@~&&&&&{{]^+&&   ",
"   &&+@&@@&&&&&&&&&&&&&&&/+&&   ",
"   &&+@@@@@@@@('_:<&[[}|12+&&   ",
"   &&+@@@@@@(=34:567{8902a+&&   ",
"   &&+@@@@@-='_:b,{]^c2def+&&   ",
"   &&++++++++++++++++++++++&&   ",
"    &&&&&&&&&&&&&&&&&&&&&&&&    ",
"     &&&&&&&&&&&&&&&&&&&&&&     "};
