/* XPM */
static const char * notes_16x16_xpm[] = {
"16 16 33 1",
" 	c None",
".	c #000000",
"+	c #CCCCCC",
"@	c #848283",
"#	c #706E6F",
"$	c #E4E4E4",
"%	c #FFCC00",
"&	c #464646",
"*	c #DFDEDE",
"=	c #CC3300",
"-	c #333333",
";	c #FFCC99",
">	c #999999",
",	c #663300",
"'	c #F7F7F7",
")	c #CC6699",
"!	c #666666",
"~	c #663333",
"{	c #FFFFCC",
"]	c #222222",
"^	c #CC6600",
"/	c #A6A5A5",
"(	c #ACABAC",
"_	c #FFCCCC",
":	c #CC9999",
"<	c #D8D8D8",
"[	c #7C7B7C",
"}	c #FFFFFF",
"|	c #555555",
"1	c #EFEFEF",
"2	c #3D3D3D",
"3	c #8C8B8B",
"4	c #777676",
"                ",
"            ~~  ",
"           !_:~ ",
"  (//>>3@[!*!)~ ",
"  /++++++={!*]  ",
"  /+++++={%^]   ",
"  >+>>>={%^,    ",
"  3++<~;;^,|    ",
"  3<>>~;;,1&    ",
"  @<<*...11&    ",
"  [*>>>>>>'2    ",
"  4$$111'''-    ",
"  #1>>>>>>}-    ",
"  #1'''}}}}-    ",
"  !!!||&&2--    ",
"                "};
