/* XPM */
static const char * observation_16x16_xpm[] = {
"16 16 141 2",
"  	c None",
". 	c #345394",
"+ 	c #345292",
"@ 	c #34508A",
"# 	c #344F88",
"$ 	c #355089",
"% 	c #34569F",
"& 	c #345599",
"* 	c #5780B2",
"= 	c #93B7D5",
"- 	c #A6C3DB",
"; 	c #A6C3DA",
"> 	c #90B4D2",
", 	c #527AAB",
"' 	c #344F86",
") 	c #355088",
"! 	c #3462A7",
"~ 	c #33559F",
"{ 	c #7DA7CB",
"] 	c #9FBBD8",
"^ 	c #779CC3",
"/ 	c #628AB6",
"( 	c #6086B4",
"_ 	c #7296BE",
": 	c #97B3D1",
"< 	c #77A3C5",
"[ 	c #354F84",
"} 	c #3569AB",
"| 	c #81AACF",
"1 	c #A2BCDA",
"2 	c #6691BE",
"3 	c #628CBA",
"4 	c #FCFDFE",
"5 	c #5D83B1",
"6 	c #5C83B0",
"7 	c #8DAACD",
"8 	c #79A5C6",
"9 	c #345089",
"0 	c #3578B8",
"a 	c #5E91BF",
"b 	c #A8C2E0",
"c 	c #6C96C5",
"d 	c #6991C2",
"e 	c #5E85B4",
"f 	c #5E85B3",
"g 	c #99B5D4",
"h 	c #567BAE",
"i 	c #35518F",
"j 	c #357EBC",
"k 	c #9CBCDB",
"l 	c #89ADD5",
"m 	c #6C98C7",
"n 	c #6995C3",
"o 	c #6793C1",
"p 	c #638BBB",
"q 	c #638AB9",
"r 	c #628AB8",
"s 	c #789DC5",
"t 	c #93B8D2",
"u 	c #355190",
"v 	c #357EBF",
"w 	c #AFC7E3",
"x 	c #76A2D0",
"y 	c #6B99C5",
"z 	c #6A97C4",
"A 	c #6996C4",
"B 	c #6690BF",
"C 	c #658FBE",
"D 	c #648FBE",
"E 	c #6992BE",
"F 	c #AAC6DF",
"G 	c #345092",
"H 	c #3B85C5",
"I 	c #B0C9E4",
"J 	c #7AA3D0",
"K 	c #719DCC",
"L 	c #6C9AC7",
"M 	c #6B98C5",
"N 	c #6996C3",
"O 	c #6894C1",
"P 	c #6894C2",
"Q 	c #6D98C3",
"R 	c #ABC5DF",
"S 	c #345395",
"T 	c #418ECB",
"U 	c #9FBCE0",
"V 	c #93B3DB",
"W 	c #75A0CF",
"X 	c #729ECD",
"Y 	c #719CCB",
"Z 	c #A3BFDD",
"` 	c #A2BFDD",
" .	c #6B98C4",
"..	c #85ABD1",
"+.	c #97BAD8",
"@.	c #35569E",
"#.	c #4791CE",
"$.	c #689CCD",
"%.	c #B4CBE7",
"&.	c #7AA5D4",
"*.	c #77A0D0",
"=.	c #749ECF",
"-.	c #719ECB",
";.	c #719DCB",
">.	c #77A1CD",
",.	c #A5C0DF",
"'.	c #5B8AB9",
").	c #345CA4",
"!.	c #478ECE",
"~.	c #8CB2D9",
"{.	c #B3CAE6",
"].	c #7DA9D6",
"^.	c #79A5D1",
"/.	c #77A4D1",
"(.	c #A2BDDD",
"_.	c #85ACD0",
":.	c #3566AB",
"<.	c #4D96D4",
"[.	c #478DCF",
"}.	c #B8CDE6",
"|.	c #9DBAE0",
"1.	c #85ABD7",
"2.	c #82A9D6",
"3.	c #91B3D9",
"4.	c #ABC2E1",
"5.	c #86AED4",
"6.	c #356BB1",
"7.	c #356FB1",
"8.	c #4F97D6",
"9.	c #4991D1",
"0.	c #6AA0D0",
"a.	c #A0BFE0",
"b.	c #AEC5E3",
"c.	c #9FBCDF",
"d.	c #6297C8",
"e.	c #357DBD",
"f.	c #4C92D2",
"g.	c #458CCD",
"h.	c #418BCB",
"i.	c #408BC9",
"j.	c #408BC7",
"                                ",
"          . + @ # $ $           ",
"      % & * = - ; > , ' )       ",
"    ! ~ { ] ^ / ( _ : < [ $     ",
"    } | 1 2 3 4 4 5 6 7 8 9     ",
"  0 a b c d d 4 4 e e f g h i   ",
"  j k l m n o 4 4 p q r s t u   ",
"  v w x y z A 4 4 B C D E F G   ",
"  H I J K L M 4 4 N O P Q R S   ",
"  T U V W X Y Z ` y y  ...+.@.  ",
"  #.$.%.&.*.=.4 4 -.;.>.,.'.).  ",
"    !.~.{.].^.4 4 x /.(._.:.    ",
"    <.[.~.}.|.1.2.3.4.5.6.7.    ",
"      8.9.0.a.b.b.c.d.e.j       ",
"          <.f.g.h.i.j.          ",
"                                "};
