/* XPM */
static const char * ok_16x16_xpm[] = {
"16 16 200 2",
"  	c None",
". 	c #81C87A",
"+ 	c #75C469",
"@ 	c #5EBE50",
"# 	c #5CBA4C",
"$ 	c #6BBE64",
"% 	c #80C37E",
"& 	c #62B95A",
"* 	c #70C951",
"= 	c #8AD868",
"- 	c #8BDA65",
"; 	c #6FCF49",
"> 	c #5FC639",
", 	c #4CBD2D",
"' 	c #38B422",
") 	c #32A927",
"! 	c #7BC379",
"~ 	c #53B747",
"{ 	c #8BD76A",
"] 	c #95DF70",
"^ 	c #75D045",
"/ 	c #5FC82E",
"( 	c #50C225",
"_ 	c #45B922",
": 	c #3AB817",
"< 	c #36B31B",
"[ 	c #25AC11",
"} 	c #15A206",
"| 	c #5BAF5A",
"1 	c #5CB758",
"2 	c #8FD76B",
"3 	c #8EDB69",
"4 	c #63CC32",
"5 	c #65CA30",
"6 	c #61C92E",
"7 	c #53C12A",
"8 	c #47BC20",
"9 	c #3EB620",
"0 	c #29AF12",
"a 	c #26AB14",
"b 	c #2BAE14",
"c 	c #0A9A04",
"d 	c #8BC289",
"e 	c #6CC74E",
"f 	c #96E06F",
"g 	c #65CD32",
"h 	c #63CA31",
"i 	c #64C830",
"j 	c #57C52E",
"k 	c #4EBF29",
"l 	c #31AF0E",
"m 	c #36B021",
"n 	c #C2E0BE",
"o 	c #DAE8D7",
"p 	c #4EBB3C",
"q 	c #118E18",
"r 	c #65B765",
"s 	c #7BD162",
"t 	c #72CE49",
"u 	c #64C92B",
"v 	c #62CB31",
"w 	c #57C42B",
"x 	c #51C326",
"y 	c #4BBC26",
"z 	c #34B713",
"A 	c #3DB321",
"B 	c #CBE6C7",
"C 	c #FDF8FC",
"D 	c #FFFBFF",
"E 	c #8ED474",
"F 	c #008B08",
"G 	c #56B64B",
"H 	c #83D660",
"I 	c #4CBF24",
"J 	c #2AAC0A",
"K 	c #34B415",
"L 	c #50C127",
"M 	c #4ABE27",
"N 	c #36B413",
"O 	c #3EB527",
"P 	c #CEE7C9",
"Q 	c #FEFEFE",
"R 	c #BEE6A8",
"S 	c #25AF13",
"T 	c #008814",
"U 	c #4F9B5A",
"V 	c #47AE3B",
"W 	c #6ACB48",
"X 	c #30A823",
"Y 	c #ACCCB4",
"Z 	c #75C176",
"` 	c #2BAF0C",
" .	c #2DB209",
"..	c #3FB626",
"+.	c #CDEACB",
"@.	c #FFFDFE",
"#.	c #FEFFFF",
"$.	c #C0EAAB",
"%.	c #26AC0F",
"&.	c #009700",
"*.	c #01861B",
"=.	c #1A7D2B",
"-.	c #41AE37",
";.	c #4ABC30",
">.	c #73B877",
",.	c #FFECFF",
"'.	c #EFEAEE",
").	c #86CB7B",
"!.	c #52BA3F",
"~.	c #CEE7C7",
"{.	c #FFFFFD",
"].	c #C3EAAB",
"^.	c #29AC0E",
"/.	c #009A01",
"(.	c #009600",
"_.	c #007D24",
":.	c #217E2E",
"<.	c #45A740",
"[.	c #3AB924",
"}.	c #33AF29",
"|.	c #C7DAC6",
"1.	c #FAEEFA",
"2.	c #F2F0F5",
"3.	c #F0F4F3",
"4.	c #FEFCFD",
"5.	c #FEFEFF",
"6.	c #C3ECB0",
"7.	c #28AF0D",
"8.	c #039A00",
"9.	c #029C00",
"0.	c #028F05",
"a.	c #017232",
"b.	c #589C5F",
"c.	c #4B9C50",
"d.	c #2BAD19",
"e.	c #1DA805",
"f.	c #39B32C",
"g.	c #D6E3D2",
"h.	c #FEF4FD",
"i.	c #FFFFFF",
"j.	c #C2ECAC",
"k.	c #28AE0F",
"l.	c #029900",
"m.	c #009900",
"n.	c #007E21",
"o.	c #006B2D",
"p.	c #9FC7A2",
"q.	c #21A41A",
"r.	c #1BA80E",
"s.	c #11A302",
"t.	c #4BB936",
"u.	c #E1EEDA",
"v.	c #FDFEFF",
"w.	c #C1E9AB",
"x.	c #26AE10",
"y.	c #019800",
"z.	c #019704",
"A.	c #008A0B",
"B.	c #006C38",
"C.	c #1D7D35",
"D.	c #479B50",
"E.	c #059B00",
"F.	c #0EA206",
"G.	c #099F00",
"H.	c #45BA2D",
"I.	c #76CD5A",
"J.	c #25AD0D",
"K.	c #009601",
"L.	c #009B00",
"M.	c #02880D",
"N.	c #006F37",
"O.	c #006A28",
"P.	c #9DC69E",
"Q.	c #409841",
"R.	c #039502",
"S.	c #049D04",
"T.	c #029801",
"U.	c #009800",
"V.	c #019304",
"W.	c #028E07",
"X.	c #008119",
"Y.	c #006C33",
"Z.	c #006A2C",
"`.	c #73AE78",
" +	c #8EC08D",
".+	c #128D19",
"++	c #008B0E",
"@+	c #008A13",
"#+	c #008613",
"$+	c #007F1E",
"%+	c #00732C",
"&+	c #016B2B",
"*+	c #238137",
"=+	c #9BC49C",
"-+	c #D6E7D4",
";+	c #99C69B",
">+	c #1E7F2E",
",+	c #257C35",
"'+	c #589E62",
")+	c #A6C9A8",
"          . + @ # $ %           ",
"      & * = - ; > , ' ) !       ",
"    ~ { ] ^ / ( _ : < [ } |     ",
"  1 2 3 4 5 6 7 8 9 0 a b c d   ",
"  e f g h i j k 8 l m n o p q   ",
"r s t u v w x y z A B C D E F d ",
"G H I J K L M N O P D Q R S T U ",
"V W X Y Z `  ...+.@.#.$.%.&.*.=.",
"-.;.>.,.'.).!.~.#.{.].^./.(._.:.",
"<.[.}.|.1.2.3.4.5.6.7.8.9.0.a.b.",
"c.d.e.f.g.h.C i.j.k.l.m.&.n.o.p.",
"  q.r.s.t.u.v.w.x.y.m.z.A.B.C.  ",
"  D.E.F.G.H.I.J.K.L.K.M.N.O.P.  ",
"    Q.R.S.T.U.(.V.W.X.Y.Z.`.    ",
"       +.+++@+#+$+%+&+*+=+      ",
"        -+;+U >+,+'+'+)+        "};
