/* XPM */
static const char *owner_16x16_xpm[] = {
"16 16 28 1",
" 	c None",
".	c #000000",
"+	c #B6B6B6",
"@	c #B7B7B7",
"#	c #BBBBBB",
"$	c #BFBFBF",
"%	c #010102",
"&	c #020202",
"*	c #C4C4C4",
"=	c #CACACA",
"-	c #030303",
";	c #D2D2D2",
">	c #0B0B0B",
",	c #040505",
"'	c #0C0C0C",
")	c #DADADA",
"!	c #0C0C0D",
"~	c #070708",
"{	c #0D0E0E",
"]	c #0D0D0E",
"^	c #09090B",
"/	c #0D0D0F",
"(	c #D8D8D8",
"_	c #0F0F10",
":	c #0D0E0F",
"<	c #D3D3D3",
"[	c #121315",
"}	c #C8C8C8",
"                ",
"      ...+      ",
"     .....+     ",
"    .......+    ",
"    .......@    ",
"    .......#    ",
"    .......$    ",
"    %.....&*    ",
"     %%%%%=     ",
"     -----;     ",
"    >,,,,,')    ",
"   !~~~~~~~{)   ",
"  ]^^^^^^^^^/(  ",
" _:::::::::::_< ",
" [[[[[[[[[[[[[} ",
"                "};
