/* XPM */
static const char * payment_card_16x16_xpm[] = {
"16 16 52 1",
" 	c None",
".	c #2D899E",
"+	c #2C879C",
"@	c #7CD2E3",
"#	c #94EAF9",
"$	c #92E9F9",
"%	c #82E1F3",
"&	c #75DAEE",
"*	c #73D9ED",
"=	c #807863",
"-	c #7C7966",
";	c #7F7D6A",
">	c #7E7D6A",
",	c #7E7C6A",
"'	c #75938C",
")	c #68B6C0",
"!	c #70D9EE",
"~	c #7E7762",
"{	c #DDDBD4",
"]	c #FCFBF8",
"^	c #FBFBF8",
"/	c #DBDAD4",
"(	c #72918A",
"_	c #68D8EE",
":	c #F7F6EF",
"<	c #F3F1E7",
"[	c #F2F1E6",
"}	c #7D7C6A",
"|	c #62D7EF",
"1	c #827C5E",
"2	c #5CD7EF",
"3	c #56D6EF",
"4	c #E9E6D9",
"5	c #E2DECC",
"6	c #7C7C6A",
"7	c #50D5EF",
"8	c #E6E3D4",
"9	c #DDD9C6",
"0	c #46C3DC",
"a	c #2A8195",
"b	c #E2DFCF",
"c	c #D8D4BF",
"d	c #28798C",
"e	c #DFDBCB",
"f	c #8C8E46",
"g	c #D4CFB9",
"h	c #7F7762",
"i	c #78715D",
"j	c #C6C1AF",
"k	c #D2CCB5",
"l	c #D1CBB4",
"m	c #716A58",
"                ",
"   ............ ",
"  +@#$$$$$$$$#@+",
"  .%&********&%.",
" =-;>,,,,,,,')!.",
"~{]^^^^^^^^]/(_.",
"=:<[[[[[[[[<:}|.",
"=11111111111112.",
"=11111111111113.",
"=45555555555467.",
"=89999999999860a",
"=b1c1c1c1cccb-d ",
"=efgfgfgfgggeh  ",
"ijkllllllllkji  ",
" m==========m   ",
"                "};
