/* XPM */
static const char * person_add_16x16_xpm[] = {
"16 16 21 1",
" 	c None",
".	c #8D8D8D",
"+	c #4D4D4D",
"@	c #585858",
"#	c #A6A6A6",
"$	c #737373",
"%	c #69696A",
"&	c #898989",
"*	c #818283",
"=	c #656565",
"-	c #999999",
";	c #616161",
">	c #6D6D6D",
",	c #B5E800",
"'	c #94EB00",
")	c #9F9E9E",
"!	c #6CDF00",
"~	c #5BDD00",
"{	c #4AD801",
"]	c #2CD400",
"^	c #0ACF01",
"                ",
"     .+@#       ",
"    $%&*=-      ",
"    @&&&&+      ",
"    %&&&&@      ",
"    ;&&&&@      ",
"    ;>$$%$      ",
"     ;==        ",
"    @;%= ,,     ",
"   @;>%% ''     ",
" )@;>    ''     ",
" +%>> !!!!!!!!  ",
" +>>> ~~~~~~~~  ",
" +>>>    {{     ",
" @;>>=== ]] @   ",
"  @+++++ ^^     "};
