/* XPM */
static char * persons_16x16_xpm[] = {
"16 16 37 1",
" 	c None",
".	c #E9EDEF",
"+	c #8B8F8A",
"@	c #84827B",
"#	c #B9BAB8",
"$	c #DBDBD8",
"%	c #A9A9A4",
"&	c #B0B2AF",
"*	c #E8E6E5",
"=	c #A3A19D",
"-	c #999C99",
";	c #C6C8C7",
">	c #A5AEB2",
",	c #F8E4DA",
"'	c #FED8B9",
")	c #FBDFCB",
"!	c #FFFFFF",
"~	c #F7BB8E",
"{	c #FD901E",
"]	c #F3892C",
"^	c #EB9351",
"/	c #FFBB75",
"(	c #FCECE3",
"_	c #F0B9A4",
":	c #EE7F2F",
"<	c #F6D1C0",
"[	c #F9F1ED",
"}	c #F78B1D",
"|	c #E9936D",
"1	c #E7742E",
"2	c #F6A061",
"3	c #EDA98C",
"4	c #E8A089",
"5	c #EA7116",
"6	c #E56919",
"7	c #DE5F21",
"8	c #E68050",
"                ",
"        .+@#    ",
"     $%%$&@@#   ",
"    $@@@@*=@+   ",
"    @@@@@%$@-   ",
"    @@@@@-;@.   ",
"    >@@@@#.,')  ",
"     &@@&!!~{]^ ",
"  )~/(!!(~~)_]:<",
" ']]]{[[}]]],|1_",
" 2]]]]]]::!:3_13",
" ]]::::11!!!|,4<",
" :15556667!78   ",
" _3333334444_   ",
"                ",
"                "};
