/* XPM */
static const char * print_16x16_xpm[] = {
"16 16 13 1",
" 	c None",
".	c #000000",
"+	c #636321",
"@	c #636363",
"#	c #8C8C8C",
"$	c #9C9C9C",
"%	c #BDBDBD",
"&	c #C6C6C6",
"*	c #CE9C63",
"=	c #CECECE",
"-	c #EFEFEF",
";	c #FFFFCE",
">	c #FFFFFF",
"  @@@@@@@@@@@   ",
"  @>>>>>>>>>@   ",
"  @>$@@$@@%>@   ",
"  @>>>>>>>>>@   ",
"  @>$@@@@$>>@   ",
"  @>>>>>>>>>@   ",
"  @>@$@@$@=>@   ",
" +@>>>>>>>>>@++ ",
".;+.........+##.",
".&;;;;;;;;;;;&&.",
"................",
".;&&&&&&&&#*&**.",
".=#*******$+#++.",
"................",
" .+#*#*#*#*#++. ",
"  ............  "};
