/* XPM */
static const char * product_trademark_16x16_xpm[] = {
"16 16 74 1",
" 	c None",
".	c #7E7E7E",
"+	c #278F25",
"@	c #288F25",
"#	c #30932D",
"$	c #2F932D",
"%	c #389736",
"&	c #C63636",
"*	c #409B3E",
"=	c #C83F3F",
"-	c #C93F3F",
";	c #499F47",
">	c #499F46",
",	c #CB4949",
"'	c #5F8DBD",
")	c #5F8EBD",
"!	c #5E8EBD",
"~	c #51A34F",
"{	c #CE5352",
"]	c #CD5253",
"^	c #6391C2",
"/	c #6292C2",
"(	c #6392C1",
"_	c #6392C2",
":	c #6292C1",
"<	c #59A757",
"[	c #5AA757",
"}	c #CF5C5D",
"|	c #D05D5C",
"1	c #6796C7",
"2	c #6696C6",
"3	c #6697C7",
"4	c #6696C7",
"5	c #61AB5F",
"6	c #61AC60",
"7	c #D26666",
"8	c #D36766",
"9	c #6B9ACC",
"0	c #6A9BCC",
"a	c #6B9BCC",
"b	c #6AB068",
"c	c #D57070",
"d	c #D47070",
"e	c #6F9FD1",
"f	c #6FA0D1",
"g	c #6F9FD2",
"h	c #6EA0D1",
"i	c #6FA0D2",
"j	c #72B471",
"k	c #D77A7A",
"l	c #72A4D6",
"m	c #73A4D7",
"n	c #73A4D6",
"o	c #72A4D7",
"p	c #D98384",
"q	c #DA8484",
"r	c #77A9DC",
"s	c #77A8DC",
"t	c #76A9DC",
"u	c #77A9DB",
"v	c #DC8D8D",
"w	c #DC8E8E",
"x	c #7BADE1",
"y	c #7BAEE0",
"z	c #7BAEE1",
"A	c #7FB2E6",
"B	c #7FB2E7",
"C	c #80B2E6",
"D	c #83B7EB",
"E	c #83B6EC",
"F	c #83B7EC",
"G	c #84B7EB",
"H	c #84B6EC",
"I	c #83B6EB",
"........        ",
".+@+++@..       ",
".#$.........    ",
".%%.&&&&&&&..   ",
".**.=-........  ",
".;>.,,.')'')!.. ",
".~~.{].^^//(_:..",
".<[.}|.11234111.",
".56.78.90aa9a9a.",
".bb.cd.efghefgi.",
".jj.kk.lmnmnonn.",
"....pq.rststsru.",
"   .vw.xyzxxxxx.",
"   ....ABAAAAAC.",
"      .DEFGHEDI.",
"      .........."};
