/* XPM */
static const char * product_32x32_xpm[] = {
"32 32 242 2",
"  	c None",
". 	c #606060",
"+ 	c #E4E4E4",
"@ 	c #FDFDFD",
"# 	c #FCFCFC",
"$ 	c #FAFAFA",
"% 	c #F7F7F7",
"& 	c #C6C6C6",
"* 	c #F9F9F9",
"= 	c #F6F6F6",
"- 	c #EEEEEE",
"; 	c #BDBDBD",
"> 	c #82847F",
", 	c #7C858F",
"' 	c #B3B3B3",
") 	c #E3E3E3",
"! 	c #F4F4F4",
"~ 	c #C8C8C7",
"{ 	c #EBF1F7",
"] 	c #D6D6D6",
"^ 	c #BCBCBC",
"/ 	c #DADADA",
"( 	c #D9D9D9",
"_ 	c #D8D8D8",
": 	c #D5D5D5",
"< 	c #D2D2D2",
"[ 	c #B7B7B7",
"} 	c #F2F2F2",
"| 	c #3C5DA4",
"1 	c #4263A8",
"2 	c #EEF4F8",
"3 	c #B1B1B1",
"4 	c #B6B6B6",
"5 	c #B5B5B5",
"6 	c #B4B4B4",
"7 	c #ECF2F8",
"8 	c #7298CC",
"9 	c #7298CB",
"0 	c #E8E8E8",
"a 	c #E5E5E5",
"b 	c #E2E2E2",
"c 	c #DFDFDF",
"d 	c #F3F3F3",
"e 	c #759BCE",
"f 	c #5D86C2",
"g 	c #537DBC",
"h 	c #4671B4",
"i 	c #FEFEFE",
"j 	c #A5A5A5",
"k 	c #8A8A8A",
"l 	c #ABABAB",
"m 	c #BABABA",
"n 	c #B9B9B9",
"o 	c #B8B8B8",
"p 	c #4472B6",
"q 	c #4471B7",
"r 	c #888888",
"s 	c #B2B2B2",
"t 	c #7E7E7E",
"u 	c #C3C3C3",
"v 	c #DCDCDC",
"w 	c #DBDBDB",
"x 	c #AAAAAA",
"y 	c #7C7C7C",
"z 	c #D3D3D3",
"A 	c #DEDEDE",
"B 	c #ECECEC",
"C 	c #BEBEBE",
"D 	c #D7D7D7",
"E 	c #EBEBEB",
"F 	c #EDEDED",
"G 	c #AFAFAF",
"H 	c #DDDDDD",
"I 	c #A3A3A3",
"J 	c #E0E0E0",
"K 	c #EAE9E2",
"L 	c #BFBDBB",
"M 	c #AAA9AA",
"N 	c #A8A6A8",
"O 	c #A6A5A6",
"P 	c #A5A4A6",
"Q 	c #A4A3A4",
"R 	c #B9B7B6",
"S 	c #E8E7E0",
"T 	c #545B23",
"U 	c #D6D5D6",
"V 	c #FFFFFF",
"W 	c #D1D0D1",
"X 	c #B8B7B5",
"Y 	c #7F865E",
"Z 	c #DBE0D7",
"` 	c #888E69",
" .	c #ACABAC",
"..	c #386E9D",
"+.	c #9F9F9F",
"@.	c #767B77",
"#.	c #5C5E59",
"$.	c #5E605C",
"%.	c #61635E",
"&.	c #636561",
"*.	c #666863",
"=.	c #686A66",
"-.	c #6B6D68",
";.	c #6D6F6B",
">.	c #70726D",
",.	c #727470",
"'.	c #B1B4AD",
").	c #ACAAAB",
"!.	c #3C719E",
"~.	c #81AFD7",
"{.	c #81B0D7",
"].	c #679ECF",
"^.	c #4B8EC6",
"/.	c #4B8DC5",
"(.	c #3C729E",
"_.	c #9E9D9F",
":.	c #494D4C",
"<.	c #62645F",
"[.	c #646663",
"}.	c #686A65",
"|.	c #6A6C68",
"1.	c #70726E",
"2.	c #737571",
"3.	c #757773",
"4.	c #787A75",
"5.	c #797B77",
"6.	c #989A94",
"7.	c #AAAAAB",
"8.	c #4275A0",
"9.	c #86B3D9",
"0.	c #86B4D9",
"a.	c #87B3D9",
"b.	c #6DA3D1",
"c.	c #5292C8",
"d.	c #5292C9",
"e.	c #5392C9",
"f.	c #4276A1",
"g.	c #9D9C9D",
"h.	c #B6BBA6",
"i.	c #A9AD94",
"j.	c #A9A9AA",
"k.	c #487AA3",
"l.	c #8DB7DB",
"m.	c #8DB8DB",
"n.	c #74A8D3",
"o.	c #5B99CC",
"p.	c #5B98CC",
"q.	c #497AA3",
"r.	c #9C9B9B",
"s.	c #939A59",
"t.	c #7A8235",
"u.	c #788134",
"v.	c #767F33",
"w.	c #737B32",
"x.	c #6F7731",
"y.	c #6C732F",
"z.	c #666D2D",
"A.	c #61682A",
"B.	c #5D6329",
"C.	c #5B6129",
"D.	c #575E26",
"E.	c #A9A8A9",
"F.	c #517EA6",
"G.	c #93BCDD",
"H.	c #93BCDE",
"I.	c #7CAED6",
"J.	c #649FCF",
"K.	c #649ECF",
"L.	c #649ED0",
"M.	c #507FA6",
"N.	c #9B999B",
"O.	c #CAD184",
"P.	c #B8C257",
"Q.	c #BCC661",
"R.	c #A9B260",
"S.	c #98A150",
"T.	c #919A4C",
"U.	c #A5AC72",
"V.	c #A8A7A8",
"W.	c #7597B3",
"X.	c #92BDE0",
"Y.	c #91BDE0",
"Z.	c #92BEE0",
"`.	c #999899",
" +	c #D0D691",
".+	c #BDC765",
"++	c #BDC763",
"@+	c #AAB263",
"#+	c #96A04F",
"$+	c #8B9348",
"%+	c #A8AD75",
"&+	c #A7A5A7",
"*+	c #989798",
"=+	c #D1D793",
"-+	c #BCC662",
";+	c #BBC561",
">+	c #929C4A",
",+	c #899245",
"'+	c #A3AB72",
")+	c #A5A5A6",
"!+	c #F1F1F1",
"~+	c #979697",
"{+	c #CDD590",
"]+	c #BBC55F",
"^+	c #B9C35D",
"/+	c #909946",
"(+	c #879042",
"_+	c #A1A76E",
":+	c #A4A4A4",
"<+	c #969596",
"[+	c #CCD28E",
"}+	c #C9D18D",
"|+	c #C7CC8B",
"1+	c #C3CA89",
"2+	c #BFC687",
"3+	c #BCC286",
"4+	c #B8BE84",
"5+	c #B5BB82",
"6+	c #B2B881",
"7+	c #ACB27E",
"8+	c #A3A2A4",
"9+	c #959495",
"0+	c #A2A1A2",
"a+	c #949394",
"b+	c #A1A0A0",
"c+	c #949294",
"d+	c #B2B1B1",
"e+	c #CFCECF",
"f+	c #C9C9C9",
"g+	c #ACAAAA",
"h+	c #E8E6DF",
"i+	c #B2B1B0",
"j+	c #9B9B9C",
"k+	c #9B9A9B",
"l+	c #99999A",
"m+	c #999898",
"n+	c #979797",
"o+	c #969495",
"p+	c #959394",
"q+	c #949395",
"r+	c #949393",
"s+	c #E5E4DD",
"                            . . . . . . . . .                   ",
"                          . + @ @ # $ $ % % & .                 ",
"                        . * @ @ # # $ $ % % = - .               ",
"                        . $ ; ; ; ; ; ; ; ; ; @ .               ",
"    > > > > > > > > ,   . $ ' ) ) ) ) ) ) ) ' ! .               ",
"  > ~ { { { { { { ] >   . $ ^ / ( _ ] : < < [ } .               ",
"  > { | 1 1 1 1 | 2 >   . $ 3 4 4 5 5 5 6 6 3 } .               ",
"  > 7 1 8 9 8 8 1 7 >   . $ 0 a a + b ) b ( c d .               ",
"  > 7 1 e f g h 1 7 >   . i j k l : ; m n n o # .               ",
"  > 7 1 p q q q 1 { >   . i r s t ] u v w w 5 # .               ",
"  > { | 1 1 1 1 | { >   . @ x y z A ; ; ^ ^ ; B .               ",
"  > ] { { { { { { ] >   . @ A v w w w / / / ( B .               ",
"    > > > > > > > >     . @ / / u _ C ] ; / D B .               ",
"  > d E E E E E E F >   . @ / / G _ j H I v D F .               ",
"  > ( ( ( ( ( ( ( ( >   . F F F J F J F ] F F F .               ",
"  > > > > > > > > > >     . . . . . . . . . . .                 ",
"                                  K L l l l l x M N O P Q R S   ",
"    T T T T T T T T T T T T       L U V V V V V V V V V V W X   ",
"  Y Z Z Z Z Z Z Z Z Z Z Z Z `      .V ....................V +.  ",
"T Z @.#.$.%.&.*.=.-.;.>.,.'.Z T   ).V !.~.{.~.~.~.].^./.(.V _.  ",
"T Z :.<.[.}.|.;.1.2.3.4.5.6.Z T   7.V 8.9.0.a.9.b.c.d.e.f.V g.  ",
"T h.Z Z Z Z Z Z Z Z Z Z Z Z i.T   j.V k.l.m.m.n.o.p.o.p.q.V r.  ",
"  T s.t.u.v.w.x.y.z.A.B.C.D.T     E.V F.G.H.I.J.K.J.L.J.M.V N.  ",
"  T O.P.Q.Q.Q.Q.Q.R.R.S.T.U.T     V.V W.X.Y.X.Z.Z.X.X.Y.W.V `.  ",
"  T  +.+++++++++++@+@+#+$+%+T     &+V V V V w j j w V V V V *+  ",
"  T =+-+;+;+;+;+;+R.R.>+,+'+T     )+V r r V r !+!+r V r r V ~+  ",
"  T {+]+^+^+^+^+^+@+@+/+(+_+T     :+V V V V w j j w V V V V <+  ",
"  T {+[+}+|+1+2+3+4+5+6+7+7+T     8+V r u r u r u r u r u V 9+  ",
"    T T T T T T T T T T T T       0+V V V V V V V V V V V V a+  ",
"                                  b+V r u r u r u r u r u V c+  ",
"                                  d+e+V V V V V V V V V V f+g+  ",
"                                  h+i+j+k+l+m+n+~+o+p+q+r+g+s+  "};
