/* XPM */
static const char * product_new_16x16_xpm[] = {
"16 16 48 1",
" 	c None",
".	c #C8A25B",
"+	c #DDAD56",
"@	c #DDAE57",
"#	c #D0A254",
"$	c #DBAF67",
"%	c #B27C3A",
"&	c #B8792A",
"*	c #D09B46",
"=	c #DEAE56",
"-	c #D8A854",
";	c #CE9E50",
">	c #A0958A",
",	c #955E28",
"'	c #996128",
")	c #AE7129",
"!	c #B07329",
"~	c #C28B3D",
"{	c #DCAC55",
"]	c #D3A352",
"^	c #C8984E",
"/	c #6F99EA",
"(	c #BCD1ED",
"_	c #925F31",
":	c #A46A28",
"<	c #A86D28",
"[	c #A36928",
"}	c #B07935",
"|	c #D4A451",
"1	c #AC8F5D",
"2	c #A47442",
"3	c #A06628",
"4	c #9B6228",
"5	c #9A632A",
"6	c #C08E44",
"7	c #AD9768",
"8	c #C4B28B",
"9	c #A57F5C",
"0	c #A06B33",
"a	c #BE8D47",
"b	c #CB9A4E",
"c	c #AF945F",
"d	c #A0B1DE",
"e	c #A6B2CC",
"f	c #538C28",
"g	c #87BA60",
"h	c #FFFFFF",
"i	c #578F2D",
"      .         ",
" ... ...        ",
".+++.@+#.       ",
" +$%&*=-;.      ",
" >,')!~{]^.     ",
" /(_:<[}|1      ",
" /((23456785    ",
" /(((90abc5     ",
" /(((/(de/      ",
" /(((/(((/fffff ",
" /(((/(((ffghgif",
" /(((/(((fgghggf",
"  /((/(((fhhhhhf",
"   /(/(//fgghggf",
"    ///  ffghgff",
"          fffff "};
