/* XPM */
static const char * product_subtype_16x16_xpm[] = {
"16 16 37 1",
" 	c None",
".	c #B5B5B5",
"+	c #FDFDFD",
"@	c #E2E2E2",
"#	c #FBFBFB",
"$	c #E8F3FB",
"%	c #BDE3FD",
"&	c #FCFCFC",
"*	c #EAF5FD",
"=	c #8ACFFE",
"-	c #83CCFF",
";	c #BCE2FD",
">	c #E7F3FB",
",	c #89CEFE",
"'	c #96D4FF",
")	c #9AD5FF",
"!	c #8BCFFF",
"~	c #D3EBFB",
"{	c #98D4FF",
"]	c #9ED7FF",
"^	c #9BD6FF",
"/	c #D6ECFB",
"(	c #88CDFD",
"_	c #98D5FF",
":	c #89CEFF",
"<	c #BAE1FD",
"[	c #9CD6FF",
"}	c #8ED0FF",
"|	c #8DCCF7",
"1	c #FBFCFD",
"2	c #86CDFD",
"3	c #8CCFFF",
"4	c #97D1FA",
"5	c #F3F7F9",
"6	c #D5ECFB",
"7	c #97D2FD",
"8	c #F7FBFD",
".......         ",
".+++++@.        ",
".+...++@.       ",
".+. .+#+@.      ",
".+...+$%+@.     ",
".++&+*=-;+@.    ",
".@++>,')!;+@.   ",
" .@+~-{]^!;+@.  ",
"  .@+/(_]^:<+@. ",
"   .@+/(_[}|1@. ",
"    .@+/2345@.  ",
"     .@+678@.   ",
"      .@++@.    ",
"       .@@.     ",
"        ..      ",
"                "};
