/* XPM */
static const char * product_type_16x16_xpm[] = {
"16 16 27 1",
" 	c None",
".	c #B2B2B2",
"+	c #FCFCFC",
"@	c #F8F8F8",
"#	c #ECECEC",
"$	c #F4F4F4",
"%	c #EFEFEF",
"&	c #FBFBFB",
"*	c #FAFAFA",
"=	c #BED7ED",
"-	c #DFEDF9",
";	c #F2CBB1",
">	c #FCE6D8",
",	c #B2E9B3",
"'	c #DEF8DF",
")	c #C3DCF2",
"!	c #C0D9EF",
"~	c #F6D0B6",
"{	c #F3CDB3",
"]	c #B7EEB8",
"^	c #B4EBB5",
"/	c #8CC1F0",
"(	c #7AB8EE",
"_	c #FAA670",
":	c #FA9959",
"<	c #75E977",
"[	c #75E877",
"     ....       ",
"     .++@.      ",
"     .+#++.     ",
"     .+$%+.     ",
"     .+&*+.     ",
"     .++++.     ",
"  ...........   ",
"  .    .    .   ",
"  .    .    .   ",
"....  ... ....  ",
".++@..++@..++@. ",
".+=-+.&;>+.&,'+.",
".+)!+.&~{+.&]^+.",
".+/(+.&_:+.&<[+.",
".++++.&+++.&+++.",
"................"};
