/* XPM */
static const char * product_16x16_xpm[] = {
"16 16 57 1",
" 	c None",
".	c #82847F",
"+	c #C8C8C7",
"@	c #EBF1F7",
"#	c #3C5DA4",
"$	c #4263A8",
"%	c #606060",
"&	c #ECF2F8",
"*	c #7298CC",
"=	c #7298CB",
"-	c #E4E4E4",
";	c #FDFDFD",
">	c #7F865E",
",	c #F9F9F9",
"'	c #FCFCFC",
")	c #545B23",
"!	c #DBE0D7",
"~	c #D6D6D6",
"{	c #FAFAFA",
"]	c #BDBDBD",
"^	c #6A6D6A",
"/	c #B3B3B3",
"(	c #E3E3E3",
"_	c #B6BBA6",
":	c #BCBCBC",
"<	c #D9D9D9",
"[	c #DADADA",
"}	c #939A59",
"|	c #7A8235",
"1	c #788134",
"2	c #767F33",
"3	c #737B32",
"4	c #6C732F",
"5	c #B1B1B1",
"6	c #B6B6B6",
"7	c #CAD184",
"8	c #B8C257",
"9	c #BCC661",
"0	c #E8E8E8",
"a	c #E5E5E5",
"b	c #D1D793",
"c	c #BCC662",
"d	c #BBC561",
"e	c #AAAAAA",
"f	c #D3D3D3",
"g	c #7C7C7C",
"h	c #CDD590",
"i	c #BBC55F",
"j	c #B9C35D",
"k	c #AFAFAF",
"l	c #CCD28E",
"m	c #C9D18D",
"n	c #C7CC8B",
"o	c #C3CA89",
"p	c #BCC286",
"q	c #EDEDED",
"r	c #E0E0E0",
"                ",
"                ",
"   ........     ",
"  .+@@@@@@+.    ",
"  .@#$$$#$%%%%  ",
"  .&$*===%-;;-% ",
" >.@$*==%,;';;,%",
")!.~#*==%{]]]]{%",
")!^.....%{/((/{%",
")_!!!!!!%{:<[:{%",
" )}|1234%{5665{%",
" )789999%{0aa0{%",
" )bcdddd%;efge;%",
" )hijjjj%;[k[[;%",
" )llmnop%qqrqqq%",
"  )))))))%%%%%% "};
