/* XPM */
static const char * product_trademark_32x32_xpm[] = {
"32 32 305 2",
"  	c None",
". 	c #5FD2FF",
"+ 	c #5FD3FF",
"@ 	c #5ED2FF",
"# 	c #5ED1FF",
"$ 	c #5DCFFF",
"% 	c #5CCEFF",
"& 	c #5CCBFE",
"* 	c #5CCAFF",
"= 	c #62D4FF",
"- 	c #6CE9FF",
"; 	c #6EEFFF",
"> 	c #69E3FF",
", 	c #60CFFF",
"' 	c #5DCBFF",
") 	c #5AC8FF",
"! 	c #5ACCFF",
"~ 	c #58C7FE",
"{ 	c #5BC8FF",
"] 	c #69D5FF",
"^ 	c #65E3FF",
"/ 	c #64E3FF",
"( 	c #69E2FF",
"_ 	c #68D3FF",
": 	c #5BC6FF",
"< 	c #55C1F3",
"[ 	c #59C8FF",
"} 	c #58C5FE",
"| 	c #5AC5FF",
"1 	c #65CCFF",
"2 	c #57C3DF",
"3 	c #4095C9",
"4 	c #60D7F6",
"5 	c #58C0FF",
"6 	c #5AC1FF",
"7 	c #51B7EE",
"8 	c #56C6FF",
"9 	c #55C3FE",
"0 	c #59C5FF",
"a 	c #66CFFF",
"b 	c #5CC2FF",
"c 	c #50B8F1",
"d 	c #F09A70",
"e 	c #FFA175",
"f 	c #DD8B64",
"g 	c #4FB6FA",
"h 	c #57BDFF",
"i 	c #67AFDB",
"j 	c #FF9D72",
"k 	c #54C3FF",
"l 	c #53BFFE",
"m 	c #57C2FF",
"n 	c #65CEFF",
"o 	c #63CBFF",
"p 	c #4EB4FA",
"q 	c #FC976D",
"r 	c #FF966C",
"s 	c #FF9B70",
"t 	c #FFA677",
"u 	c #58AFEB",
"v 	c #56BCFF",
"w 	c #75A8CE",
"x 	c #FF956A",
"y 	c #FF996D",
"z 	c #52C0FF",
"A 	c #51BCFE",
"B 	c #55BFFF",
"C 	c #62C9FF",
"D 	c #61C8FF",
"E 	c #52BAFF",
"F 	c #FF8F65",
"G 	c #FF9870",
"H 	c #FF9A6B",
"I 	c #FF996A",
"J 	c #50B3F9",
"K 	c #54BAFF",
"L 	c #72A7D0",
"M 	c #FF8D64",
"N 	c #F3865D",
"O 	c #4FBCFF",
"P 	c #4EB9FE",
"Q 	c #52BCFF",
"R 	c #60C8FF",
"S 	c #5EC5FF",
"T 	c #5EC4FF",
"U 	c #5FC5FF",
"V 	c #5EC7FF",
"W 	c #E8957A",
"X 	c #FF855A",
"Y 	c #DF8157",
"Z 	c #49B1FC",
"` 	c #4AB2FB",
" .	c #52B6FD",
"..	c #6EAED3",
"+.	c #FF855C",
"@.	c #EE7B53",
"#.	c #4DB9FF",
"$.	c #4CB6FE",
"%.	c #50B9FF",
"&.	c #5BC0FF",
"*.	c #5EC6FF",
"=.	c #4BB4FC",
"-.	c #56BAFF",
";.	c #57C6FF",
">.	c #76ACC5",
",.	c #FF7E53",
"'.	c #ED744A",
").	c #49B6FF",
"!.	c #48B2FE",
"~.	c #4DB6FF",
"{.	c #5BC2FF",
"].	c #59BEFF",
"^.	c #58BDFF",
"/.	c #5AC0FF",
"(.	c #5BC3FF",
"_.	c #5AC3FF",
":.	c #48B3FF",
"<.	c #48B2FF",
"[.	c #4EB5FF",
"}.	c #57BAFF",
"|.	c #52CBFF",
"1.	c #A17D75",
"2.	c #FF7A4C",
"3.	c #ED6E42",
"4.	c #47B2FF",
"5.	c #46AFFE",
"6.	c #4AB3FF",
"7.	c #58BEFF",
"8.	c #57BBFF",
"9.	c #56B9FF",
"0.	c #57BCFF",
"a.	c #55B7FF",
"b.	c #58C6FF",
"c.	c #4FC7FF",
"d.	c #3E8EB3",
"e.	c #E86638",
"f.	c #FF7545",
"g.	c #ED673A",
"h.	c #43ACFD",
"i.	c #43AAFB",
"j.	c #47AEFD",
"k.	c #55BAFF",
"l.	c #54B7FF",
"m.	c #53B6FF",
"n.	c #53B5FF",
"o.	c #52B4FF",
"p.	c #52B3FE",
"q.	c #53C0FF",
"r.	c #4CC2FF",
"s.	c #378BB7",
"t.	c #CA582D",
"u.	c #FF6936",
"v.	c #FF6E3D",
"w.	c #F06936",
"x.	c #41ABFC",
"y.	c #3FA4F3",
"z.	c #44AAF9",
"A.	c #51B3FF",
"B.	c #51B2FE",
"C.	c #51B1FD",
"D.	c #50B0FB",
"E.	c #51BDFF",
"F.	c #49BEFF",
"G.	c #648296",
"H.	c #D95B29",
"I.	c #FF652E",
"J.	c #FF6E3B",
"K.	c #FF7138",
"L.	c #EA672F",
"M.	c #41ACFB",
"N.	c #3E9FEE",
"O.	c #4FAFFE",
"P.	c #4EAFFD",
"Q.	c #4EAEFC",
"R.	c #4EADFB",
"S.	c #4DACF9",
"T.	c #4EB8FF",
"U.	c #46B9FF",
"V.	c #8C7578",
"W.	c #E35723",
"X.	c #FF662F",
"Y.	c #FF6C38",
"Z.	c #FF6F36",
"`.	c #FF692B",
" +	c #B2491E",
".+	c #40ADF3",
"++	c #49B2FF",
"@+	c #4BA9F7",
"#+	c #4CAAF9",
"$+	c #4CABFA",
"%+	c #4BB5FF",
"&+	c #43B6FF",
"*+	c #8A787D",
"=+	c #E3602E",
"-+	c #FF6933",
";+	c #FF6732",
">+	c #FF6A30",
",+	c #FF6324",
"'+	c #B7471A",
")+	c #2C7DB3",
"!+	c #3FB2FF",
"~+	c #49B3FF",
"{+	c #48A6F5",
"]+	c #49A7F7",
"^+	c #49A8F8",
"/+	c #48B1FF",
"(+	c #897379",
"_+	c #E35927",
":+	c #FF632C",
"<+	c #FF6528",
"[+	c #FF5E1D",
"}+	c #B74315",
"|+	c #2C7DB7",
"1+	c #3DAEFF",
"2+	c #46AEFF",
"3+	c #46A3F2",
"4+	c #47A4F4",
"5+	c #47A5F5",
"6+	c #896E75",
"7+	c #E35423",
"8+	c #FF5F28",
"9+	c #FF6023",
"0+	c #FF5918",
"a+	c #B64011",
"b+	c #786A78",
"c+	c #3BABFF",
"d+	c #43ABFF",
"e+	c #44A0F0",
"f+	c #44A1F1",
"g+	c #44ACFF",
"h+	c #886B73",
"i+	c #E45121",
"j+	c #FF5B25",
"k+	c #FF5C20",
"l+	c #FF5514",
"m+	c #B63D0E",
"n+	c #D4420D",
"o+	c #866871",
"p+	c #38A7FF",
"q+	c #41A7FF",
"r+	c #429DEE",
"s+	c #40A7FF",
"t+	c #876872",
"u+	c #E44D1E",
"v+	c #FF5722",
"w+	c #FF581D",
"x+	c #FF5011",
"y+	c #B6390C",
"z+	c #B33509",
"A+	c #E3420B",
"B+	c #856771",
"C+	c #36A5FF",
"D+	c #3FA6FF",
"E+	c #419DF1",
"F+	c #88646E",
"G+	c #E44A1B",
"H+	c #FF531F",
"I+	c #FF531A",
"J+	c #FF4B0D",
"K+	c #B63609",
"L+	c #B73308",
"M+	c #E33F09",
"N+	c #846470",
"O+	c #33A2FF",
"P+	c #41B0FF",
"Q+	c #3FAEFF",
"R+	c #87616D",
"S+	c #E5471A",
"T+	c #FF501D",
"U+	c #FF5017",
"V+	c #FF470B",
"W+	c #B33208",
"X+	c #B63106",
"Y+	c #E33C07",
"Z+	c #885E66",
"`+	c #3F96E9",
" @	c #8D5B61",
".@	c #E34518",
"+@	c #FD4D1B",
"@@	c #FF4D15",
"#@	c #FF4408",
"$@	c #B33006",
"%@	c #B62E04",
"&@	c #E63905",
"*@	c #C0360E",
"=@	c #BA3712",
"-@	c #E14316",
";@	c #F84A19",
">@	c #FF4812",
",@	c #FF4006",
"'@	c #B32D04",
")@	c #B62C04",
"!@	c #FF3E05",
"~@	c #FF4712",
"{@	c #F84918",
"]@	c #FF4611",
"^@	c #B02B03",
"/@	c #B62901",
"(@	c #FF3A02",
"_@	c #FF470F",
":@	c #FF460E",
"<@	c #B02801",
"[@	c #AD2601",
"}@	c #F93701",
"|@	c #A52401",
"                                                                ",
"                                                                ",
"                                                                ",
"                                . + @ # # @ + . $               ",
"                              % & * = - ; > , ' ) #             ",
"                            ! ~ { ] ^ / / / ( _ : <             ",
"                          [ } | 1 [ 2 3 3 3 4 5 6 7             ",
"                        8 9 0 a b c 3 d e f 3 g h i j           ",
"                      k l m n o p 3 q r s t 3 u v w x y         ",
"                    z A B o C D E 3 F G H I 3 J K L M N         ",
"                  O P Q R S T U V 3 W X Y 3 Z `  ...+.@.        ",
"                #.$.%.S b &.&.b *.3 3 3 3 =.Z -.;.>.,.'.        ",
"              ).!.~.{.].^.^.^.]./.(._.:.<.[.}.[ |.1.2.3.        ",
"            4.5.6.7.8.-.-.9.9.-.8.8.^.0.9.a.b.c.d.e.f.g.        ",
"          h.i.j.k.l.m.m.n.n.n.n.n.n.o.p.p.q.r.s.t.u.v.w.        ",
"        x.y.z.m.o.A.A.B.B.B.B.B.C.D.D.D.E.F.G.H.I.J.K.L.        ",
"        M.N.O.O.P.Q.Q.Q.Q.Q.Q.R.S.S.S.T.U.V.W.X.Y.Z.`. +        ",
"        .+++@+@+#+$+$+$+$+$+#+@+@+@+%+&+*+=+-+;+>+,+'+          ",
"        )+!+~+{+{+]+^+^+^+]+{+{+{+/+!+(+_+:+:+<+[+}+            ",
"          |+1+2+3+3+4+5+4+3+3+3+2+1+6+7+8+8+9+0+a+              ",
"            b+c+d+e+e+f+e+e+e+g+c+h+i+j+j+k+l+m+                ",
"            n+o+p+q+r+r+r+r+s+p+t+u+v+v+w+x+y+                  ",
"            z+A+B+C+D+E+E+D+C+F+G+H+H+I+J+K+                    ",
"              L+M+N+O+P+Q+O+R+S+T+T+U+V+W+                      ",
"                X+Y+Z+`+`+ @.@+@+@@@#@$@                        ",
"                  %@&@*@=@-@;@;@>@,@'@                          ",
"                    )@!@~@{@{@]@!@^@                            ",
"                      /@(@_@:@(@<@                              ",
"                        [@}@}@|@                                ",
"                          [@[@                                  ",
"                                                                ",
"                                                                "};
