/* XPM */
static const char * product_type_new_16x16_xpm[] = {
"16 16 41 1",
" 	c None",
".	c #538C28",
"+	c #B5B5B5",
"@	c #87BA60",
"#	c #FFFFFF",
"$	c #578F2D",
"%	c #FDFDFD",
"&	c #E2E2E2",
"*	c #FBFBFB",
"=	c #E8F3FB",
"-	c #BDE3FD",
";	c #FCFCFC",
">	c #EAF5FD",
",	c #8ACFFE",
"'	c #83CCFF",
")	c #BCE2FD",
"!	c #E7F3FB",
"~	c #89CEFE",
"{	c #96D4FF",
"]	c #9AD5FF",
"^	c #8BCFFF",
"/	c #D3EBFB",
"(	c #98D4FF",
"_	c #9ED7FF",
":	c #9BD6FF",
"<	c #D6ECFB",
"[	c #88CDFD",
"}	c #98D5FF",
"|	c #89CEFF",
"1	c #BAE1FD",
"2	c #9CD6FF",
"3	c #8ED0FF",
"4	c #8DCCF7",
"5	c #FBFCFD",
"6	c #86CDFD",
"7	c #8CCFFF",
"8	c #97D1FA",
"9	c #F3F7F9",
"0	c #D5ECFB",
"a	c #97D2FD",
"b	c #F7FBFD",
"          ..... ",
"+++++++  ..@#@$.",
"+%%%%%&+ .@@#@@.",
"+%+++%%&+.#####.",
"+%+ +%*%&.@@#@@.",
"+%+++%=-%..@#@..",
"+%%;%>,')%..... ",
"+&%%!~{]^)%&+   ",
" +&%/'(_:^)%&+  ",
"  +&%<[}_:|1%&+ ",
"   +&%<[}2345&+ ",
"    +&%<6789&+  ",
"     +&%0ab&+   ",
"      +&%%&+    ",
"       +&&+     ",
"        ++      "};
