/* XPM */
static const char * product_move_16x16_xpm[] = {
"16 16 36 1",
" 	c None",
".	c #2A9020",
"+	c #88F053",
"@	c #87ED53",
"#	c #84EA51",
"$	c #86ED52",
"%	c #82E84F",
"&	c #80E64D",
"*	c #7EE44B",
"=	c #7CE249",
"-	c #7AE047",
";	c #78DE45",
">	c #90F357",
",	c #81E74D",
"'	c #7FE54B",
")	c #7FE64B",
"!	c #80E54B",
"~	c #7EE349",
"{	c #7CE147",
"]	c #288F1A",
"^	c #8BEF52",
"/	c #80E449",
"(	c #32901B",
"_	c #298F17",
":	c #299017",
"<	c #279015",
"[	c #FF4600",
"}	c #8FF450",
"|	c #29921D",
"1	c #FFB200",
"2	c #FFA200",
"3	c #FF9000",
"4	c #FF8000",
"5	c #FF6F00",
"6	c #FF6000",
"7	c #FF5200",
"     .          ",
"    ..          ",
"   .+.          ",
"  .@#.....      ",
" .$%&*=-;.      ",
" .>,')!~{]      ",
"  .^/(_:<.[     ",
"   .}|    [[    ",
"    ..    [1[   ",
"     .[[[[[22[  ",
"      [3333333[ ",
"      [4444444[ ",
"      [[[[[55[  ",
"          [6[   ",
"          [7    ",
"          [     "};
