/* XPM */
static const char * purchase_16x16_xpm[] = {
"16 16 9 1",
" 	c None",
".	c #555555",
"+	c #DDDDDD",
"@	c #EEEEEE",
"#	c #AAAAAA",
"$	c #BBBBBB",
"%	c #888888",
"&	c #CCCCCC",
"*	c #FFFFFF",
"                ",
"                ",
"@%$             ",
"# %$$$$$$$$$$$$+",
"#%%*@*@*@*@*@*@#",
"  %@$$$$$#$#$#$%",
"  %*&*&@#@#@#+#%",
"  %&*&@&@#@#+#+%",
"  %@#@$+#@#+#+%+",
"  %$+#+#+#+#+%% ",
"  $%%%%%%%%%%%  ",
"   %            ",
"   %%%%%%%%%%%  ",
"  $..      ..$  ",
"   %$      $%   ",
"                "};
