/* XPM */
static const char * refresh_xpm[] = {
"32 32 19 1",
" 	c None",
".	c #3A7304",
"+	c #BADA9B",
"@	c #306137",
"#	c #78BE34",
"$	c #A4D376",
"%	c #A5D578",
"&	c #A7D679",
"*	c #A7D67A",
"=	c #A8D77C",
"-	c #A9D77D",
";	c #ABD880",
">	c #B7DC92",
",	c #BCDF9B",
"'	c #BDDE9D",
")	c #BDDE9E",
"!	c #BDDD9E",
"~	c #BCDC9E",
"{	c #A7CC85",
"                  .             ",
"                  ..            ",
"                  .+@           ",
"                  .++@          ",
"                  .+#+@         ",
"   ................+##+@        ",
"   .$%&*=-;>,')!~+++###{@       ",
"   .$###################{@      ",
"   .$####################{@     ",
"   .$###################{@      ",
"   .$%&*=-;>,')!~+++###{@       ",
"   ................+##+@        ",
"                  .+#+@         ",
"                  .++@          ",
"                  .+@           ",
"             .    ..            ",
"            ..    .             ",
"           @+.                  ",
"          @++.                  ",
"         @+#+.                  ",
"        @+##+................   ",
"       @{###+++~!)',>;-=*&%$.   ",
"      @{###################$.   ",
"     @{####################$.   ",
"      @{###################$.   ",
"       @{###+++~!)',>;-=*&%$.   ",
"        @+##+................   ",
"         @+#+.                  ",
"          @++.                  ",
"           @+.                  ",
"            ..                  ",
"             .                  "};
