/* XPM */
static const char * report_16x16_xpm[] = {
"16 16 50 1",
" 	c None",
".	c #615229",
"+	c #6B5B32",
"@	c #A7A4A7",
"#	c #564720",
"$	c #4A3C17",
"%	c #B5AA8C",
"&	c #D6D3D6",
"*	c #A77A00",
"=	c #A59874",
"-	c #6A5B33",
";	c #F7F7F7",
">	c #968965",
",	c #FFFFFF",
"'	c #FEFEFD",
")	c #FEFEFE",
"!	c #FAFAF6",
"~	c #FBFAF6",
"{	c #FBFAF7",
"]	c #B1A586",
"^	c #F5F3EB",
"/	c #F4F3EB",
"(	c #F4F3EC",
"_	c #F5F3EC",
":	c #EFECE0",
"<	c #EFEDE0",
"[	c #EFEDE1",
"}	c #F0EDE1",
"|	c #EAE6D5",
"1	c #E9E6D5",
"2	c #E9E6D6",
"3	c #EAE7D6",
"4	c #EAE6D6",
"5	c #E9E7D6",
"6	c #E4DFCA",
"7	c #E4E0CB",
"8	c #E3E0CB",
"9	c #E4E0CC",
"0	c #E5E0CB",
"a	c #DEDAC0",
"b	c #DED9C0",
"c	c #DFDAC0",
"d	c #DFD9C0",
"e	c #DEDAC1",
"f	c #D8D3B5",
"g	c #D9D3B5",
"h	c #D9D3B6",
"i	c #8C7E57",
"j	c #8A7A4F",
"k	c #56420D",
"      ....      ",
"  ++++.@@.###$  ",
" +%%%.&**&.==-$ ",
" +%%#;;;;;;#>-$ ",
" .%,########,-$ ",
" .%''')''))')-$ ",
" .%!!!~!~!{!{-$ ",
" #]^^/^(_^__^-$ ",
" #]:<<<[[[[}[-$ ",
" #]|123424554-$ ",
" $=6787779770-$ ",
" $=abbbbcadec-$ ",
" $=fggghhhhhh-$ ",
" $===>>>iiijj-$ ",
" $-----------k$ ",
"  $$$$$$$$$$$$  "};
