/* XPM */
static char * reserva_16x16_xpm[] = {
"16 16 129 2",
"  	c None",
". 	c #FBFBFB",
"+ 	c #FFEE69",
"@ 	c #FFE54E",
"# 	c #FFFB98",
"$ 	c #BDBDBD",
"% 	c #CD9101",
"& 	c #D9D9D9",
"* 	c #985D01",
"= 	c #FFD21B",
"- 	c #C0C0C0",
"; 	c #FFF172",
"> 	c #C3C3C3",
", 	c #FFC200",
"' 	c #C2C2C2",
") 	c #F7B900",
"! 	c #FEC000",
"~ 	c #C99315",
"{ 	c #DBA917",
"] 	c #8B6417",
"^ 	c #C99412",
"/ 	c #E0C95E",
"( 	c #FAFAFA",
"_ 	c #CB930D",
": 	c #C6C6C6",
"< 	c #8A641C",
"[ 	c #CCA240",
"} 	c #DEAC16",
"| 	c #C7A440",
"1 	c #DDB02B",
"2 	c #98978C",
"3 	c #FDEA70",
"4 	c #FFDB34",
"5 	c #846B29",
"6 	c #FFC500",
"7 	c #FFE859",
"8 	c #D8C388",
"9 	c #FFF37A",
"0 	c #8D6527",
"a 	c #FFF276",
"b 	c #FFD016",
"c 	c #FFEF70",
"d 	c #C59117",
"e 	c #FFCB07",
"f 	c #CEA331",
"g 	c #FFE349",
"h 	c #FFF384",
"i 	c #C4C1A1",
"j 	c #E1CC65",
"k 	c #887A5F",
"l 	c #E0BA37",
"m 	c #A17219",
"n 	c #9D6711",
"o 	c #FFFB8C",
"p 	c #FDD943",
"q 	c #9E6600",
"r 	c #965D07",
"s 	c #CACACA",
"t 	c #957030",
"u 	c #F2D654",
"v 	c #D3A12D",
"w 	c #E9D161",
"x 	c #F1B300",
"y 	c #BEBEBE",
"z 	c #985D00",
"A 	c #CD9105",
"B 	c #D8A516",
"C 	c #FFDB35",
"D 	c #FFDE3F",
"E 	c #FFCD0C",
"F 	c #BBBBBB",
"G 	c #FFE044",
"H 	c #C39114",
"I 	c #F3C72B",
"J 	c #E1DEC9",
"K 	c #DBA916",
"L 	c #DBA60E",
"M 	c #FFC802",
"N 	c #F2BE15",
"O 	c #DBAC1F",
"P 	c #FFD930",
"Q 	c #FFDC3A",
"R 	c #C8910B",
"S 	c #FFFB90",
"T 	c #FFEA5E",
"U 	c #F7E678",
"V 	c #B29943",
"W 	c #FFC400",
"X 	c #C2AF66",
"Y 	c #DDB339",
"Z 	c #FCFCFC",
"` 	c #FDDF55",
" .	c #837E53",
"..	c #FFF06E",
"+.	c #FFE654",
"@.	c #C8C8C8",
"#.	c #91988E",
"$.	c #965D04",
"%.	c #FFCC0B",
"&.	c #FFD525",
"*.	c #FFF377",
"=.	c #DBA408",
"-.	c #EDD56F",
";.	c #FCBD00",
">.	c #B68D2F",
",.	c #FFF380",
"'.	c #F5B801",
").	c #935D0B",
"!.	c #7C7749",
"~.	c #FFFB96",
"{.	c #FEEF72",
"].	c #C9910A",
"^.	c #BABABA",
"/.	c #985E03",
"(.	c #FFD320",
"_.	c #FFED70",
":.	c #FFF680",
"<.	c #AA750F",
"[.	c #FFD62B",
"}.	c #FFEC70",
"|.	c #FFF171",
"1.	c #FFF882",
"2.	c #FFCE10",
"3.	c #DBDBDB",
"4.	c #BFBFBF",
"5.	c #CD9100",
"6.	c #BCBCBC",
"7.	c #FDFDFD",
"8.	c #FFFFFF",
"                                ",
"                                ",
"      v v _ ].R ^ X             ",
"f Y Y U {.; 9 :.,.l V           ",
"% h I '., E N =.L B % A ~       ",
"5.3 x ;.M = C @ + 1.~.# # / n   ",
"5.}.) W 2.[.G } K q z * * /.!.  ",
"5._.! e (.Q +...w ]             ",
"5.c 6 b P g ` { H 5             ",
"5.|.%.&.D 7 ; o |  .            ",
"d a = 4 @ + u O <.              ",
"t >.1 p T *.S j m               ",
"    k 0 ).r $.<                 ",
"                                ",
"                                ",
"                                "};
