/* XPM */
static const char *rfid_read_xpm[] = {
"145 113 22 1",
" 	c None",
".	c #FFFFFF",
"+	c #B0B0B0",
"@	c #606060",
"#	c #E0E0E0",
"$	c #A0A0A0",
"%	c #202020",
"&	c #000000",
"*	c #D0D0D0",
"=	c #C0C0C0",
"-	c #303030",
";	c #404040",
">	c #505050",
",	c #F0F0F0",
"'	c #707070",
")	c #101010",
"!	c #808080",
"~	c #909090",
"{	c #EFEFEF",
"]	c #BFBFBF",
"^	c #6F6F6F",
"/	c #4F4F4F",
".................................................................................................................................................",
".................................................................................................................................................",
".................................................................................................................................................",
".................................................................................................................................................",
".................................................................................................................................................",
".................................................................................................................................................",
".................................................................................................................................................",
".................................................................................................................................................",
".................................................................................................................................................",
".................................................................................................................................................",
".................................................................................................................................................",
".................................................................................................................................................",
".................................................................................................................................................",
".................................................................................................................................................",
".................................................................................................................................................",
".................................................................................................................................................",
".................................................................................................................................................",
".............................+@...................................................................................#..............................",
"...........................$%&&+.................................................................................*&@*............................",
".........................=-&&&&;.................................................................................@&&&>#..........................",
".......................,>&&&&&&&#...............................................................................,&&&&&&',........................",
"......................+)&&&&&&&&$...............................................................................!&&&&&&&)+.......................",
"....................,@&&&&&&&&@#................................................................................+;&&&&&&&&>,.....................",
"...................*-&&&&&&&@#....................................................................................=;&&&&&&&%*....................",
"..................*)&&&&&&-=........................................................................................+%&&&&&&)$...................",
".................$&&&&&&&!...........................................................................................,!&&&&&&&~..................",
"................$&&&&&&)=..............................................................................................=%&&&&&&@.................",
"...............$&&&&&&-,................................................................................................,>&&&&&&@................",
"..............$&&&&&&@............#+......................................................................................!&&&&&&@...............",
".............*)&&&&&@...........#@&),........................................................................%@=...........$&&&&&&$..............",
"............,)&&&&&@..........,'&&&&$.......................................................................+&&&>#..........$&&&&&&+.............",
"............;&&&&&@..........+%&&&&&%.......................................................................;&&&&&!..........$&&&&&)#............",
"...........!&&&&&>..........'&&&&&&&&*.....................................................................#&&&&&&&-#.........$&&&&&-............",
"..........*&&&&&-,........,-&&&&&&&;+......................................................................*;&&&&&&&)+.........@&&&&&'...........",
"..........-&&&&)#........*%&&&&&&%$..........................................................................=;&&&&&&&$.........;&&&&&=..........",
".........!&&&&&+........*)&&&&&&',.............................................................................$)&&&&&&@........,)&&&&-..........",
"........#)&&&&>........#)&&&&&)=...........................,$';;!$,.+!;;'$,.....................................#;&&&&&&!........+&&&&&~.........",
"........@&&&&),.......,-&&&&&-#...........................!)&&&&&&)%&&&&&&)!,.....................................'&&&&&&$........>&&&&),........",
".......#&&&&&~........>&&&&&-,..........................,;&&&&&&&&&&&&&&&&&&-,.....................................$&&&&&&=.......,)&&&&!........",
".......@&&&&%........~&&&&&-,..........................,-&&&&&&&&&&&&&&&&&&&&-,.....................................$&&&&&),.......!&&&&),.......",
"......#&&&&&$.......*&&&&&%,............#.............,-&&&&&&&&&&&&&&&&&&&&&&-,.....................................~&&&&&;........%&&&&!.......",
"......!&&&&%........;&&&&)*...........=;&,...........,-&&&&&)!-&&&&&&!*#$)&&&&&-,.......................%@,...........@&&&&&$.......$&&&&%.......",
"......%&&&&$.......$&&&&&~..........,>&&&!..........,-&&&&&)*@&&&&&)*....{-&&&&&-,.....................$&&)~..........,-&&&&),.......)&&&&$......",
".....+&&&&).......,%&&&&;..........*)&&&&%.........,-&&&&&)*@&&&&&)*......{-&&&&&-,....................-&&&&;,.........*&&&&&!.......!&&&&>......",
".....@&&&&'.......~&&&&)#.........$)&&&&&&$.......,-&&&&&)*@&&&&&)*........{-&&&&&-,..................=&&&&&&-*.........!&&&&),......#&&&&&,.....",
".....)&&&&#.......%&&&&!.........+&&&&&&&@#......,-&&&&&)*@&&&&&)*..........{-&&&&&-,.................=%&&&&&&)#........,%&&&&!.......>&&&&$.....",
"....=&&&&-.......+&&&&),........*)&&&&&-*.......,-&&&&&)*@&&&&&)*............{-&&&&&-,..................~)&&&&&-,........$&&&&).......$&&&&>.....",
"....!&&&&'.......>&&&&!........,-&&&&&@,.......,-&&&&&)*@&&&&&)*..............{-&&&&&-,..................*-&&&&&>.........%&&&&+......,&&&&).....",
"....;&&&&=......,&&&&&#........!&&&&&@........,-&&&&&)*@&&&&&)*................{-&&&&&-,..................,-&&&&&+........!&&&&>.......-&&&&*....",
"....&&&&&.......$&&&&>........#&&&&&>........,-&&&&&)*@&&&&&)*..................{-&&&&&-,..................,%&&&&%........#&&&&&.......!&&&&~....",
"...*&&&&;.......@&&&&$........@&&&&),........-&&&&&)*@&&&&&)*....................{-&&&&&-,..................*&&&&&$........-&&&&+......=&&&&@....",
"...$&&&&!.......%&&&&#.......,&&&&&$........!&&&&&)*$&&&&&)*......................{-&&&&&-,..................'&&&&%........~&&&&!......,&&&&-....",
"...!&&&&$......,&&&&-........$&&&&%........,)&&&&)*.%&&&&)*........................{-&&&&&-,.................,)&&&&*.......*&&&&;.......)&&&&....",
"...>&&&&=......=&&&&@........>&&&&$........$&&&&)*.]&&&&&*..........................{-&&&&&-,.................'&&&&'........&&&&).......;&&&&#...",
"...;&&&&,......~&&&&!........&&&&&,........@&&&&$..!&&&&^............................{-&&&&&-,................*&&&&-........;&&&&.......@&&&&=...",
"...;&&&&.......!&&&&=.......*&&&&;.........;&&&&{..^&&&&].............................{-&&&&&-,................)&&&&........>&&&&=......!&&&&=...",
"...&&&&&.......@&&&&=.......=&&&&!.........;&&&&{..^&&&&]..............................{-&&&&&-,...............;&&&&*.......!&&&&=......!&&&&$...",
"...&&&&;.......;&&&&,.......!&&&&!.........>&&&&$..!&&&&!...............................{-&&&&&-,..............!&&&&=.......!&&&&=......~&&&&!...",
"...&&&&;.......;&&&&........!&&&&=.........~&&&&){.+&&&&)*...............................{-&&&&&-,.............!&&&&=.......!&&&&=......=&&&&!...",
"...&&&&;.......;&&&&........!&&&&=.........#&&&&&-{.)&&&&)*...............................{-&&&&&-,............!&&&&=.......!&&&&=......=&&&&!...",
"...&&&&-.......;&&&&#.......~&&&&!..........'&&&&&-{~&&&&&)*...............................{-&&&&&-,...........'&&&&=.......!&&&&=......~&&&&!...",
"...)&&&&.......@&&&&=.......=&&&&'..........,-&&&&&-{;&&&&&)*...............................{-&&&&&'...........;&&&&#.......!&&&&=......!&&&&+...",
"...;&&&&.......!&&&&=.......#&&&&-...........,-&&&&&-#-&&&&&)*...............................{-&&&&&#..........&&&&&........>&&&&=......!&&&&=...",
"...;&&&&,......~&&&&!........)&&&&#...........{-&&&&&-#-&&&&&)*...............................{)&&&&~.........+&&&&;........-&&&&.......@&&&&=...",
"...@&&&&=......=&&&&>........@&&&&!............{-&&&&&-#-&&&&&)*...............................$&&&&>.........@&&&&!........&&&&).......;&&&&,...",
"...!&&&&$......,&&&&%........$&&&&%.............{-&&&&&-#-&&&&&)*..............................{&&&&;........#&&&&&*.......=&&&&;.......)&&&&....",
"...+&&&&'.......%&&&&#........)&&&&!.............{-&&&&&-#-&&&&&)*.............................{&&&&;........>&&&&;........!&&&&!......#&&&&;....",
"...*&&&&;.......@&&&&~........!&&&&)*.............{-&&&&&-#-&&&&&)*............................$&&&&>.......+&&&&&$........-&&&&=......+&&&&@....",
"....)&&&&.......+&&&&-........,)&&&&-,.............{-&&&&&-#-&&&&&)*..........................*)&&&&~......*)&&&&-........*&&&&).......'&&&&~....",
"....;&&&&=.......)&&&&*........~&&&&&-,.............{-&&&&&-#-&&&&&)*........................*)&&&&&{.....*)&&&&&*........'&&&&@.......-&&&&*....",
"....!&&&&'.......@&&&&@.........;&&&&&-#.............{-&&&&&-#-&&&&&)*......................*)&&&&&^.....+)&&&&&!........,)&&&&=......#&&&&).....",
"....*&&&&%.......=&&&&&#........,%&&&&&)~.............{-&&&&&-#-&&&&&)*....................*)&&&&&-{...#>&&&&&&>.........!&&&&%.......~&&&&@.....",
".....%&&&&*.......%&&&&@.........*)&&&&&&%]............{-&&&&&-#-&&&&&)*..................*)&&&&&-{...+&&&&&&&-,........,)&&&&$.......-&&&&$.....",
".....'&&&&@.......$&&&&&*.........*)&&&&&&*.............{-&&&&&-#-&&&&&)*................*)&&&&&-{....#&&&&&&>,.........@&&&&),......#&&&&&,.....",
".....*&&&&),.......%&&&&-..........,;&&&&-...............,-&&&&&-#-&&&&&)*..............*)&&&&&-{....../&&&&!..........=&&&&&~.......@&&&&@......",
"......%&&&&~.......=&&&&&'...........!)&&$................,-&&&&&-#-&&&&&)*............*)&&&&&-{.......+&&-=..........,)&&&&%.......,)&&&&=......",
"......~&&&&%........>&&&&&+...........#@){.................,-&&&&&-#-&&&&&)*..........*)&&&&&-{.........>$............-&&&&&=.......!&&&&%.......",
"......,)&&&&$.......,)&&&&)*................................,-&&&&&-#-&&&&&)*........*)&&&&&-{.......................@&&&&&'.......,)&&&&$.......",
".......!&&&&%,.......+&&&&&)*................................,-&&&&&-#-&&&&&)*......*)&&&&&-{.......................@&&&&&-,.......'&&&&)........",
".......,)&&&&!........'&&&&&)*................................,-&&&&&-#-&&&&&)*....*)&&&&&-{.......................@&&&&&)*.......#&&&&&!........",
"........!&&&&&#........>&&&&&)+................................,-&&&&&)~%&&&&&)~#{$)&&&&&-{......................,-&&&&&&*........;&&&&%.........",
"........,)&&&&;........,-&&&&&&!................................,-&&&&&&&&&&&&&&&&&&&&&&-{......................=)&&&&&&$........~&&&&&+.........",
".........$&&&&&!........,-&&&&&&-*...............................,-&&&&&&&&&&&&&&&&&&&&-{.....................,@&&&&&&&$........*)&&&&;..........",
"..........;&&&&&=........,;&&&&&&&',..............................,-&&&&&&&&&&&&&&&&&&-{....................,!)&&&&&&)*........,-&&&&)#..........",
"..........#)&&&&),.........@&&&&&&&)!#.............................,'&&&&&&&))&&&&&&)!.....................+)&&&&&&&-*.........>&&&&&~...........",
"...........$&&&&&-,.........$)&&&&&&&$...............................,~@;;'$,,$@;;@${......................]&&&&&&&',.........@&&&&&>............",
"............@&&&&&-,.........#;&&&&&).......................................................................%&&&&%=..........@&&&&&%,............",
"............,-&&&&&@,..........+%&&&^.......................................................................~&&)!...........@&&&&&)*.............",
".............,)&&&&&-,...........$%&#.......................................................................{%~,...........@&&&&&&+..............",
"..............*)&&&&&-,............+.....................................................................................,>&&&&&&$...............",
"...............*)&&&&&)*................................................................................................*-&&&&&&$................",
"................*)&&&&&&~..............................................................................................~)&&&&&&$.................",
".................*)&&&&&&;#..........................................................................................#;&&&&&&)$..................",
"..................,-&&&&&&)!.......................................................................................,!&&&&&&&%*...................",
"...................,@&&&&&&&%$...................................................................................,!)&&&&&&&;,....................",
".....................~)&&&&&&&%$................................................................................')&&&&&&&&~......................",
"......................#;&&&&&&&&;...............................................................................-&&&&&&&;*.......................",
"........................~)&&&&&&!...............................................................................$&&&&&)$.........................",
".........................,'&&&&&#...............................................................................{)&&)!,..........................",
"...........................#@&&/.................................................................................@%~,............................",
".............................#!].................................................................................{...............................",
".................................................................................................................................................",
".................................................................................................................................................",
".................................................................................................................................................",
".................................................................................................................................................",
".................................................................................................................................................",
".................................................................................................................................................",
".................................................................................................................................................",
".................................................................................................................................................",
".................................................................................................................................................",
".................................................................................................................................................",
".................................................................................................................................................",
"................................................................................................................................................."};
