/* XPM */
static const char * sale_16x16_xpm[] = {
"16 16 79 1",
" 	c None",
".	c #000000",
"+	c #618C36",
"@	c #699F33",
"#	c #6AA72D",
"$	c #6DA832",
"%	c #76B438",
"&	c #7ABB3A",
"*	c #7EBF3D",
"=	c #7BAE48",
"-	c #7CB644",
";	c #81BB47",
">	c #80BE41",
",	c #84BB4E",
"'	c #8BAB6B",
")	c #8DB168",
"!	c #8EB864",
"~	c #99BE76",
"{	c #9DBF7A",
"]	c #8BC84D",
"^	c #8FCC51",
"/	c #91CD54",
"(	c #91D250",
"_	c #96D15B",
":	c #9FDF5F",
"<	c #97C866",
"[	c #9DCB6E",
"}	c #9FC877",
"|	c #9BD661",
"1	c #9CD762",
"2	c #A6CF7E",
"3	c #A2DB69",
"4	c #A3DF68",
"5	c #A5DD6E",
"6	c #A4D673",
"7	c #A7DE71",
"8	c #ADDE7B",
"9	c #A2E560",
"0	c #A6E765",
"a	c #ABE86F",
"b	c #B0E17E",
"c	c #B0E57A",
"d	c #B1EA77",
"e	c #B4EE7A",
"f	c #B5F574",
"g	c #BBF77F",
"h	c #9DB784",
"i	c #AACE86",
"j	c #AFCC92",
"k	c #ADD684",
"l	c #B3D395",
"m	c #BBDA9C",
"n	c #BFDE9F",
"o	c #BCD1A6",
"p	c #B3E482",
"q	c #B7E887",
"r	c #BCEF8A",
"s	c #B9E192",
"t	c #BFE698",
"u	c #C0DDA3",
"v	c #C8DCB3",
"w	c #C1EC95",
"x	c #C0F48B",
"y	c #C1F78B",
"z	c #C2F98B",
"A	c #C5FF8C",
"B	c #C2F391",
"C	c #C6FB90",
"D	c #CCFE99",
"E	c #CDFF9B",
"F	c #C9E6AB",
"G	c #C8ECA3",
"H	c #C9E1B1",
"I	c #CCF1A7",
"J	c #CDF8A3",
"K	c #D0F0B0",
"L	c #D3F2B5",
"M	c #D6EBC1",
"N	c #5C9A1F",
"                ",
"       JK       ",
"     LEACru     ",
"    MD1]-47     ",
"    Iyk6l2[H    ",
"    tzpcn       ",
"    vagfB       ",
"     i^:exG     ",
"       8%>3m    ",
"       w{!/<    ",
"    5dFqjo|=    ",
"    }*09sb;'    ",
"     #&(_$+     ",
"      )N@h      ",
"       ,~       ",
"                "};
