/* XPM */
static const char * scanner_16x16_xpm[] = {
"16 16 30 1",
" 	c None",
".	c #ACCCEA",
"+	c #001840",
"@	c #041844",
"#	c #A4A4A4",
"$	c #ECECEC",
"%	c #909090",
"&	c #D0D0D0",
"*	c #ACCEEC",
"=	c #D4D4D4",
"-	c #D6D6D6",
";	c #EEEEEE",
">	c #949494",
",	c #E8E8E8",
"'	c #E4E4E4",
")	c #DEDCDC",
"!	c #001444",
"~	c #B8C0CC",
"{	c #808080",
"]	c #B08080",
"^	c #FCFAFA",
"/	c #9C9A9A",
"(	c #98989C",
"_	c #FCFCFC",
":	c #C4C4C4",
"<	c #ECECF0",
"[	c #10305C",
"}	c #888888",
"|	c #7C88A0",
"1	c #CCD0D8",
"    .+          ",
"   .@@#         ",
"  .+@$%         ",
" .++&&&%        ",
"*++=&-;>        ",
"++,')!~>{       ",
" ##')''']{      ",
"  %%>>'^'/{     ",
"     {('_,:{    ",
"      {'''''{   ",
"       {:<[<:{  ",
"        {:<_$:} ",
"         {'''': ",
"          {:'!| ",
"           }:|!1",
"              11"};
