/* XPM */
static const char * search_16x13_xpm[] = {
"10 10 10 1",
" 	c None",
".	c #9E9FA0",
"+	c #6C6B6B",
"@	c #6B6A6A",
"#	c #828283",
"$	c #9E9D9D",
"%	c #666565",
"&	c #D4D8DE",
"*	c #A4A4A3",
"=	c #434241",
"   .+@+.  ",
"  #$   $# ",
" .$     $.",
" +       +",
" %       %",
" +       +",
" .$     $.",
" &#$   $# ",
"*=*.+%+.  ",
"=*        "};
