/* XPM */
static const char * search_23x23_xpm[] = {
"23 23 247 2",
"  	c None",
". 	c #FFFFFF",
"+ 	c #7681B4",
"@ 	c #9F9F9F",
"# 	c #87E058",
"$ 	c #FEFEFE",
"% 	c #A9DE91",
"& 	c #202020",
"* 	c #024BAF",
"= 	c #69C330",
"- 	c #4FBB25",
"; 	c #AFB3D5",
"> 	c #039A02",
", 	c #FEFBAD",
"' 	c #A8A8A8",
") 	c #D7EBFE",
"! 	c #7478A4",
"~ 	c #101010",
"{ 	c #71CE47",
"] 	c #FEFEFC",
"^ 	c #6493D3",
"/ 	c #9598BF",
"( 	c #0167CC",
"_ 	c #EFA998",
": 	c #FB3503",
"< 	c #BBDDFE",
"[ 	c #D8AC2E",
"} 	c #515151",
"| 	c #FFAF4B",
"1 	c #858EBA",
"2 	c #62A768",
"3 	c #0F9BFB",
"4 	c #FED110",
"5 	c #32B416",
"6 	c #CAE4FE",
"7 	c #343499",
"8 	c #F1D190",
"9 	c #FFFEFF",
"0 	c #BFBFBF",
"a 	c #FEFFFF",
"b 	c #606060",
"c 	c #0A7105",
"d 	c #4D4C99",
"e 	c #F75A29",
"f 	c #DFEAF5",
"g 	c #FEFD99",
"h 	c #94B451",
"i 	c #B7E8FD",
"j 	c #9ACCFE",
"k 	c #F0C656",
"l 	c #92BDED",
"m 	c #B5B9F3",
"n 	c #19B209",
"o 	c #87A8DC",
"p 	c #ABD7FE",
"q 	c #666B98",
"r 	c #FEFDE4",
"s 	c #FA7145",
"t 	c #DAB341",
"u 	c #6666CB",
"v 	c #000000",
"w 	c #EFEFEF",
"x 	c #F9EB71",
"y 	c #DFDFDF",
"z 	c #C9D6FE",
"A 	c #F3F3F3",
"B 	c #F4DBAC",
"C 	c #CD9A05",
"D 	c #808080",
"E 	c #E0B437",
"F 	c #C2C2C3",
"G 	c #FFFDD4",
"H 	c #E9F4FE",
"I 	c #FAD7CE",
"J 	c #FEE984",
"K 	c #404040",
"L 	c #5879BD",
"M 	c #CFCFCF",
"N 	c #C6F6FD",
"O 	c #AC8327",
"P 	c #F3F9FE",
"Q 	c #D3FEFE",
"R 	c #438C2A",
"S 	c #2E9918",
"T 	c #5757BB",
"U 	c #B5C5D8",
"V 	c #D4DBEA",
"W 	c #DE3207",
"X 	c #2956AB",
"Y 	c #FEDD7B",
"Z 	c #CCEBD8",
"` 	c #8D8E8F",
" .	c #E2F0FE",
"..	c #DECFAF",
"+.	c #FFFDC2",
"@.	c #D5A61D",
"#.	c #FCFFFE",
"$.	c #FFFCFF",
"%.	c #FEC661",
"&.	c #E0E0E1",
"*.	c #3DA625",
"=.	c #CCDAEC",
"-.	c #94A8D6",
";.	c #F2F3FA",
">.	c #FEFFF9",
",.	c #B3BDE2",
"'.	c #AC7C0C",
").	c #FEF38D",
"!.	c #5C5D8C",
"~.	c #B3B3B5",
"{.	c #FFE39A",
"].	c #D1D1D1",
"^.	c #FEFEF0",
"/.	c #AB715D",
"(.	c #FE9C39",
"_.	c #8BBC8D",
":.	c #075004",
"<.	c #303030",
"[.	c #C2CFFE",
"}.	c #F9EFD1",
"|.	c #037EE2",
"1.	c #D8E4EF",
"2.	c #B7D9ED",
"3.	c #F8FDFF",
"4.	c #FCB25D",
"5.	c #A6828D",
"6.	c #F5E6BE",
"7.	c #97A0B1",
"8.	c #FEFEFF",
"9.	c #277D26",
"0.	c #A6AAB9",
"a.	c #EEF8FF",
"b.	c #ED9344",
"c.	c #A1C8EA",
"d.	c #707070",
"e.	c #C6C9DB",
"f.	c #FDE563",
"g.	c #A38FAB",
"h.	c #49AA49",
"i.	c #E0803A",
"j.	c #A0A6CD",
"k.	c #C0CC69",
"l.	c #E1F1E1",
"m.	c #F18266",
"n.	c #FFE03F",
"o.	c #FBFEFC",
"p.	c #A2A3FC",
"q.	c #678E66",
"r.	c #E6CB7E",
"s.	c #BECDE5",
"t.	c #828CA1",
"u.	c #C2D5C0",
"v.	c #B7D0FE",
"w.	c #A0B4DA",
"x.	c #3F3F3F",
"y.	c #F5FAF2",
"z.	c #95D1C7",
"A.	c #C3A666",
"B.	c #D8C39B",
"C.	c #F8F8F8",
"D.	c #F7FAFE",
"E.	c #E1FFFE",
"F.	c #4166B3",
"G.	c #E1C164",
"H.	c #D3D7DE",
"I.	c #19830F",
"J.	c #7FCE7A",
"K.	c #ECF3F8",
"L.	c #39C339",
"M.	c #DCC6BE",
"N.	c #0158BD",
"O.	c #AAD3E3",
"P.	c #CC7F7C",
"Q.	c #BFE6AF",
"R.	c #D1E3F3",
"S.	c #E2F3D9",
"T.	c #4CB0FC",
"U.	c #FCFBFB",
"V.	c #B6A2B7",
"W.	c #E7EFF6",
"X.	c #CAD2DE",
"Y.	c #4D5B6F",
"Z.	c #0F0F0F",
"`.	c #ECE3D0",
" +	c #979699",
".+	c #F9EFDF",
"++	c #A3D1F3",
"@+	c #505050",
"#+	c #E2D6E2",
"$+	c #FDF6F0",
"%+	c #266EC5",
"&+	c #FDD270",
"*+	c #8E96A4",
"=+	c #E0BD4B",
"-+	c #B68E45",
";+	c #E1DDC7",
">+	c #EAB804",
",+	c #C7E4F0",
"'+	c #FAFAFA",
")+	c #E4E5E6",
"!+	c #F0D460",
"~+	c #D9D9DA",
"{+	c #E6D9C0",
"]+	c #72A97D",
"^+	c #FBFCFF",
"/+	c #5B6A82",
"(+	c #8B7D89",
"_+	c #DDEADD",
":+	c #7CC4FC",
"<+	c #9EC7A1",
"[+	c #8EB1E3",
"}+	c #999ACC",
"|+	c #F0F0F8",
"1+	c #FAFAFD",
"2+	c #829ACB",
"3+	c #858586",
"4+	c #F5F6F9",
"5+	c #859187",
"6+	c #BBBCD6",
"7+	c #EEDE9E",
"8+	c #707D92",
"9+	c #B9B9B9",
"0+	c #424243",
"a+	c #F0F9EF",
"b+	c #9A0102",
"c+	c #ABABC8",
"d+	c #3E8A44",
"e+	c #AFAFAF",
"f+	c #ABB8C6",
"g+	c #1BA30E",
"h+	c #8F8F8F",
"i+	c #285E25",
"j+	c #FBFBF8",
"k+	c #88898C",
"l+	c #4C4C4F",
"m+	c #CBAF85",
"n+	c #B9E5BB",
"o+	c #475059",
"p+	c #CDD1E4",
"q+	c #C0C0C0",
"r+	c #EAEAEC",
"s+	c #E2E3F1",
"t+	c #3F45A3",
"u+	c #083FA2",
"v+	c #CEE2D0",
"w+	c #E4CDD1",
"x+	c #B7BCCA",
"                        x+1 + 1 / }+6+        ",
"                    V 1 -.2.i N i O.-./ s+    ",
"                  H.j.V ] a.N N N Q i l 1 y   ",
"                  j.=.. . 6 i p ++p N N l +   ",
"                6+,.a.#.P 6 i i i i i N N -.c+",
"                w.2.E.6 i p i i N N N N Q p + ",
"              s+j.N N i i i N Q Q Q Q Q Q i 1 ",
"              s+j.N i p i N Q Q E.E.E.Q Q Q / ",
"              s+j.N i p i N Q E.E.a.a.E.Q N / ",
"                j.2.N p i Q Q E.3.3.3.P E.,++ ",
"                ,.w.N i i Q Q E.P 3.$ 3.E.s./ ",
"                V }+p N N N Q E.E.3.. $ W./ y ",
"                )+/ 2+2.N Q Q Q E.E.3.W.c+c+  ",
"            B 8 M *+t.2+c.i N Q Q N s.j.;     ",
"          B 4.| -+ +].p+/ 1 / j.c+j.; p+      ",
"        8 %.| i./.g.      H.X.V 1.s+          ",
"      B %.| i./.5.;                           ",
"    8 %.| i./.5.c+                            ",
"  B %.| i./.5.c+                              ",
"B %.| i./.5.c+                                ",
"m+| i./.5.j.                                  ",
"' /./.5.c+                                    ",
"  @ D c+                                      "};
