/* XPM */
static const char *search_16x16_xpm[] = {
"16 16 38 1",
" 	c None",
".	c #8A9499",
"+	c #828486",
"@	c #4D4E50",
"#	c #585A5B",
"$	c #999A9B",
"%	c #C8CED7",
"&	c #F9FEFF",
"*	c #EEFCFF",
"=	c #CACBCB",
"-	c #888C8F",
";	c #E9EFF8",
">	c #DEEFF0",
",	c #DEE7EF",
"'	c #E7F7F7",
")	c #F7F7F6",
"!	c #FAFEFF",
"~	c #FBFEFF",
"{	c #FFFFFF",
"]	c #EFF7F7",
"^	c #B9BBBB",
"/	c #F7FFF6",
"(	c #F7F7FF",
"_	c #F8FEFF",
":	c #DEE7E7",
"<	c #D6DEDE",
"[	c #E8E7EF",
"}	c #DEDEDF",
"|	c #4F636D",
"1	c #BAC9D2",
"2	c #E7EFEF",
"3	c #718998",
"4	c #A9B6BB",
"5	c #656B74",
"6	c #6A7375",
"7	c #64696A",
"8	c #757676",
"9	c #6C7A88",
"   .+@@#+       ",
"  +$%&&*=-.     ",
" +$&;>,,'&$.    ",
".-&>;)!);,!+    ",
"+%;;~{!{~;]^.   ",
"#/,({!{!{!,]#   ",
"#_,!!{{{{!,!#   ",
"#:<[])())]:}|   ",
"+1;;{{{{{;;^.   ",
" +!2;){);,<@    ",
" .$];[,,]<+@3   ",
"  .#4<)<45#+67  ",
"    $6#6. 35.8# ",
"           +6.+#",
"            7986",
"             76 "};
