/* XPM */
static const char * shopping_cart_16x16_xpm[] = {
"16 16 23 1",
" 	c None",
".	c #354551",
"+	c #A1A8C6",
"@	c #A1A9C6",
"#	c #A0A9C6",
"$	c #B5BBD2",
"%	c #B4BBD2",
"&	c #B5BAD1",
"*	c #B4BAD2",
"=	c #B5BAD2",
"-	c #C8CCDE",
";	c #C8CDDE",
">	c #DBDEE9",
",	c #DCDEEA",
"'	c #DBDFEA",
")	c #DCDFE9",
"!	c #DBDFE9",
"~	c #EFF0F6",
"{	c #EEF0F5",
"]	c #EFF0F5",
"^	c #EFF1F6",
"/	c #EFF1F5",
"(	c #6A6A6A",
"                ",
"             ...",
"             .  ",
" .............  ",
".++@#@@++@++..  ",
".$%.&.%.$.*=.   ",
" .--.-.-.-.;.   ",
"  .>,.'.).!!.   ",
"   .~{]^//~].   ",
"    ........    ",
"  ((((((((((    ",
" (              ",
"  ((((((((((((  ",
"     .      .   ",
"    . .    . .  ",
"     .      .   "};
