/* XPM */
static const char * statistic_16x16_xpm[] = {
"16 16 250 2",
"  	c None",
". 	c #4C4C4C",
"+ 	c #575757",
"@ 	c #4963C6",
"# 	c #4A64C7",
"$ 	c #4E68CB",
"% 	c #506ACC",
"& 	c #6D6D6D",
"* 	c #C74C4C",
"= 	c #C94E4E",
"- 	c #5671D0",
"; 	c #5771D3",
"> 	c #5771D4",
", 	c #3FA218",
"' 	c #5874D1",
") 	c #40A419",
"! 	c #CE5353",
"~ 	c #5B75D7",
"{ 	c #5B77D2",
"] 	c #5E78DA",
"^ 	c #CF5757",
"/ 	c #5E7BD3",
"( 	c #44AB1C",
"_ 	c #607BDA",
": 	c #46AE1D",
"< 	c #607FD4",
"[ 	c #637FDC",
"} 	c #6382D5",
"| 	c #667FDF",
"1 	c #6580DF",
"2 	c #D56060",
"3 	c #6682DD",
"4 	c #D86060",
"5 	c #DB6060",
"6 	c #6983E0",
"7 	c #6687D6",
"8 	c #6884E1",
"9 	c #4DB622",
"0 	c #D66565",
"a 	c #878787",
"b 	c #6A87DF",
"c 	c #4FB824",
"d 	c #4DBA23",
"e 	c #6C87E2",
"f 	c #698BD7",
"g 	c #6C88E3",
"h 	c #DE6666",
"i 	c #4FBC25",
"j 	c #D76A6A",
"k 	c #7089E1",
"l 	c #53BB25",
"m 	c #6D8CE1",
"n 	c #6F8BE4",
"o 	c #6C8FD9",
"p 	c #8D8D8D",
"q 	c #708DE5",
"r 	c #E26A6A",
"s 	c #57BE26",
"t 	c #52C126",
"u 	c #738DE3",
"v 	c #D87070",
"w 	c #6E93D9",
"x 	c #7190E3",
"y 	c #7390E6",
"z 	c #E36E6E",
"A 	c #5AC128",
"B 	c #7690E5",
"C 	c #7392E7",
"D 	c #7196DA",
"E 	c #55C629",
"F 	c #D97575",
"G 	c #949494",
"H 	c #5EC429",
"I 	c #7596E5",
"J 	c #7695E8",
"K 	c #58C82B",
"L 	c #749ADB",
"M 	c #7A95E7",
"N 	c #E97373",
"O 	c #61C62C",
"P 	c #DA7A7A",
"Q 	c #7897EA",
"R 	c #E67575",
"S 	c #5BCB2D",
"T 	c #EA7575",
"U 	c #789AE6",
"V 	c #769EDC",
"W 	c #7B99EA",
"X 	c #65C92D",
"Y 	c #7D9AE9",
"Z 	c #EA7878",
"` 	c #DA7F7F",
" .	c #E77A7A",
"..	c #5FCF2E",
"+.	c #7C9DEC",
"@.	c #5ECF32",
"#.	c #68CC2E",
"$.	c #7C9FE9",
"%.	c #5ED12F",
"&.	c #9D9D9D",
"*.	c #7AA3DE",
"=.	c #7F9FEC",
"-.	c #ED7C7C",
";.	c #829EEB",
">.	c #DB8484",
",.	c #62D234",
"'.	c #64D230",
").	c #EB7F7F",
"!.	c #6BCF30",
"~.	c #61D431",
"{.	c #ED7F7F",
"].	c #80A2EE",
"^.	c #E98181",
"/.	c #DC8888",
"(.	c #80A5EB",
"_.	c #6ED131",
":.	c #65D536",
"<.	c #83A4EE",
"[.	c #67D632",
"}.	c #EF8282",
"|.	c #85A4ED",
"1.	c #65D833",
"2.	c #69D43E",
"3.	c #70D332",
"4.	c #83A8EC",
"5.	c #84A7F1",
"6.	c #EF8585",
"7.	c #EB8787",
"8.	c #69D938",
"9.	c #6CD934",
"0.	c #6CD740",
"a.	c #87A9F1",
"b.	c #89A9EF",
"c.	c #6ADC35",
"d.	c #F18989",
"e.	c #87ADEE",
"f.	c #A9A9A9",
"g.	c #F08B8B",
"h.	c #88ADF3",
"i.	c #6EDD3A",
"j.	c #ED8D8D",
"k.	c #70DB41",
"l.	c #AAAAAA",
"m.	c #70DD37",
"n.	c #F18C8C",
"o.	c #8DADF2",
"p.	c #6EE037",
"q.	c #88B2EA",
"r.	c #8BAFF3",
"s.	c #89B1EF",
"t.	c #71E13C",
"u.	c #8CB1F5",
"v.	c #75DE43",
"w.	c #74E138",
"x.	c #F49090",
"y.	c #F29191",
"z.	c #EE9393",
"A.	c #73E439",
"B.	c #8FB3F5",
"C.	c #8DB5F1",
"D.	c #90B3F4",
"E.	c #B0B0B0",
"F.	c #F49393",
"G.	c #E99898",
"H.	c #78E245",
"I.	c #76E53E",
"J.	c #78E53A",
"K.	c #90B6F7",
"L.	c #7DE43B",
"M.	c #F69696",
"N.	c #90B9F3",
"O.	c #F09999",
"P.	c #77E83C",
"Q.	c #94B7F6",
"R.	c #93B8F7",
"S.	c #B4B4B4",
"T.	c #F69898",
"U.	c #7CE83C",
"V.	c #7DE647",
"W.	c #7AE941",
"X.	c #93BBF9",
"Y.	c #F19D9D",
"Z.	c #98BBF8",
"`.	c #7CEC3E",
" +	c #80EA3E",
".+	c #96BDF9",
"++	c #F79D9D",
"@+	c #F89D9D",
"#+	c #7FEC43",
"$+	c #81EA4A",
"%+	c #97BFFB",
"&+	c #F89F9F",
"*+	c #82ED3F",
"=+	c #9BC0F9",
"-+	c #99C1FB",
";+	c #80F140",
">+	c #85ED4C",
",+	c #83F144",
"'+	c #9AC3FD",
")+	c #FAA3A3",
"!+	c #F8A4A4",
"~+	c #BEBEBE",
"{+	c #9CC4FD",
"]+	c #FAA5A5",
"^+	c #9EC4FB",
"/+	c #84F442",
"(+	c #9CC6FE",
"_+	c #87F446",
":+	c #89F24D",
"<+	c #FCA8A8",
"[+	c #FAA9A9",
"}+	c #A1C7FD",
"|+	c #88F744",
"1+	c #FCAAAA",
"2+	c #A0C9FF",
"3+	c #A1C9FE",
"4+	c #8BF748",
"5+	c #8DF54F",
"6+	c #C4C4C4",
"7+	c #A3CAFE",
"8+	c #8BFA45",
"9+	c #FEADAD",
"0+	c #FCAEAE",
"a+	c #A6CCFE",
"b+	c #8EFA49",
"c+	c #90F851",
"d+	c #8EFD48",
"e+	c #C8C8C8",
"f+	c #FEB1B1",
"g+	c #A9CEFF",
"h+	c #93FA52",
"i+	c #FEB2B2",
"j+	c #C9C9C9",
"k+	c #FFB2B2",
"l+	c #ACD0FF",
"m+	c #94FD50",
"n+	c #ADD0FF",
"o+	c #93FF4C",
"p+	c #ADD1FF",
"q+	c #96FD53",
"r+	c #FEB6B6",
"s+	c #CDCDCD",
"t+	c #9AFD5A",
"u+	c #CECECE",
"v+	c #FFB9B9",
"w+	c #9CFF5C",
"x+	c #FFBCBC",
"y+	c #A1FF63",
"z+	c #A1FF64",
"A+	c #A1FF65",
"p . . . . p                     ",
". p+l+g+2+.                     ",
". }+'+N.*..         . . . . p   ",
". ^+%+C.*..       . A+z+y+w+.   ",
". =+X.s.V . . . . . t+q+m+d+.   ",
". Q.u.4.D . x+x+v+. c+4+|+ +. 6+",
". D.h.(.w . i+f+9+. 5+_+/+U.. ~+",
". o.5.$.o . 1+<+Y.. :+,+;+J.. ~+",
". Y C m < . F.x.7.. H.t.p.[.. ~+",
". M q b / . n.d.^.. v.i.c.'.. ~+",
". B g 3 { . 6.}. .. k.8.1.... ~+",
". k 1 _ - . Z T z . 2.,.%.K . ~+",
". | ~ ; % . r h 4 . @.E t d . ~+",
". > # @ @ . ! = = . i ( ) , . ~+",
"  . . . . . . . . . . . . . E.s+",
"    6+~+6+j+e+6+~+6+u+e+6+~+s+  "};
