/* XPM */
static const char * stop_xpm[] = {
"32 32 3 1",
" 	c None",
".	c #9D3434",
"+	c #FF0000",
"                                ",
"                                ",
"  ............................  ",
"  ............................  ",
"  ..++++++++++++++++++++++++..  ",
"  ..++++++++++++++++++++++++..  ",
"  ..++++++++++++++++++++++++..  ",
"  ..++++++++++++++++++++++++..  ",
"  ..++++++++++++++++++++++++..  ",
"  ..++++++++++++++++++++++++..  ",
"  ..++++++++++++++++++++++++..  ",
"  ..++++++++++++++++++++++++..  ",
"  ..++++++++++++++++++++++++..  ",
"  ..++++++++++++++++++++++++..  ",
"  ..++++++++++++++++++++++++..  ",
"  ..++++++++++++++++++++++++..  ",
"  ..++++++++++++++++++++++++..  ",
"  ..++++++++++++++++++++++++..  ",
"  ..++++++++++++++++++++++++..  ",
"  ..++++++++++++++++++++++++..  ",
"  ..++++++++++++++++++++++++..  ",
"  ..++++++++++++++++++++++++..  ",
"  ..++++++++++++++++++++++++..  ",
"  ..++++++++++++++++++++++++..  ",
"  ..++++++++++++++++++++++++..  ",
"  ..++++++++++++++++++++++++..  ",
"  ..++++++++++++++++++++++++..  ",
"  ..++++++++++++++++++++++++..  ",
"  ............................  ",
"  ............................  ",
"                                ",
"                                "};
