/* XPM */
static const char * supplier_16x16_xpm[] = {
"16 16 95 2",
"  	c None",
". 	c #10B009",
"+ 	c #10AF09",
"@ 	c #0FA408",
"# 	c #0E9907",
"$ 	c #0C8D05",
"% 	c #0A7D07",
"& 	c #066C09",
"* 	c #025A0C",
"= 	c #00510D",
"- 	c #8F979F",
"; 	c #9DA7B3",
"> 	c #10AD09",
", 	c #10AC09",
"' 	c #0FA308",
") 	c #0E9807",
"! 	c #0C8C05",
"~ 	c #097D07",
"{ 	c #066B09",
"] 	c #85888D",
"^ 	c #1E1E1E",
"/ 	c #141515",
"( 	c #A3ABB7",
"_ 	c #0FA208",
": 	c #0FA108",
"< 	c #0E9B07",
"[ 	c #0D9306",
"} 	c #0B8806",
"| 	c #087808",
"1 	c #05670A",
"2 	c #01570C",
"3 	c #979BA1",
"4 	c #131414",
"5 	c #151617",
"6 	c #A9B1BB",
"7 	c #0D9506",
"8 	c #0D9106",
"9 	c #0C8905",
"0 	c #066F09",
"a 	c #03600B",
"b 	c #00530D",
"c 	c #4B4C4C",
"d 	c #181818",
"e 	c #515458",
"f 	c #AFB6C0",
"g 	c #0B8706",
"h 	c #0B8306",
"i 	c #097B07",
"j 	c #077009",
"k 	c #04640A",
"l 	c #01560C",
"m 	c #1B1C1D",
"n 	c #37393C",
"o 	c #7B7F85",
"p 	c #9EA3AA",
"q 	c #B3BAC3",
"r 	c #087508",
"s 	c #077109",
"t 	c #056B09",
"u 	c #03610B",
"v 	c #A3A8AF",
"w 	c #ACB4BE",
"x 	c #B0B7C1",
"y 	c #B6BCC5",
"z 	c #BBC0CA",
"A 	c #B7BDC5",
"B 	c #135E23",
"C 	c #135D22",
"D 	c #115B20",
"E 	c #10591F",
"F 	c #0F561F",
"G 	c #0D531D",
"H 	c #0C521C",
"I 	c #0A511A",
"J 	c #0A5019",
"K 	c #4C4D4E",
"L 	c #A7B0BA",
"M 	c #484B4F",
"N 	c #0C0C0D",
"O 	c #AAB2BC",
"P 	c #68767D",
"Q 	c #69757D",
"R 	c #637079",
"S 	c #5F6C75",
"T 	c #606D75",
"U 	c #3F464C",
"V 	c #0C0D0E",
"W 	c #30393F",
"X 	c #515E68",
"Y 	c #8C939B",
"Z 	c #101112",
"` 	c #5B5B5C",
" .	c #5B5C5C",
"..	c #121313",
"+.	c #0F0F10",
"                                ",
"                                ",
"                                ",
"                                ",
"              . + @ # $ % & * = ",
"      - - ;   > , ' ) ! ~ { * = ",
"    ] ^ / ( - _ : < [ } | 1 2 = ",
"  3 ^ 4 5 6   7 7 8 9 ~ 0 a b = ",
"- c d 5 e f - } g h i j k l = = ",
"- m n o p q   r r s t u 2 = = = ",
"v w x y z A ; B C D E F G H I J ",
"K L M N O O ; P Q R S T U V W X ",
"K Y Z ` Z               Z  .Z   ",
"    ` ..`               ` +.`   ",
"                                ",
"                                "};
