/* XPM */
static const char * technical_info_16x16_xpm[] = {
"16 16 68 1",
" 	c None",
".	c #959595",
"+	c #EEA57F",
"@	c #EBA580",
"#	c #E9A17B",
"$	c #F7F7F7",
"%	c #F5F5F5",
"&	c #FFE2B0",
"*	c #FEE1AF",
"=	c #FFE2B2",
"-	c #EAEAEA",
";	c #EFEFEF",
">	c #909090",
",	c #EDEDED",
"'	c #FFD08A",
")	c #FFD28E",
"!	c #E5E5E5",
"~	c #E9E9E9",
"{	c #989898",
"]	c #E7E7E7",
"^	c #EBEBEB",
"/	c #FFC369",
"(	c #FFC163",
"_	c #FFA927",
":	c #E1E1E1",
"<	c #E2E2E2",
"[	c #E8E8E8",
"}	c #DADADA",
"|	c #D0D0D0",
"1	c #CCCCCC",
"2	c #FFA521",
"3	c #FF9D0C",
"4	c #FF9E0B",
"5	c #DFDFDF",
"6	c #CBCBCB",
"7	c #CECECE",
"8	c #FFAD30",
"9	c #FFAC31",
"0	c #FFAE31",
"a	c #C9C9C9",
"b	c #FFBE5C",
"c	c #FFBF5C",
"d	c #CFCFCF",
"e	c #CDCDCD",
"f	c #FFD48C",
"g	c #FFD28A",
"h	c #FFD58D",
"i	c #D2D2D2",
"j	c #D1D1D1",
"k	c #D4D4D4",
"l	c #E5915D",
"m	c #D6D6D6",
"n	c #D5D5D5",
"o	c #D8D8D8",
"p	c #888888",
"q	c #C9CED1",
"r	c #DBDBDB",
"s	c #DDDDDD",
"t	c #9C9C9C",
"u	c #E3E3E3",
"v	c #A0A0A0",
"w	c #DEDEDE",
"x	c #A6A6A6",
"y	c #9B9B9B",
"z	c #F1F1F1",
"A	c #E0E0E0",
"B	c #F8F8F8",
"C	c #B1B1B1",
"  .. ..    +@#  ",
" .$. .%.  +&*=+ ",
".-;. >,;. +'')+ ",
".!~{..]^. +/(_+ ",
".::<[}|1. +234+ ",
" .5}|67.  +890+ ",
" .6111a.  +bbc+ ",
"  .ded.   +fgh+ ",
"  .ijk.    l++  ",
"  .mno{    pqp  ",
"  .r}st    pip  ",
"  .<uuv    pwp  ",
"  .<.rx   pu<sp ",
"  .<.<y   p-~op ",
"  .z<^.   pABCp ",
"   ...     ppp  "};
