/* XPM */
static const char * trademark_16x16_xpm[] = {
"16 16 7 1",
" 	c None",
".	c #AAB6CD",
"+	c #3C5CA4",
"@	c #00309C",
"#	c #003399",
"$	c #E8E7E7",
"%	c #B3C7F4",
"       ..+   +  ",
"      .   +@+   ",
"   ..+#### @@@  ",
"   +$%%%%# @    ",
"   +%%#%%#. @   ",
"   +%%%%%#.$    ",
"   +%%%%%#.$    ",
"   +%%%%.#.$    ",
"   +%%...#.$    ",
"   +.....#.$    ",
"   +.....#.$    ",
"   +.....#.$    ",
"   +.....#.$    ",
"   .++####.$    ",
"    .......$    ",
"     $$$$$$$    "};
