/* XPM */
static const char * upload_32x32_xpm[] = {
"32 32 46 1",
" 	c None",
".	c #173774",
"+	c #93CEE6",
"@	c #80B7D7",
"#	c #9AD6EE",
"$	c #91CCE6",
"%	c #96D1ED",
"&	c #7DB3D7",
"*	c #6C9EC7",
"=	c #94CFEC",
"-	c #7CB1D6",
";	c #6492BC",
">	c #93CAE9",
",	c #6C9BC5",
"'	c #8FC5E8",
")	c #6290BC",
"!	c #406BA0",
"~	c #8DC4EA",
"{	c #5786B6",
"]	c #436A9F",
"^	c #8CC0E7",
"/	c #88BBE6",
"(	c #133674",
"_	c #7BAFE6",
":	c #73A6E2",
"<	c #654B6E",
"[	c #22437D",
"}	c #545759",
"|	c #C2C2C2",
"1	c #525252",
"2	c #E9EBEE",
"3	c #F3F4F6",
"4	c #3DA973",
"5	c #FAFAFA",
"6	c #B1E386",
"7	c #FDFDFD",
"8	c #FFFFFF",
"9	c #F7F7F7",
"0	c #F2F2F2",
"a	c #E3E4E5",
"b	c #777779",
"c	c #DBDBDB",
"d	c #DDDDDD",
"e	c #626262",
"f	c #D2D2D2",
"g	c #484848",
"                                ",
"                .               ",
"               .+.              ",
"              .@#$.             ",
"             .@%%%@.            ",
"            .&%%%%%&.           ",
"           .*=======-.          ",
"          .;>>>>>>>>>,.         ",
"         .;''''''''''';.        ",
"        .)''''''''''''').       ",
"       .!~~~~~~~~~~~~~~~{.      ",
"      .]^^^^^^^^^^^^^^^^^].     ",
"     ........///////........    ",
"            (_______(           ",
"            (:::::::(           ",
"            <:::::::<           ",
"            [((((((([           ",
"                                ",
"  }}}}}}}}}}}}}}}}}}}}}}}}}}}}  ",
" }||||||||||||||||||||||||||||1 ",
"}222222222222222222222222222222}",
"}333333333333333333333334444433}",
"}555555555555555555555554666455}",
"}777777777777777777777784666477}",
"}777777777777777777777774444477}",
"}999999999999999999999999999999}",
"}000000000000000000000000000000}",
"}aaabbbbbbbbbbbbbbbbbbbbbbbaaaa}",
"}cccdcccdccddcccdcccdccccccdccc}",
" effffffffffffffffffffffffffffe ",
"  gggggggggggggggggggggggggggg  ",
"                                "};
