/* XPM */
static const char * user_edit_32x32_xpm[] = {
"32 32 63 1",
" 	c None",
".	c #DEDEDE",
"+	c #999999",
"@	c #7B7B7B",
"#	c #ABABAB",
"$	c #D6D6D6",
"%	c #171717",
"&	c #000000",
"*	c #101010",
"=	c #3A3A3A",
"-	c #EFEFEF",
";	c #333333",
">	c #868686",
",	c #E6E6E6",
"'	c #525252",
")	c #CCCCCC",
"!	c #C5C5C5",
"~	c #464646",
"{	c #595959",
"]	c #BCBCBC",
"^	c #424242",
"/	c #666666",
"(	c #080808",
"_	c #6595A1",
":	c #8699A4",
"<	c #19395B",
"[	c #A5A5A5",
"}	c #5789A0",
"|	c #548D99",
"1	c #5F7B91",
"2	c #36688E",
"3	c #F1F6FC",
"4	c #6E9BA7",
"5	c #C5C6C6",
"6	c #FCFCFB",
"7	c #FDFAFA",
"8	c #B0B9C3",
"9	c #95CCF0",
"0	c #B3B3B3",
"a	c #FFFDFC",
"b	c #DDE1E4",
"c	c #2A2A2A",
"d	c #97BCD5",
"e	c #83A6C0",
"f	c #C0C1C1",
"g	c #F0F0F0",
"h	c #6F8295",
"i	c #7B8B96",
"j	c #7D7F81",
"k	c #E0E5EA",
"l	c #78919C",
"m	c #4A535E",
"n	c #F5F6F8",
"o	c #BCBCBD",
"p	c #8DB7D3",
"q	c #8C8C8C",
"r	c #B7B7B8",
"s	c #89B0CB",
"t	c #ABACAD",
"u	c #1E1E1E",
"v	c #9D9D9E",
"w	c #959594",
"x	c #7C949F",
"                                ",
"                                ",
"                                ",
"                                ",
"             .+@#$              ",
"           .+%&&&*=+-           ",
"          .;&&&&&&&&>           ",
"          @&&&&&&&&&*$          ",
"         ,;&&&&&&&&&&>          ",
"         $;&&&&&&&&&&'-         ",
"        -);&&&&&&&&&&=$         ",
"        -!=&&&&&&&&&&~)-        ",
"        -!'&&&&&&&&&&{)-        ",
"        -]=&&&&&&&&&&=!-        ",
"        -]^&&&&&&&&&&^!-        ",
"        -!/&&&&&&&&&&/!-        ",
"        -)@(&&&&&____________ :<",
"        -)[;&&&&&}|}|}|}|}|}1234",
"        -)#'&&&&&56666666678292 ",
"        -.0@%&&&&5a6666666b292  ",
"         ,!>c&&&&5adddddde292   ",
"          .=&&&&&faaaaaag292h   ",
"         $@&&&&&&fadddddij2kl   ",
"      -]{*(&&&&&&faaaaaam5nal   ",
"    !/^&&*&&&&&&&oappppppppal   ",
"  0^&&(*(&&&&&&&&oaaaaaaaaaal[- ",
" q&&&&*&&&&&&&&&&rassssssssal&q ",
",c&&&&&&&&&&&&&&&raaaaaaaaaal&^-",
")c&&&&&&&&&&&&&&&taeeeeeeeeal&c)",
"+u&&&&&&&&&&&&&&&vaaaaaaaaaal&c!",
"/%&&&&&&&&&&&&&&&waaaaaaaaaal&uq",
"{u***************lllllllllllx*u{"};
