/* XPM */
static const char * user_32x32_xpm[] = {
"32 32 30 1",
" 	c None",
".	c #000000",
"+	c #7B7B7B",
"@	c #2A2A2A",
"#	c #CCCCCC",
"$	c #ABABAB",
"%	c #464646",
"&	c #101010",
"*	c #DEDEDE",
"=	c #999999",
"-	c #3A3A3A",
";	c #666666",
">	c #171717",
",	c #EFEFEF",
"'	c #C5C5C5",
")	c #868686",
"!	c #BCBCBC",
"~	c #A5A5A5",
"{	c #080808",
"]	c #D6D6D6",
"^	c #E6E6E6",
"/	c #595959",
"(	c #424242",
"_	c #333333",
":	c #1E1E1E",
"<	c #8C8C8C",
"[	c #666666",
"}	c #999999",
"|	c #B3B3B3",
"1	c #525252",
"                                ",
"                                ",
"                                ",
"                                ",
"             *=+$]              ",
"           *=>...&-=,           ",
"          *_........)           ",
"          +.........&]          ",
"         ^_..........)          ",
"         ]_..........1,         ",
"        ,#_..........-]         ",
"        ,'-..........%#,        ",
"        ,'1........../#,        ",
"        ,!-..........-',        ",
"        ,!(..........(',        ",
"        ,';..........;',        ",
"        ,#+{........{+',        ",
"        ,#~_........_~',        ",
"        ,#$1........1~#,        ",
"        ,*|+>......>+|*,        ",
"         ^')@......_<'^         ",
"          *-........-*          ",
"         ]+..........+#         ",
"      ,!/&{...........{%~^      ",
"    ';(..&..............._;!,   ",
"  |(..{&{...................@~, ",
" <....&.......................< ",
"^@............................(,",
"#@............................@#",
"=:............................@'",
";>............................:<",
"/:&&&&&&&&&&&&&&&&&&&&&&&&&&&&:/"};
