/* XPM */
static const char * usergroup_16x16_xpm[] = {
"16 16 107 2",
"  	c None",
". 	c #0E0705",
"+ 	c #A43F14",
"@ 	c #274CD2",
"# 	c #239023",
"$ 	c #A4A4A4",
"% 	c #4C556C",
"& 	c #D09F47",
"* 	c #6C1D08",
"= 	c #307991",
"- 	c #5588D5",
"; 	c #256625",
"> 	c #64605A",
", 	c #B78B3A",
"' 	c #FF9933",
") 	c #8FE08F",
"! 	c #DFEFFF",
"~ 	c #75D275",
"{ 	c #99CCFF",
"] 	c #4FC14F",
"^ 	c #666666",
"/ 	c #3F3F3F",
"( 	c #5676EF",
"_ 	c #6F582C",
": 	c #848484",
"< 	c #AE9A69",
"[ 	c #A27213",
"} 	c #E6922D",
"| 	c #545454",
"1 	c #3CB73C",
"2 	c #4574D7",
"3 	c #E4C084",
"4 	c #67AB80",
"5 	c #282828",
"6 	c #36508C",
"7 	c #4A4A4A",
"8 	c #4D65B1",
"9 	c #44A644",
"0 	c #5B2C10",
"a 	c #D77126",
"b 	c #997342",
"c 	c #FFAF49",
"d 	c #EDA843",
"e 	c #952F10",
"f 	c #647CFD",
"g 	c #C05A1E",
"h 	c #D2AB63",
"i 	c #66A96A",
"j 	c #379048",
"k 	c #ACD9BF",
"l 	c #80B380",
"m 	c #7E7E7E",
"n 	c #942910",
"o 	c #577D37",
"p 	c #885F13",
"q 	c #C68523",
"r 	c #6E4C7F",
"s 	c #4266E0",
"t 	c #4F214C",
"u 	c #717171",
"v 	c #66CC66",
"w 	c #D7A957",
"x 	c #385935",
"y 	c #EAD0A3",
"z 	c #C3953F",
"A 	c #586BFD",
"B 	c #57342E",
"C 	c #B34D1A",
"D 	c #B67D24",
"E 	c #FFA23D",
"F 	c #4E68F1",
"G 	c #5980EB",
"H 	c #1A1A1A",
"I 	c #666666",
"J 	c #F99131",
"K 	c #5E5E60",
"L 	c #339933",
"M 	c #4DB34D",
"N 	c #D06A24",
"O 	c #5063F9",
"P 	c #F2B34D",
"Q 	c #FFB751",
"R 	c #333333",
"S 	c #6984FD",
"T 	c #5BC55B",
"U 	c #3151DC",
"V 	c #8F8F8F",
"W 	c #BC561C",
"X 	c #BA7915",
"Y 	c #A03A14",
"Z 	c #666666",
"` 	c #121212",
" .	c #68290D",
"..	c #E8F7FF",
"+.	c #7CD77C",
"@.	c #C66020",
"#.	c #FFB34D",
"$.	c #FFA640",
"%.	c #DE7329",
"&.	c #5C72FD",
"*.	c #536DF3",
"=.	c #F1922C",
"-.	c #52C252",
";.	c #B7511B",
">.	c #F79436",
",.	c #FFBB55",
"'.	c #6D8BFC",
"                                ",
"                    , , ,       ",
"    u K K ^       , 3 y & <     ",
"  R ^ V $ 7 7   h D w h & [ <   ",
"u 7 / 7 + @.p m w P P ,.Q d u   ",
"5 R _ J ' >.N > & c c #.c } ^   ",
"` 5 e a a a g > z $.$.$.$.q u   ",
"/ H 0 C W ;.e | < =.' ' =._ :   ",
"  H .  .Y e * | i b X D o 7     ",
"    8 t B r 8 = +.) ..k T 9     ",
"  s S G { { ( A 4 l ! M ~ ] j u ",
"- O f '.- { *.A = M i v -.1 # u ",
"s U O &.F 2 F @ x x L j L ; x u ",
"u 8 6 6 6 6 % ^ u u u u u u u u ",
"  u u u u u u u u               ",
"                                "};
