/* XPM */
static const char * user_add_32x32_xpm[] = {
"32 32 145 2",
"  	c None",
". 	c #DEDEDE",
"+ 	c #999999",
"@ 	c #7B7B7B",
"# 	c #ABABAB",
"$ 	c #D6D6D6",
"% 	c #171717",
"& 	c #000000",
"* 	c #101010",
"= 	c #3A3A3A",
"- 	c #EFEFEF",
"; 	c #333333",
"> 	c #868686",
", 	c #E6E6E6",
"' 	c #525252",
") 	c #CCCCCC",
"! 	c #C5C5C5",
"~ 	c #464646",
"{ 	c #595959",
"] 	c #BCBCBC",
"^ 	c #424242",
"/ 	c #666666",
"( 	c #080808",
"_ 	c #C6D6E7",
": 	c #CED6EF",
"< 	c #C6D6EF",
"[ 	c #A5A5A5",
"} 	c #E7EFF7",
"| 	c #F7F7F7",
"1 	c #FFFFFF",
"2 	c #DEE7F7",
"3 	c #EFEFF7",
"4 	c #D6E7F7",
"5 	c #B5D6F7",
"6 	c #ADCEEF",
"7 	c #ADC6EF",
"8 	c #C6CEE7",
"9 	c #B3B3B3",
"0 	c #AACDEF",
"a 	c #90B5E7",
"b 	c #B0CFF0",
"c 	c #9EC2EB",
"d 	c #ACCDEF",
"e 	c #9CBDEF",
"f 	c #D6DEEF",
"g 	c #2A2A2A",
"h 	c #B5CEEF",
"i 	c #93BDED",
"j 	c #B4CCF0",
"k 	c #7DA8EA",
"l 	c #6D95DD",
"m 	c #739BDE",
"n 	c #7CA6E6",
"o 	c #90AFEB",
"p 	c #99B8EE",
"q 	c #94B5E7",
"r 	c #F7F7FF",
"s 	c #6BA5E7",
"t 	c #A5C5F0",
"u 	c #6691DA",
"v 	c #5D86D8",
"w 	c #799BDB",
"x 	c #517FD8",
"y 	c #7EA1E5",
"z 	c #316BCE",
"A 	c #EFF7F7",
"B 	c #5A94DE",
"C 	c #6B9EE4",
"D 	c #6F98DD",
"E 	c #808BDC",
"F 	c #F6F9FB",
"G 	c #A0B3EA",
"H 	c #5080D7",
"I 	c #4374D0",
"J 	c #104DC5",
"K 	c #8CADE7",
"L 	c #FFF7F7",
"M 	c #538BDE",
"N 	c #6C99E0",
"O 	c #6E93DB",
"P 	c #2C61D2",
"Q 	c #6D8CD6",
"R 	c #84ADE7",
"S 	c #4384D6",
"T 	c #6F9AE1",
"U 	c #89A6E5",
"V 	c #3D70D3",
"W 	c #EFE7E7",
"X 	c #9CB5E7",
"Y 	c #3B75D6",
"Z 	c #5885D9",
"` 	c #6690DC",
" .	c #6F96DC",
"..	c #A6BFDD",
"+.	c #6E90DF",
"@.	c #4C7FD1",
"#.	c #2E65CF",
"$.	c #84A5D6",
"%.	c #E7E7DE",
"&.	c #BDCEE7",
"*.	c #8C8C8C",
"=.	c #396BCE",
"-.	c #3365CF",
";.	c #3868D0",
">.	c #5F86D6",
",.	c #FBFBFB",
"'.	c #ADC0ED",
").	c #386ED1",
"!.	c #2E5FCE",
"~.	c #316ACE",
"{.	c #BDC6D6",
"].	c #CECED6",
"^.	c #94ADE7",
"/.	c #215ACE",
"(.	c #3163CE",
"_.	c #3063CE",
":.	c #6386D2",
"<.	c #A2B5EC",
"[.	c #5585D1",
"}.	c #2E60CE",
"|.	c #2760CD",
"1.	c #7899D6",
"2.	c #CECECE",
"3.	c #FFFFF7",
"4.	c #84A5DE",
"5.	c #2963CE",
"6.	c #3669D1",
"7.	c #2958CA",
"8.	c #3970D2",
"9.	c #2962CE",
"0.	c #7791CE",
"a.	c #C4C5C6",
"b.	c #BDBDCE",
"c.	c #1E1E1E",
"d.	c #7192D6",
"e.	c #6B90D5",
"f.	c #3B6CCA",
"g.	c #5F84D4",
"h.	c #A5B5CE",
"i.	c #C6C6C6",
"j.	c #B5B5C6",
"k.	c #B5C6DE",
"l.	c #BDC6C6",
"m.	c #C6CEDE",
"n.	c #BDC6DE",
"                                                                ",
"                                                                ",
"                                                                ",
"                                                                ",
"                          . + @ # $                             ",
"                      . + % & & & * = + -                       ",
"                    . ; & & & & & & & & >                       ",
"                    @ & & & & & & & & & * $                     ",
"                  , ; & & & & & & & & & & >                     ",
"                  $ ; & & & & & & & & & & ' -                   ",
"                - ) ; & & & & & & & & & & = $                   ",
"                - ! = & & & & & & & & & & ~ ) -                 ",
"                - ! ' & & & & & & & & & & { ) -                 ",
"                - ] = & & & & & & & & & & = ! -                 ",
"                - ] ^ & & & & & & & & & & ^ ! -                 ",
"                - ! / & & & & & & & & & & / ! -                 ",
"                - ) @ ( & & & & & & & & ( _ _ : : < <           ",
"                - ) [ ; & & & & & & & < } | 1 1 1 1 | 2 2       ",
"                - ) # ' & & & & & & < 3 1 4 5 6 7 7 4 1 } 8     ",
"                - . 9 @ % & & & & < 3 1 6 0 a b c d d e 1 } f   ",
"                  , ! > g & & & & 2 1 h i j k l m n o p q 1 f   ",
"                    . = & & & & : r } s t u v 1 1 w x y z f A 8 ",
"                  $ @ & & & & & : 1 6 B C D E 1 F G H I J K L 8 ",
"            - ] { * ( & & & & & f 1 q M N 1 1 1 1 1 1 O P Q | 8 ",
"        ! / ^ & & * & & & & & & f 1 R S T 1 1 1 1 1 1 U V Q W 8 ",
"    9 ^ & & ( * ( & & & & & & & : 1 X Y Z `  .1 1 ..+.@.#.$.%.&.",
"  *.& & & & * & & & & & & & & & 8 1 2 =.-.;.>.1 ,.'.).!.~.{.].&.",
", g & & & & & & & & & & & & & & & 2 1 ^./.(._.:.<.[.}.|.1.2.{.- ",
") g & & & & & & & & & & & & & & & &.A 3.4.5.!.6.7.8.9.0.a.b.&.) ",
"+ c.& & & & & & & & & & & & & & & & 8 3 L 8 d.e.f.g.h.i.j.k.g ! ",
"/ % & & & & & & & & & & & & & & & & & &.f W W $ 2.2.l.j.&.& c.*.",
"{ c.* * * * * * * * * * * * * * * * * * * 8 8 m.n.k.&.* * * c.{ "};
