/* XPM */
static const char *wireless_32x32_xpm[] = {
"32 32 375 2",
"  	c None",
". 	c #F7F7F7",
"+ 	c #ECECEC",
"@ 	c #F6F6F6",
"# 	c #FCFCFC",
"$ 	c #EEEEEE",
"% 	c #E4E4E4",
"& 	c #FBFAFA",
"* 	c #FFFFFF",
"= 	c #FDFCFC",
"- 	c #E7E7E7",
"; 	c #E7E7E8",
"> 	c #FFFFFE",
", 	c #BCE2F5",
"' 	c #84C9ED",
") 	c #47B0E5",
"! 	c #219FE0",
"~ 	c #179BDF",
"{ 	c #209FE0",
"] 	c #45AEE5",
"^ 	c #7DC6EC",
"/ 	c #B7DFF5",
"( 	c #FEFFFE",
"_ 	c #E9E9EA",
": 	c #FDFCFB",
"< 	c #D5ECF8",
"[ 	c #5EB5E5",
"} 	c #0089D5",
"| 	c #007BD1",
"1 	c #007ED2",
"2 	c #0081D2",
"3 	c #007FD2",
"4 	c #007CD1",
"5 	c #0086D5",
"6 	c #51B0E3",
"7 	c #CAE7F5",
"8 	c #FFFEFD",
"9 	c #FFFDFC",
"0 	c #EAF5F9",
"a 	c #4CAADF",
"b 	c #0079CF",
"c 	c #007BCE",
"d 	c #0080D0",
"e 	c #007ACE",
"f 	c #0077CC",
"g 	c #007FD0",
"h 	c #018BD4",
"i 	c #0F90D7",
"j 	c #1091D7",
"k 	c #068DD4",
"l 	c #0080D1",
"m 	c #0078CC",
"n 	c #007ACD",
"o 	c #007FCF",
"p 	c #007CCF",
"q 	c #0078CD",
"r 	c #3BA2DD",
"s 	c #DAEEF7",
"t 	c #FFFFFC",
"u 	c #E8E8E8",
"v 	c #FFFFFD",
"w 	c #94CBEA",
"x 	c #007ACC",
"y 	c #0078CB",
"z 	c #007CCB",
"A 	c #0074C9",
"B 	c #0889D0",
"C 	c #72BAE3",
"D 	c #BBDDF0",
"E 	c #F5F8FA",
"F 	c #FBFCFB",
"G 	c #C2E2F1",
"H 	c #7CBFE6",
"I 	c #148ED3",
"J 	c #0073C9",
"K 	c #007ACB",
"L 	c #0077CA",
"M 	c #7EC1E6",
"N 	c #EDEDED",
"O 	c #4FA8DB",
"P 	c #006EC4",
"Q 	c #007BC9",
"R 	c #0071C4",
"S 	c #1289CE",
"T 	c #B9DBEE",
"U 	c #FEFBFA",
"V 	c #C7E2F1",
"W 	c #2190D1",
"X 	c #006FC4",
"Y 	c #006DC4",
"Z 	c #399DD6",
"` 	c #EBEBEB",
" .	c #3C9DD5",
"..	c #006BC0",
"+.	c #0075C5",
"@.	c #006DC1",
"#.	c #7FBCE1",
"$.	c #C4E0EF",
"%.	c #51A5D8",
"&.	c #1186CC",
"*.	c #007BC7",
"=.	c #0076C5",
"-.	c #007AC6",
";.	c #0F85CB",
">.	c #47A0D5",
",.	c #BADAEC",
"'.	c #95C8E6",
").	c #006FC2",
"!.	c #0075C4",
"~.	c #006CC2",
"{.	c #2290D0",
"].	c #FFFDFA",
"^.	c #DBDBDC",
"/.	c #FFFFFB",
"(.	c #C1DCED",
"_.	c #005BB7",
":.	c #006EBE",
"<.	c #0071C1",
"[.	c #CBE1F0",
"}.	c #B2D6EA",
"|.	c #1181C7",
"1.	c #0069BE",
"2.	c #006BBE",
"3.	c #0070C0",
"4.	c #006EBF",
"5.	c #006CBE",
"6.	c #006FC0",
"7.	c #006DBF",
"8.	c #0068BD",
"9.	c #077CC4",
"0.	c #A1CCE5",
"a.	c #DEEBF3",
"b.	c #0077C3",
"c.	c #0059B6",
"d.	c #ACD2E9",
"e.	c #D8D8D8",
"f.	c #FEFBF9",
"g.	c #F7F9F7",
"h.	c #1582C6",
"i.	c #0174C0",
"j.	c #DAE9F1",
"k.	c #4299CF",
"l.	c #0061B8",
"m.	c #006CBC",
"n.	c #006ABA",
"o.	c #0066B9",
"p.	c #0077C1",
"q.	c #248AC9",
"r.	c #439BCF",
"s.	c #479CD1",
"t.	c #2A8DCA",
"u.	c #057AC2",
"v.	c #0067BA",
"w.	c #0068BA",
"x.	c #006EBC",
"y.	c #2E8FCB",
"z.	c #FEFDFA",
"A.	c #EDF2F4",
"B.	c #0D7BC2",
"C.	c #0378C2",
"D.	c #E8F0F3",
"E.	c #CCCCCC",
"F.	c #E4E4E5",
"G.	c #FFFCF8",
"H.	c #FFFFFA",
"I.	c #FFFDF9",
"J.	c #157DC2",
"K.	c #0061B5",
"L.	c #006AB9",
"M.	c #0062B5",
"N.	c #3D93CA",
"O.	c #CDDFED",
"P.	c #D9E7F0",
"Q.	c #4B9ACE",
"R.	c #0064B6",
"S.	c #0068B7",
"T.	c #0063B6",
"U.	c #0474BD",
"V.	c #E8EFF3",
"W.	c #FFFEFA",
"X.	c #FFFCF9",
"Y.	c #EEEEEF",
"Z.	c #D5D7D7",
"`.	c #F3F3F3",
" +	c #FEF9F7",
".+	c #FAF8F7",
"++	c #0C77BD",
"@+	c #0060B3",
"#+	c #0061B3",
"$+	c #046EB8",
"%+	c #C6DBEA",
"&+	c #F8F8F6",
"*+	c #C6DBE9",
"=+	c #A1C6E1",
"-+	c #9BC4DF",
";+	c #C1D7E8",
">+	c #F2F2F5",
",+	c #D8E5EE",
"'+	c #0F75BC",
")+	c #005FB1",
"!+	c #0063B3",
"~+	c #006DB8",
"{+	c #ECF2F3",
"]+	c #FFFBF7",
"^+	c #F7F5F5",
"/+	c #DEDFDF",
"(+	c #FFFEF8",
"_+	c #B6D3E5",
":+	c #0045A4",
"<+	c #0053A9",
"[+	c #1D7ABC",
"}+	c #FFFCF7",
"|+	c #E2EBEF",
"1+	c #4A93C8",
"2+	c #0061B0",
"3+	c #0058AD",
"4+	c #0059AC",
"5+	c #005EAF",
"6+	c #3E8CC4",
"7+	c #D3E2ED",
"8+	c #2E86C1",
"9+	c #0053AA",
"0+	c #9CC3DE",
"a+	c #B1B1B2",
"b+	c #F7F4F3",
"c+	c #FDF8F5",
"d+	c #5A9DCB",
"e+	c #418BC2",
"f+	c #F8F5F4",
"g+	c #9FC5DD",
"h+	c #0059AB",
"i+	c #0057AA",
"j+	c #005DAD",
"k+	c #0055A9",
"l+	c #0054A8",
"m+	c #0055A8",
"n+	c #0054A9",
"o+	c #8AB8D8",
"p+	c #FFFDF8",
"q+	c #4A92C6",
"r+	c #4791C5",
"s+	c #F9F6F3",
"t+	c #CCCDCC",
"u+	c #F6F4F3",
"v+	c #FFFFF9",
"w+	c #A3C4DC",
"x+	c #004CA4",
"y+	c #005CAA",
"z+	c #0050A3",
"A+	c #0F6DB2",
"B+	c #84B2D3",
"C+	c #B1CCE0",
"D+	c #B2CDE0",
"E+	c #8AB5D6",
"F+	c #1973B6",
"G+	c #004FA3",
"H+	c #005DAA",
"I+	c #004AA1",
"J+	c #87B4D5",
"K+	c #F8F5F3",
"L+	c #DCDDDC",
"M+	c #A7A8A9",
"N+	c #E1E2E2",
"O+	c #FAF7F3",
"P+	c #E0E6EC",
"Q+	c #0053A4",
"R+	c #0058A6",
"S+	c #004CA0",
"T+	c #74A6CC",
"U+	c #FFFFF8",
"V+	c #8AB3D2",
"W+	c #004FA1",
"X+	c #004BA0",
"Y+	c #CDDDE7",
"Z+	c #FEF9F5",
"`+	c #E5E6E6",
" @	c #B3B5B5",
".@	c #FDF8F4",
"+@	c #C6D7E3",
"@@	c #003894",
"#@	c #6DA2C9",
"$@	c #FFFCF6",
"%@	c #FFFFF7",
"&@	c #CEDAE6",
"*@	c #CAD8E3",
"=@	c #FFFDF6",
"-@	c #FFFEF6",
";@	c #88B2D1",
">@	c #003C96",
",@	c #003492",
"'@	c #ADC9DB",
")@	c #FFFAF6",
"!@	c #B4B5B5",
"~@	c #FEF8F3",
"{@	c #9BBBD6",
"]@	c #86AFCE",
"^@	c #FFFAF5",
"/@	c #FFFDF5",
"(@	c #E3E8EC",
"_@	c #1D69AC",
":@	c #004298",
"<@	c #004398",
"[@	c #1061A7",
"}@	c #D4DEE6",
"|@	c #FFFDF7",
"1@	c #90B5D2",
"2@	c #8BB2D0",
"3@	c #FBF6F3",
"4@	c #F0EFF0",
"5@	c #AAABAB",
"6@	c #EEEEED",
"7@	c #FFFAF4",
"8@	c #FFFBF5",
"9@	c #F3F1EF",
"0@	c #1E6AAA",
"a@	c #004093",
"b@	c #00559E",
"c@	c #004495",
"d@	c #055AA2",
"e@	c #FAF7F2",
"f@	c #F4F2EF",
"g@	c #FFFBF4",
"h@	c #EFEEED",
"i@	c #BCBDBD",
"j@	c #B9BABA",
"k@	c #CFD0D0",
"l@	c #FAF5F1",
"m@	c #C9D6E1",
"n@	c #003C90",
"o@	c #00519B",
"p@	c #00539C",
"q@	c #00378E",
"r@	c #ABC3D7",
"s@	c #FFF9F3",
"t@	c #BDBEBE",
"u@	c #F9F5F0",
"v@	c #CAD5E0",
"w@	c #00378B",
"x@	c #004C97",
"y@	c #004F98",
"z@	c #004F97",
"A@	c #003388",
"B@	c #ABC2D6",
"C@	c #FEF8F2",
"D@	c #1C5FA0",
"E@	c #003387",
"F@	c #004A93",
"G@	c #003789",
"H@	c #044F96",
"I@	c #F8F5EF",
"J@	c #D0D1D2",
"K@	c #F9F5F1",
"L@	c #DCE2E6",
"M@	c #1B5898",
"N@	c #002B81",
"O@	c #002B80",
"P@	c #0F4C94",
"Q@	c #CCD6E0",
"R@	c #FDF7F1",
"S@	c #D9DBDC",
"T@	c #E6E7E8",
"U@	c #F8F4EF",
"V@	c #FFFAF2",
"W@	c #C3CEDA",
"X@	c #BECAD9",
"Y@	c #FAF6F0",
"Z@	c #FCF6F0",
"`@	c #E7E8E9",
" #	c #CBCCCB",
".#	c #EAE9EA",
"+#	c #F5F2EE",
"@#	c #F7F2EE",
"##	c #EBEAEA",
"$#	c #CFD1D0",
"%#	c #C1C2C4",
"                                                                ",
"                                                                ",
"                              . . .                             ",
"                        + @ # # # # @ $                         ",
"                % & * * * * * * * * * * * * = -                 ",
"            ; > * * > , ' ) ! ~ ~ { ] ^ / ( * * > _             ",
"          : * * < [ } | 1 2 2 2 2 2 2 3 4 5 6 7 * * 8           ",
"      % 9 * 0 a b c d e f g h i j k l m n o p q r s * t u       ",
"    u v * w x y z A B C D E * * * * F G H I J z K L M * v N     ",
"  % t * O P Q R S T * * * * v U U v * * * * V W X Q Y Z * t `   ",
"  U v  ...+.@.#.* * * $.%.&.*.=.=.-.;.>.,.* * * '.).!.~.{.t ].  ",
"^./.(._.:.<.[.* * }.|.1.2.3.4.5.5.4.6.7.8.9.0.* * a.b.5.c.d.v e.",
"  f.g.h.i.j.* /.k.l.m.n.o.p.q.r.s.t.u.v.w.x.l.y.z.* A.B.C.D.].E.",
"  F.G.H.I.> g.J.K.L.M.N.O.v * * * * v P.Q.R.S.T.U.V.* H.W.X.Y.  ",
"    Z.`. +.+++@+#+$+%+* * &+*+=+-+;+>+* * ,+'+)+!+~+{+]+^+/+    ",
"        (+_+:+<+[+}+* |+1+2+3+4+4+3+5+6+7+* /.8+9+:+0+H.a+      ",
"        b+c+d+e+f+* g+h+i+j+k+l+l+m+j+h+n+o+* p+q+r+`.s+        ",
"        t+u+v+H.v w+x+y+z+A+B+C+D+E+F+G+H+I+J+v H.H.K+L+        ",
"          M+N+O+P+Q+R+S+T+U+/.t t /.H.V+W+R+X+Y+Z+`+ @          ",
"              .@+@@@@@#@t $@%@&@*@=@-@v ;@>@,@'@)@!@            ",
"              $ ~@{@]@^@/@(@_@:@<@[@}@|@-@1@2@3@4@              ",
"              5@6@7@8@9@/@0@a@b@b@c@d@e@f@g@8@h@i@              ",
"                  j@k@l@m@n@o@p@p@p@q@r@s@Z.t@                  ",
"                      u@v@w@x@y@y@z@A@B@C@                      ",
"                      ` g@D@E@F@F@G@H@I@h@                      ",
"                      J@K@L@M@N@O@P@Q@R@S@                      ",
"                        T@U@V@W@X@Y@Z@`@                        ",
"                           #.#+#@###$#                          ",
"                              %#%#                              ",
"                                                                ",
"                                                                ",
"                                                                "};
