/* XPM */
static const char * wireless_16x16_xpm[] = {
"16 16 118 2",
"  	c None",
". 	c #E9E9E9",
"+ 	c #F9F9F9",
"@ 	c #F9FEFE",
"# 	c #BCE1F4",
"$ 	c #9BD3F1",
"% 	c #BAE0F4",
"& 	c #F6FBFE",
"* 	c #FBFBFB",
"= 	c #F5F5F5",
"- 	c #D8EFF8",
"; 	c #2B9CDB",
"> 	c #006DCB",
", 	c #006FCC",
"' 	c #0079D0",
") 	c #0070CC",
"! 	c #2298D9",
"~ 	c #D1EBF7",
"{ 	c #F7F7F7",
"] 	c #FFFFFF",
"^ 	c #6EB9E2",
"/ 	c #005EC0",
"( 	c #158CD1",
"_ 	c #CAE8F5",
": 	c #D1EAF6",
"< 	c #1F92D3",
"[ 	c #005DBE",
"} 	c #61B2DF",
"| 	c #E6E6E6",
"1 	c #5BAAD9",
"2 	c #004DB2",
"3 	c #A5D1EA",
"4 	c #80BCDF",
"5 	c #0076C2",
"6 	c #0063BD",
"7 	c #0063BB",
"8 	c #0074C2",
"9 	c #77B6DD",
"0 	c #B2D9ED",
"a 	c #004FB4",
"b 	c #4AA1D5",
"c 	c #E7E7E6",
"d 	c #D0CECB",
"e 	c #B1D2E8",
"f 	c #C1DDEC",
"g 	c #EAF3F6",
"h 	c #0060B5",
"i 	c #0060B6",
"j 	c #7BB8DC",
"k 	c #CAE2EE",
"l 	c #CCE3EE",
"m 	c #82BCDE",
"n 	c #0065B8",
"o 	c #005AB3",
"p 	c #DFECF1",
"q 	c #A8CEE5",
"r 	c #D4D2D0",
"s 	c #C4C4BF",
"t 	c #F8F6F4",
"u 	c #0044A3",
"v 	c #408FC6",
"w 	c #B4CFE2",
"x 	c #428DC6",
"y 	c #408CC4",
"z 	c #ACC9E1",
"A 	c #4F97CA",
"B 	c #003FA2",
"C 	c #EBF0F1",
"D 	c #CACAC7",
"E 	c #F3F2F2",
"F 	c #B0CCE0",
"G 	c #FFFCF7",
"H 	c #126CB3",
"I 	c #00409E",
"J 	c #2F84BE",
"K 	c #3285C0",
"L 	c #00439F",
"M 	c #0765B0",
"N 	c #FFFAF5",
"O 	c #B0CDE0",
"P 	c #F0F0F2",
"Q 	c #F1F1EE",
"R 	c #4589BE",
"S 	c #00419A",
"T 	c #FCF9F5",
"U 	c #FFFFFE",
"V 	c #FFFFFD",
"W 	c #FFFFF8",
"X 	c #00489D",
"Y 	c #337EB8",
"Z 	c #F4F4F3",
"` 	c #D5DEE6",
" .	c #EEEEEE",
"..	c #D0DDE5",
"+.	c #004497",
"@.	c #004196",
"#.	c #C4D4E1",
"$.	c #F4F3F0",
"%.	c #D2DCE5",
"&.	c #BDBBB9",
"*.	c #EAEAE4",
"=.	c #437EB2",
"-.	c #00338A",
";.	c #00358B",
">.	c #3172AC",
",.	c #EDEDE7",
"'.	c #C6C2BE",
").	c #B7C8D8",
"!.	c #003386",
"~.	c #003083",
"{.	c #ACC0D4",
"].	c #CFCAC5",
"^.	c #DEDAD4",
"/.	c #E8EAE9",
"(.	c #E6E8E9",
"_.	c #E2DED8",
":.	c #E3E0DB",
"<.	c #E6E1DC",
"                                ",
"              . .               ",
"        + @ # $ $ % & *         ",
"    = - ; > , ' ' ) > ! ~ {     ",
"  ] ^ / ( _ ] ] ] ] : < [ } ]   ",
"| 1 2 3 ] 4 5 6 7 8 9 ] 0 a b c ",
"d e f g h i j k l m n o p k q r ",
"  s t u v ] w x y z ] A B C D   ",
"    E F G H I J K L M N O P     ",
"      Q R S T U V W X Y Z       ",
"        `  ...+.@.#.$.%.&.      ",
"          *.=.-.;.>.,.          ",
"          '.).!.~.{.].          ",
"            ^./.(._.            ",
"              :.<.              ",
"                                "};
